Sitara_Slnt.ufo
<glyph name="dollar" format="1">
  <advance width="1145"/>
  <unicode hex="0024"/>
  <outline>
    <contour>
      <point x="621" y="1556" type="line"/>
      <point x="621" y="1401" type="line"/>
      <point x="744" y="1398"/>
      <point x="828" y="1372"/>
      <point x="883" y="1332" type="curve" smooth="yes"/>
      <point x="938" y="1291"/>
      <point x="961" y="1235"/>
      <point x="961" y="1171" type="curve" smooth="yes"/>
      <point x="961" y="1083"/>
      <point x="898" y="1038"/>
      <point x="799" y="1038" type="curve"/>
      <point x="799" y="1098"/>
      <point x="791" y="1162"/>
      <point x="765" y="1212" type="curve" smooth="yes"/>
      <point x="739" y="1262"/>
      <point x="693" y="1299"/>
      <point x="621" y="1307" type="curve"/>
      <point x="621" y="829" type="line"/>
      <point x="744" y="776"/>
      <point x="839" y="725"/>
      <point x="903" y="663" type="curve" smooth="yes"/>
      <point x="967" y="601"/>
      <point x="1001" y="527"/>
      <point x="1001" y="430" type="curve" smooth="yes"/>
      <point x="1001" y="225"/>
      <point x="864" y="111"/>
      <point x="621" y="86" type="curve"/>
      <point x="621" y="-162" type="line"/>
      <point x="518" y="-162" type="line"/>
      <point x="518" y="82" type="line"/>
      <point x="450" y="82"/>
      <point x="380" y="88"/>
      <point x="314" y="102" type="curve" smooth="yes"/>
      <point x="248" y="116"/>
      <point x="186" y="137"/>
      <point x="135" y="166" type="curve"/>
      <point x="135" y="481" type="line"/>
      <point x="221" y="481" type="line"/>
      <point x="221" y="405"/>
      <point x="251" y="331"/>
      <point x="304" y="275" type="curve" smooth="yes"/>
      <point x="356" y="218"/>
      <point x="430" y="179"/>
      <point x="518" y="172" type="curve"/>
      <point x="518" y="678" type="line"/>
      <point x="390" y="735"/>
      <point x="303" y="790"/>
      <point x="248" y="852" type="curve" smooth="yes"/>
      <point x="193" y="914"/>
      <point x="170" y="984"/>
      <point x="170" y="1073" type="curve" smooth="yes"/>
      <point x="170" y="1165"/>
      <point x="204" y="1240"/>
      <point x="264" y="1296" type="curve" smooth="yes"/>
      <point x="324" y="1351"/>
      <point x="411" y="1385"/>
      <point x="518" y="1397" type="curve"/>
      <point x="518" y="1556" type="line"/>
    </contour>
    <contour>
      <point x="354" y="1033"/>
      <point x="368" y="990"/>
      <point x="396" y="957" type="curve" smooth="yes"/>
      <point x="424" y="924"/>
      <point x="465" y="898"/>
      <point x="518" y="874" type="curve"/>
      <point x="518" y="1303" type="line"/>
      <point x="465" y="1291"/>
      <point x="423" y="1264"/>
      <point x="396" y="1228" type="curve" smooth="yes"/>
      <point x="368" y="1191"/>
      <point x="354" y="1143"/>
      <point x="354" y="1090" type="curve" smooth="yes"/>
    </contour>
    <contour>
      <point x="813" y="454"/>
      <point x="801" y="496"/>
      <point x="770" y="533" type="curve" smooth="yes"/>
      <point x="739" y="570"/>
      <point x="692" y="601"/>
      <point x="621" y="633" type="curve"/>
      <point x="621" y="178" type="line"/>
      <point x="744" y="199"/>
      <point x="813" y="282"/>
      <point x="813" y="399" type="curve" smooth="yes"/>
    </contour>
  </outline>
</glyph>
<glyph name="dCandraBinduInverted" format="1">
  <advance width="0"/>
  <unicode hex="0900"/>
  <outline>
    <contour>
      <point x="595" y="1550"/>
      <point x="611" y="1567"/>
      <point x="611" y="1637" type="curve" smooth="yes"/>
      <point x="611" y="1760"/>
      <point x="518" y="1927"/>
      <point x="335" y="1927" type="curve" smooth="yes"/>
      <point x="139" y="1927"/>
      <point x="-28" y="1753"/>
      <point x="-28" y="1633" type="curve" smooth="yes"/>
      <point x="-28" y="1594"/>
      <point x="-7" y="1570"/>
      <point x="44" y="1547" type="curve"/>
      <point x="119" y="1717"/>
      <point x="233" y="1794"/>
      <point x="345" y="1794" type="curve" smooth="yes"/>
      <point x="451" y="1794"/>
      <point x="529" y="1724"/>
      <point x="552" y="1529" type="curve"/>
    </contour>
    <contour>
      <point x="261" y="1654"/>
      <point x="203" y="1602"/>
      <point x="203" y="1541" type="curve" smooth="yes"/>
      <point x="203" y="1496"/>
      <point x="236" y="1459"/>
      <point x="284" y="1459" type="curve" smooth="yes"/>
      <point x="343" y="1459"/>
      <point x="402" y="1511"/>
      <point x="402" y="1571" type="curve" smooth="yes"/>
      <point x="402" y="1617"/>
      <point x="368" y="1654"/>
      <point x="322" y="1654" type="curve" smooth="yes"/>
    </contour>
    <contour>
      <point x="271.160531247" y="1395.0" type="move" name="_abvm_nasal"/>
    </contour>
  </outline>
</glyph>
<glyph name="dCandraBindu" format="1">
  <advance width="0"/>
  <unicode hex="0901"/>
  <outline>
    <contour>
      <point x="364" y="1732"/>
      <point x="423" y="1784"/>
      <point x="423" y="1845" type="curve" smooth="yes"/>
      <point x="423" y="1890"/>
      <point x="390" y="1927"/>
      <point x="342" y="1927" type="curve" smooth="yes"/>
      <point x="283" y="1927"/>
      <point x="224" y="1875"/>
      <point x="224" y="1815" type="curve" smooth="yes"/>
      <point x="224" y="1769"/>
      <point x="257" y="1732"/>
      <point x="304" y="1732" type="curve" smooth="yes"/>
    </contour>
    <contour>
      <point x="23" y="1836"/>
      <point x="7" y="1819"/>
      <point x="7" y="1749" type="curve" smooth="yes"/>
      <point x="7" y="1626"/>
      <point x="101" y="1459"/>
      <point x="284" y="1459" type="curve" smooth="yes"/>
      <point x="479" y="1459"/>
      <point x="647" y="1633"/>
      <point x="647" y="1753" type="curve" smooth="yes"/>
      <point x="647" y="1792"/>
      <point x="626" y="1816"/>
      <point x="575" y="1839" type="curve"/>
      <point x="500" y="1669"/>
      <point x="386" y="1592"/>
      <point x="274" y="1592" type="curve" smooth="yes"/>
      <point x="168" y="1592"/>
      <point x="89" y="1662"/>
      <point x="66" y="1857" type="curve"/>
    </contour>
    <contour>
      <point x="271.160531247" y="1395.0" type="move" name="_abvm_nasal"/>
    </contour>
  </outline>
</glyph>
<glyph name="dAnusvara" format="1">
  <advance width="0"/>
  <unicode hex="0902"/>
  <outline>
    <contour>
      <point x="262" y="1650"/>
      <point x="204" y="1599"/>
      <point x="204" y="1540" type="curve" smooth="yes"/>
      <point x="204" y="1495"/>
      <point x="237" y="1459"/>
      <point x="284" y="1459" type="curve" smooth="yes"/>
      <point x="342" y="1459"/>
      <point x="399" y="1510"/>
      <point x="399" y="1570" type="curve" smooth="yes"/>
      <point x="399" y="1614"/>
      <point x="367" y="1650"/>
      <point x="321" y="1650" type="curve" smooth="yes"/>
    </contour>
    <contour>
      <point x="271.160531247" y="1395.0" type="move" name="_abvm_nasal"/>
    </contour>
  </outline>
</glyph>
<glyph name="dVisarga" format="1">
  <advance width="573"/>
  <unicode hex="0903"/>
  <outline>
    <contour>
      <point x="422" y="1017"/>
      <point x="356" y="959"/>
      <point x="356" y="891" type="curve" smooth="yes"/>
      <point x="356" y="840"/>
      <point x="393" y="799"/>
      <point x="446" y="799" type="curve" smooth="yes"/>
      <point x="513" y="799"/>
      <point x="580" y="857"/>
      <point x="580" y="925" type="curve" smooth="yes"/>
      <point x="580" y="976"/>
      <point x="542" y="1017"/>
      <point x="489" y="1017" type="curve" smooth="yes"/>
    </contour>
    <contour>
      <point x="291" y="347"/>
      <point x="226" y="289"/>
      <point x="226" y="221" type="curve" smooth="yes"/>
      <point x="226" y="170"/>
      <point x="263" y="129"/>
      <point x="316" y="129" type="curve" smooth="yes"/>
      <point x="383" y="129"/>
      <point x="449" y="187"/>
      <point x="449" y="255" type="curve" smooth="yes"/>
      <point x="449" y="306"/>
      <point x="411" y="347"/>
      <point x="358" y="347" type="curve" smooth="yes"/>
    </contour>
  </outline>
</glyph>
<glyph name="dAshort" format="1">
  <advance width="1550"/>
  <unicode hex="0904"/>
  <outline>
    <component base="dA"/>
    <component base="dEshortsign" xOffset="1265"/>
    <contour>
      <point x="1336.30677413" y="-19.0" type="move" name="blwm_matra"/>
    </contour>
    <contour>
      <point x="1519.55390961" y="1325.0" type="move" name="abvm_matra"/>
    </contour>
    <contour>
      <point x="1086.00849462" y="1600.0" type="move" name="abvm_latin"/>
    </contour>
    <contour>
      <point x="1533.16053125" y="1395.0" type="move" name="abvm_nasal"/>
    </contour>
    <contour>
      <point x="776.943803091" y="10.0" type="move" name="blwm_rakar"/>
    </contour>
    <contour>
      <point x="773.056196909" y="-10.0" type="move" name="blwm_mid"/>
    </contour>
    <contour>
      <point x="-4.47074711017" y="-23.0" type="move" name="blwm_nukta"/>
    </contour>
    <contour>
      <point x="1521.4977127" y="1335.0" type="move" name="abvm_reph"/>
    </contour>
  </outline>
</glyph>
<glyph name="dA" format="1">
  <advance width="1550"/>
  <unicode hex="0905"/>
  <outline>
    <contour>
      <point x="526" y="1335"/>
      <point x="395" y="1220"/>
      <point x="395" y="1117" type="curve" smooth="yes"/>
      <point x="395" y="1057"/>
      <point x="442" y="1017"/>
      <point x="521" y="1017" type="curve"/>
      <point x="544" y="1135"/>
      <point x="645" y="1224"/>
      <point x="785" y="1224" type="curve" smooth="yes"/>
      <point x="887" y="1224"/>
      <point x="953" y="1173"/>
      <point x="953" y="1076" type="curve" smooth="yes"/>
      <point x="953" y="918"/>
      <point x="832" y="814"/>
      <point x="543" y="799" type="curve"/>
      <point x="535" y="789" type="line"/>
      <point x="586" y="632" type="line"/>
      <point x="673" y="642"/>
      <point x="748" y="659"/>
      <point x="812" y="683" type="curve"/>
      <point x="879" y="651"/>
      <point x="919" y="573"/>
      <point x="919" y="490" type="curve" smooth="yes"/>
      <point x="919" y="338"/>
      <point x="794" y="224"/>
      <point x="622" y="224" type="curve" smooth="yes"/>
      <point x="423" y="224"/>
      <point x="282" y="385"/>
      <point x="301" y="756" type="curve"/>
      <point x="233" y="750"/>
      <point x="202" y="722"/>
      <point x="202" y="597" type="curve" smooth="yes"/>
      <point x="202" y="408"/>
      <point x="307" y="62"/>
      <point x="633" y="62" type="curve" smooth="yes"/>
      <point x="876" y="62"/>
      <point x="1044" y="230"/>
      <point x="1044" y="444" type="curve" smooth="yes"/>
      <point x="1044" y="496"/>
      <point x="1034" y="554"/>
      <point x="1016" y="600" type="curve"/>
      <point x="1061" y="582"/>
      <point x="1110" y="573"/>
      <point x="1156" y="573" type="curve" smooth="yes"/>
      <point x="1201" y="573"/>
      <point x="1246" y="582"/>
      <point x="1300" y="605" type="curve"/>
      <point x="1186" y="19" type="line"/>
      <point x="1329" y="-19" type="line"/>
      <point x="1340" y="-12" type="line"/>
      <point x="1575" y="1197" type="line"/>
      <point x="1833" y="1197" type="line"/>
      <point x="1840" y="1206" type="line"/>
      <point x="1809" y="1330" type="line"/>
      <point x="1228" y="1330" type="line"/>
      <point x="1220" y="1321" type="line"/>
      <point x="1252" y="1197" type="line"/>
      <point x="1413" y="1197" type="line"/>
      <point x="1358" y="907" type="line" smooth="yes"/>
      <point x="1332" y="770"/>
      <point x="1220" y="696"/>
      <point x="1092" y="696" type="curve" smooth="yes"/>
      <point x="1038" y="696"/>
      <point x="978" y="709"/>
      <point x="924" y="740" type="curve"/>
      <point x="1053" y="835"/>
      <point x="1088" y="918"/>
      <point x="1088" y="1029" type="curve" smooth="yes"/>
      <point x="1088" y="1208"/>
      <point x="955" y="1335"/>
      <point x="740" y="1335" type="curve" smooth="yes"/>
    </contour>
    <contour>
      <point x="1336.30677413" y="-19.0" type="move" name="blwm_matra"/>
    </contour>
    <contour>
      <point x="1519.55390961" y="1325.0" type="move" name="abvm_matra"/>
    </contour>
    <contour>
      <point x="1086.00849462" y="1600.0" type="move" name="abvm_latin"/>
    </contour>
    <contour>
      <point x="1533.16053125" y="1395.0" type="move" name="abvm_nasal"/>
    </contour>
    <contour>
      <point x="776.943803091" y="10.0" type="move" name="blwm_rakar"/>
    </contour>
    <contour>
      <point x="773.056196909" y="-10.0" type="move" name="blwm_mid"/>
    </contour>
    <contour>
      <point x="-4.47074711017" y="-23.0" type="move" name="blwm_nukta"/>
    </contour>
    <contour>
      <point x="1521.4977127" y="1335.0" type="move" name="abvm_reph"/>
    </contour>
  </outline>
</glyph>
<glyph name="dAa" format="1">
  <advance width="2032.57734718"/>
  <unicode hex="0906"/>
  <outline>
    <component base="dA" xOffset="107"/>
    <component base="dAasign" xOffset="1567"/>
    <contour>
      <point x="1819.30677413" y="-19.0" type="move" name="blwm_matra"/>
    </contour>
    <contour>
      <point x="2002.55390961" y="1325.0" type="move" name="abvm_matra"/>
    </contour>
    <contour>
      <point x="1327.00849462" y="1600.0" type="move" name="abvm_latin"/>
    </contour>
    <contour>
      <point x="2016.16053125" y="1395.0" type="move" name="abvm_nasal"/>
    </contour>
    <contour>
      <point x="1017.94380309" y="10.0" type="move" name="blwm_rakar"/>
    </contour>
    <contour>
      <point x="1014.05619691" y="-10.0" type="move" name="blwm_mid"/>
    </contour>
    <contour>
      <point x="-4.47074711017" y="-23.0" type="move" name="blwm_nukta"/>
    </contour>
    <contour>
      <point x="2004.4977127" y="1335.0" type="move" name="abvm_reph"/>
    </contour>
  </outline>
</glyph>
<glyph name="dIi" format="1">
  <advance width="1006"/>
  <unicode hex="0908"/>
  <outline>
    <contour>
      <point x="966" y="885" type="line"/>
      <point x="976" y="893" type="line"/>
      <point x="1035" y="1197" type="line"/>
      <point x="1289" y="1197" type="line"/>
      <point x="1296" y="1206" type="line"/>
      <point x="1265" y="1330" type="line"/>
      <point x="1001" y="1330" type="line"/>
      <point x="952" y="1377"/>
      <point x="923" y="1438"/>
      <point x="923" y="1504" type="curve" smooth="yes"/>
      <point x="923" y="1622"/>
      <point x="1007" y="1715"/>
      <point x="1135" y="1715" type="curve" smooth="yes"/>
      <point x="1189" y="1715"/>
      <point x="1250" y="1697"/>
      <point x="1297" y="1648" type="curve"/>
      <point x="1302" y="1658"/>
      <point x="1310" y="1668"/>
      <point x="1310" y="1699" type="curve" smooth="yes"/>
      <point x="1310" y="1780"/>
      <point x="1235" y="1854"/>
      <point x="1113" y="1854" type="curve" smooth="yes"/>
      <point x="932" y="1854"/>
      <point x="794" y="1707"/>
      <point x="794" y="1547" type="curve" smooth="yes"/>
      <point x="794" y="1469"/>
      <point x="824" y="1388"/>
      <point x="875" y="1330" type="curve"/>
      <point x="209" y="1330" type="line"/>
      <point x="201" y="1321" type="line"/>
      <point x="233" y="1197" type="line"/>
      <point x="881" y="1197" type="line"/>
      <point x="849" y="1034" type="line" smooth="yes"/>
      <point x="848" y="1029"/>
      <point x="844" y="1026"/>
      <point x="839" y="1026" type="curve" smooth="yes"/>
      <point x="506" y="1026" type="line" smooth="yes"/>
      <point x="356" y="1026"/>
      <point x="281" y="946"/>
      <point x="281" y="844" type="curve" smooth="yes"/>
      <point x="281" y="712"/>
      <point x="395" y="532"/>
      <point x="559" y="532" type="curve" smooth="yes"/>
      <point x="618" y="532"/>
      <point x="780" y="554"/>
      <point x="817" y="554" type="curve" smooth="yes"/>
      <point x="856" y="554"/>
      <point x="873" y="527"/>
      <point x="873" y="496" type="curve" smooth="yes"/>
      <point x="873" y="394"/>
      <point x="712" y="310"/>
      <point x="480" y="311" type="curve"/>
      <point x="457" y="396"/>
      <point x="421" y="447"/>
      <point x="353" y="447" type="curve" smooth="yes"/>
      <point x="294" y="447"/>
      <point x="219" y="409"/>
      <point x="219" y="319" type="curve" smooth="yes"/>
      <point x="219" y="236"/>
      <point x="292" y="162"/>
      <point x="432" y="150" type="curve"/>
      <point x="463" y="-61"/>
      <point x="565" y="-143"/>
      <point x="670" y="-143" type="curve" smooth="yes"/>
      <point x="751" y="-143"/>
      <point x="818" y="-98"/>
      <point x="818" y="-24" type="curve" smooth="yes"/>
      <point x="818" y="-7"/>
      <point x="815" y="14"/>
      <point x="808" y="33" type="curve"/>
      <point x="776" y="23"/>
      <point x="749" y="17"/>
      <point x="707" y="17" type="curve" smooth="yes"/>
      <point x="612" y="17"/>
      <point x="561" y="45"/>
      <point x="520" y="149" type="curve"/>
      <point x="784" y="164"/>
      <point x="974" y="290"/>
      <point x="974" y="470" type="curve" smooth="yes"/>
      <point x="974" y="586"/>
      <point x="904" y="721"/>
      <point x="771" y="721" type="curve" smooth="yes"/>
      <point x="705" y="721"/>
      <point x="564" y="690"/>
      <point x="502" y="690" type="curve" smooth="yes"/>
      <point x="442" y="690"/>
      <point x="407" y="722"/>
      <point x="407" y="772" type="curve" smooth="yes"/>
      <point x="407" y="833"/>
      <point x="446" y="885"/>
      <point x="561" y="885" type="curve" smooth="yes"/>
    </contour>
    <contour>
      <point x="796.306774126" y="-19.0" type="move" name="blwm_matra"/>
    </contour>
    <contour>
      <point x="979.553909607" y="1325.0" type="move" name="abvm_matra"/>
    </contour>
    <contour>
      <point x="814.00849462" y="1600.0" type="move" name="abvm_latin"/>
    </contour>
    <contour>
      <point x="993.160531247" y="1395.0" type="move" name="abvm_nasal"/>
    </contour>
    <contour>
      <point x="504.943803091" y="10.0" type="move" name="blwm_rakar"/>
    </contour>
    <contour>
      <point x="501.056196909" y="-10.0" type="move" name="blwm_mid"/>
    </contour>
    <contour>
      <point x="-4.47074711017" y="-23.0" type="move" name="blwm_nukta"/>
    </contour>
    <contour>
      <point x="981.497712699" y="1335.0" type="move" name="abvm_reph"/>
    </contour>
  </outline>
</glyph>
<glyph name="dU" format="1">
  <advance width="1118"/>
  <unicode hex="0909"/>
  <outline>
    <contour>
      <point x="1401" y="1197" type="line"/>
      <point x="1408" y="1206" type="line"/>
      <point x="1377" y="1330" type="line"/>
      <point x="209" y="1330" type="line"/>
      <point x="201" y="1321" type="line"/>
      <point x="233" y="1197" type="line"/>
      <point x="847" y="1197" type="line" smooth="yes"/>
      <point x="951" y="1197"/>
      <point x="995" y="1127"/>
      <point x="995" y="1058" type="curve" smooth="yes"/>
      <point x="995" y="920"/>
      <point x="840" y="830"/>
      <point x="576" y="828" type="curve"/>
      <point x="568" y="819" type="line"/>
      <point x="604" y="655" type="line"/>
      <point x="691" y="655"/>
      <point x="769" y="666"/>
      <point x="837" y="687" type="curve"/>
      <point x="913" y="655"/>
      <point x="964" y="590"/>
      <point x="964" y="502" type="curve" smooth="yes"/>
      <point x="964" y="342"/>
      <point x="825" y="232"/>
      <point x="655" y="232" type="curve" smooth="yes"/>
      <point x="440" y="232"/>
      <point x="299" y="421"/>
      <point x="313" y="806" type="curve"/>
      <point x="229" y="799"/>
      <point x="210" y="744"/>
      <point x="210" y="640" type="curve" smooth="yes"/>
      <point x="210" y="443"/>
      <point x="322" y="70"/>
      <point x="667" y="70" type="curve" smooth="yes"/>
      <point x="918" y="70"/>
      <point x="1090" y="244"/>
      <point x="1090" y="451" type="curve" smooth="yes"/>
      <point x="1090" y="563"/>
      <point x="1038" y="667"/>
      <point x="953" y="736" type="curve"/>
      <point x="1080" y="819"/>
      <point x="1121" y="900"/>
      <point x="1121" y="999" type="curve" smooth="yes"/>
      <point x="1121" y="1060"/>
      <point x="1102" y="1129"/>
      <point x="1059" y="1197" type="curve"/>
    </contour>
    <contour>
      <point x="887.306774126" y="-19.0" type="move" name="blwm_matra"/>
    </contour>
    <contour>
      <point x="1070.55390961" y="1325.0" type="move" name="abvm_matra"/>
    </contour>
    <contour>
      <point x="870.00849462" y="1600.0" type="move" name="abvm_latin"/>
    </contour>
    <contour>
      <point x="1084.16053125" y="1395.0" type="move" name="abvm_nasal"/>
    </contour>
    <contour>
      <point x="560.943803091" y="10.0" type="move" name="blwm_rakar"/>
    </contour>
    <contour>
      <point x="557.056196909" y="-10.0" type="move" name="blwm_mid"/>
    </contour>
    <contour>
      <point x="-4.47074711017" y="-23.0" type="move" name="blwm_nukta"/>
    </contour>
    <contour>
      <point x="1072.4977127" y="1335.0" type="move" name="abvm_reph"/>
    </contour>
  </outline>
</glyph>
<glyph name="dUu" format="1">
  <advance width="1518"/>
  <unicode hex="090A"/>
  <outline>
    <contour>
      <point x="1121" y="1060"/>
      <point x="1102" y="1129"/>
      <point x="1059" y="1197" type="curve"/>
      <point x="1801" y="1197" type="line"/>
      <point x="1808" y="1206" type="line"/>
      <point x="1777" y="1330" type="line"/>
      <point x="209" y="1330" type="line"/>
      <point x="201" y="1321" type="line"/>
      <point x="233" y="1197" type="line"/>
      <point x="847" y="1197" type="line" smooth="yes"/>
      <point x="951" y="1197"/>
      <point x="995" y="1127"/>
      <point x="995" y="1058" type="curve" smooth="yes"/>
      <point x="995" y="920"/>
      <point x="840" y="830"/>
      <point x="576" y="828" type="curve"/>
      <point x="568" y="819" type="line"/>
      <point x="604" y="655" type="line"/>
      <point x="691" y="655"/>
      <point x="769" y="666"/>
      <point x="837" y="687" type="curve"/>
      <point x="913" y="655"/>
      <point x="964" y="590"/>
      <point x="964" y="502" type="curve" smooth="yes"/>
      <point x="964" y="342"/>
      <point x="825" y="232"/>
      <point x="655" y="232" type="curve" smooth="yes"/>
      <point x="440" y="232"/>
      <point x="299" y="421"/>
      <point x="313" y="806" type="curve"/>
      <point x="229" y="799"/>
      <point x="210" y="744"/>
      <point x="210" y="640" type="curve" smooth="yes"/>
      <point x="210" y="443"/>
      <point x="322" y="70"/>
      <point x="667" y="70" type="curve" smooth="yes"/>
      <point x="918" y="70"/>
      <point x="1091" y="245"/>
      <point x="1091" y="454" type="curve" smooth="yes"/>
      <point x="1091" y="482"/>
      <point x="1088" y="519"/>
      <point x="1083" y="543" type="curve"/>
      <point x="1183" y="649"/>
      <point x="1266" y="703"/>
      <point x="1339" y="703" type="curve" smooth="yes"/>
      <point x="1408" y="703"/>
      <point x="1446" y="649"/>
      <point x="1446" y="567" type="curve" smooth="yes"/>
      <point x="1446" y="411"/>
      <point x="1329" y="276"/>
      <point x="1179" y="213" type="curve"/>
      <point x="1197" y="163"/>
      <point x="1243" y="126"/>
      <point x="1299" y="126" type="curve" smooth="yes"/>
      <point x="1418" y="126"/>
      <point x="1563" y="281"/>
      <point x="1563" y="507" type="curve" smooth="yes"/>
      <point x="1563" y="693"/>
      <point x="1456" y="829"/>
      <point x="1302" y="829" type="curve" smooth="yes"/>
      <point x="1211" y="829"/>
      <point x="1134" y="785"/>
      <point x="1016" y="682" type="curve"/>
      <point x="997" y="701"/>
      <point x="977" y="719"/>
      <point x="953" y="736" type="curve"/>
      <point x="1080" y="819"/>
      <point x="1121" y="900"/>
      <point x="1121" y="999" type="curve" smooth="yes"/>
    </contour>
    <contour>
      <point x="887.306774126" y="-19.0" type="move" name="blwm_matra"/>
    </contour>
    <contour>
      <point x="1070.55390961" y="1325.0" type="move" name="abvm_matra"/>
    </contour>
    <contour>
      <point x="1070.00849462" y="1600.0" type="move" name="abvm_latin"/>
    </contour>
    <contour>
      <point x="1084.16053125" y="1395.0" type="move" name="abvm_nasal"/>
    </contour>
    <contour>
      <point x="760.943803091" y="10.0" type="move" name="blwm_rakar"/>
    </contour>
    <contour>
      <point x="757.056196909" y="-10.0" type="move" name="blwm_mid"/>
    </contour>
    <contour>
      <point x="-4.47074711017" y="-23.0" type="move" name="blwm_nukta"/>
    </contour>
    <contour>
      <point x="1072.4977127" y="1335.0" type="move" name="abvm_reph"/>
    </contour>
  </outline>
</glyph>
<glyph name="dRvocalic" format="1">
  <advance width="1711"/>
  <unicode hex="090B"/>
  <outline>
    <contour>
      <point x="1187" y="1197" type="line"/>
      <point x="1994" y="1197" type="line"/>
      <point x="2001" y="1206" type="line"/>
      <point x="1970" y="1330" type="line"/>
      <point x="209" y="1330" type="line"/>
      <point x="201" y="1321" type="line"/>
      <point x="233" y="1197" type="line"/>
      <point x="1027" y="1197" type="line"/>
      <point x="942" y="763" type="line"/>
      <point x="699" y="976"/>
      <point x="627" y="1019"/>
      <point x="522" y="1019" type="curve" smooth="yes"/>
      <point x="361" y="1019"/>
      <point x="259" y="920"/>
      <point x="259" y="844" type="curve" smooth="yes"/>
      <point x="259" y="802"/>
      <point x="286" y="760"/>
      <point x="335" y="725" type="curve"/>
      <point x="410" y="823"/>
      <point x="489" y="879"/>
      <point x="563" y="879" type="curve" smooth="yes"/>
      <point x="637" y="879"/>
      <point x="718" y="824"/>
      <point x="874" y="686" type="curve"/>
      <point x="645" y="553"/>
      <point x="459" y="427"/>
      <point x="277" y="288" type="curve"/>
      <point x="275" y="276" type="line"/>
      <point x="374" y="158" type="line"/>
      <point x="542" y="289"/>
      <point x="694" y="397"/>
      <point x="895" y="522" type="curve"/>
      <point x="798" y="19" type="line"/>
      <point x="941" y="-19" type="line"/>
      <point x="952" y="-12" type="line"/>
      <point x="1064" y="567" type="line"/>
      <point x="1209" y="573"/>
      <point x="1351" y="617"/>
      <point x="1459" y="678" type="curve"/>
      <point x="1525" y="554"/>
      <point x="1543" y="487"/>
      <point x="1543" y="446" type="curve" smooth="yes"/>
      <point x="1543" y="329"/>
      <point x="1414" y="270"/>
      <point x="1292" y="270" type="curve"/>
      <point x="1287" y="188"/>
      <point x="1332" y="136"/>
      <point x="1412" y="136" type="curve" smooth="yes"/>
      <point x="1531" y="136"/>
      <point x="1663" y="241"/>
      <point x="1663" y="404" type="curve" smooth="yes"/>
      <point x="1663" y="495"/>
      <point x="1622" y="604"/>
      <point x="1543" y="735" type="curve"/>
      <point x="1611" y="791"/>
      <point x="1652" y="850"/>
      <point x="1652" y="911" type="curve" smooth="yes"/>
      <point x="1652" y="981"/>
      <point x="1601" y="1045"/>
      <point x="1519" y="1045" type="curve" smooth="yes"/>
      <point x="1432" y="1045"/>
      <point x="1371" y="980"/>
      <point x="1371" y="906" type="curve" smooth="yes"/>
      <point x="1371" y="878"/>
      <point x="1378" y="843"/>
      <point x="1393" y="808" type="curve"/>
      <point x="1302" y="753"/>
      <point x="1205" y="722"/>
      <point x="1093" y="713" type="curve"/>
    </contour>
  </outline>
</glyph>
<glyph name="dLvocalic" format="1">
  <advance width="1411"/>
  <unicode hex="090C"/>
  <outline>
    <contour>
      <point x="1307" y="1197" type="line"/>
      <point x="1694" y="1197" type="line"/>
      <point x="1701" y="1206" type="line"/>
      <point x="1670" y="1330" type="line"/>
      <point x="209" y="1330" type="line"/>
      <point x="201" y="1321" type="line"/>
      <point x="233" y="1197" type="line"/>
      <point x="1157" y="1197" type="line"/>
      <point x="1099" y="901" type="line"/>
      <point x="1021" y="883"/>
      <point x="934" y="836"/>
      <point x="849" y="757" type="curve"/>
      <point x="757" y="880"/>
      <point x="668" y="924"/>
      <point x="563" y="924" type="curve" smooth="yes"/>
      <point x="358" y="924"/>
      <point x="215" y="764"/>
      <point x="215" y="550" type="curve" smooth="yes"/>
      <point x="215" y="269"/>
      <point x="448" y="-8"/>
      <point x="551" y="-8" type="curve" smooth="yes"/>
      <point x="577" y="-8"/>
      <point x="604" y="9"/>
      <point x="618" y="34" type="curve"/>
      <point x="445" y="174"/>
      <point x="363" y="371"/>
      <point x="363" y="518" type="curve" smooth="yes"/>
      <point x="363" y="672"/>
      <point x="468" y="788"/>
      <point x="598" y="788" type="curve" smooth="yes"/>
      <point x="664" y="788"/>
      <point x="726" y="756"/>
      <point x="781" y="686" type="curve"/>
      <point x="742" y="640"/>
      <point x="705" y="585"/>
      <point x="669" y="522" type="curve"/>
      <point x="786" y="438" type="line"/>
      <point x="797" y="441" type="line"/>
      <point x="946" y="684"/>
      <point x="1098" y="770"/>
      <point x="1204" y="771" type="curve" smooth="yes"/>
      <point x="1275" y="772"/>
      <point x="1323" y="732"/>
      <point x="1323" y="656" type="curve" smooth="yes"/>
      <point x="1323" y="553"/>
      <point x="1249" y="470"/>
      <point x="1103" y="333" type="curve" smooth="yes"/>
      <point x="1019" y="255"/>
      <point x="884" y="139"/>
      <point x="884" y="33" type="curve" smooth="yes"/>
      <point x="884" y="-74"/>
      <point x="995" y="-190"/>
      <point x="1144" y="-190" type="curve" smooth="yes"/>
      <point x="1282" y="-190"/>
      <point x="1413" y="-98"/>
      <point x="1413" y="-11" type="curve" smooth="yes"/>
      <point x="1413" y="36"/>
      <point x="1379" y="75"/>
      <point x="1348" y="87" type="curve"/>
      <point x="1273" y="-16"/>
      <point x="1149" y="-64"/>
      <point x="1074" y="-64" type="curve" smooth="yes"/>
      <point x="1031" y="-64"/>
      <point x="1003" y="-48"/>
      <point x="1003" y="-14" type="curve" smooth="yes"/>
      <point x="1003" y="60"/>
      <point x="1125" y="144"/>
      <point x="1252" y="271" type="curve" smooth="yes"/>
      <point x="1369" y="388"/>
      <point x="1433" y="452"/>
      <point x="1433" y="606" type="curve" smooth="yes"/>
      <point x="1433" y="749"/>
      <point x="1358" y="862"/>
      <point x="1248" y="897" type="curve"/>
    </contour>
  </outline>
</glyph>
<glyph name="dEcandra" format="1">
  <advance width="1126"/>
  <unicode hex="090D"/>
  <outline>
    <contour>
      <point x="569" y="1863"/>
      <point x="553" y="1846"/>
      <point x="553" y="1776" type="curve" smooth="yes"/>
      <point x="553" y="1653"/>
      <point x="647" y="1486"/>
      <point x="830" y="1486" type="curve" smooth="yes"/>
      <point x="1025" y="1486"/>
      <point x="1193" y="1660"/>
      <point x="1193" y="1780" type="curve" smooth="yes"/>
      <point x="1193" y="1819"/>
      <point x="1172" y="1843"/>
      <point x="1121" y="1866" type="curve"/>
      <point x="1046" y="1696"/>
      <point x="932" y="1619"/>
      <point x="820" y="1619" type="curve" smooth="yes"/>
      <point x="714" y="1619"/>
      <point x="635" y="1689"/>
      <point x="612" y="1884" type="curve"/>
    </contour>
    <contour>
      <point x="1141" y="1197" type="line"/>
      <point x="1409" y="1197" type="line"/>
      <point x="1416" y="1206" type="line"/>
      <point x="1385" y="1330" type="line"/>
      <point x="209" y="1330" type="line"/>
      <point x="201" y="1321" type="line"/>
      <point x="233" y="1197" type="line"/>
      <point x="356" y="1197" type="line"/>
      <point x="276" y="787" type="line" smooth="yes"/>
      <point x="225" y="526"/>
      <point x="359" y="456"/>
      <point x="738" y="266" type="curve" smooth="yes"/>
      <point x="896" y="186"/>
      <point x="931" y="156"/>
      <point x="931" y="116" type="curve" smooth="yes"/>
      <point x="931" y="54"/>
      <point x="893" y="0"/>
      <point x="768" y="-59" type="curve"/>
      <point x="787" y="-103"/>
      <point x="835" y="-141"/>
      <point x="891" y="-141" type="curve" smooth="yes"/>
      <point x="976" y="-141"/>
      <point x="1077" y="-56"/>
      <point x="1077" y="70" type="curve" smooth="yes"/>
      <point x="1077" y="163"/>
      <point x="1004" y="258"/>
      <point x="720" y="403" type="curve" smooth="yes"/>
      <point x="505" y="513"/>
      <point x="388" y="539"/>
      <point x="414" y="671" type="curve" smooth="yes"/>
      <point x="517" y="1197" type="line"/>
      <point x="981" y="1197" type="line"/>
      <point x="900" y="781" type="line" smooth="yes"/>
      <point x="886" y="711"/>
      <point x="838" y="649"/>
      <point x="761" y="621" type="curve"/>
      <point x="794" y="576"/>
      <point x="837" y="544"/>
      <point x="891" y="544" type="curve" smooth="yes"/>
      <point x="966" y="544"/>
      <point x="1025" y="607"/>
      <point x="1045" y="707" type="curve" smooth="yes"/>
    </contour>
    <contour>
      <point x="902.306774126" y="-19.0" type="move" name="blwm_matra"/>
    </contour>
    <contour>
      <point x="1085.55390961" y="1325.0" type="move" name="abvm_matra"/>
    </contour>
    <contour>
      <point x="874.00849462" y="1600.0" type="move" name="abvm_latin"/>
    </contour>
    <contour>
      <point x="1099.16053125" y="1395.0" type="move" name="abvm_nasal"/>
    </contour>
    <contour>
      <point x="564.943803091" y="10.0" type="move" name="blwm_rakar"/>
    </contour>
    <contour>
      <point x="561.056196909" y="-10.0" type="move" name="blwm_mid"/>
    </contour>
    <contour>
      <point x="-4.47074711017" y="-23.0" type="move" name="blwm_nukta"/>
    </contour>
    <contour>
      <point x="1087.4977127" y="1335.0" type="move" name="abvm_reph"/>
    </contour>
  </outline>
</glyph>
<glyph name="dAi" format="1">
  <advance width="1126"/>
  <unicode hex="0910"/>
  <outline>
    <contour>
      <point x="794" y="576"/>
      <point x="837" y="544"/>
      <point x="891" y="544" type="curve" smooth="yes"/>
      <point x="966" y="544"/>
      <point x="1025" y="607"/>
      <point x="1045" y="707" type="curve" smooth="yes"/>
      <point x="1141" y="1197" type="line"/>
      <point x="1409" y="1197" type="line"/>
      <point x="1416" y="1206" type="line"/>
      <point x="1385" y="1330" type="line"/>
      <point x="1138" y="1330" type="line"/>
      <point x="841" y="1842"/>
      <point x="706" y="1922"/>
      <point x="571" y="1922" type="curve" smooth="yes"/>
      <point x="439" y="1922"/>
      <point x="355" y="1849"/>
      <point x="355" y="1771" type="curve" smooth="yes"/>
      <point x="355" y="1723"/>
      <point x="386" y="1685"/>
      <point x="433" y="1668" type="curve"/>
      <point x="479" y="1735"/>
      <point x="536" y="1771"/>
      <point x="610" y="1771" type="curve" smooth="yes"/>
      <point x="726" y="1771"/>
      <point x="816" y="1673"/>
      <point x="1021" y="1330" type="curve"/>
      <point x="209" y="1330" type="line"/>
      <point x="201" y="1321" type="line"/>
      <point x="233" y="1197" type="line"/>
      <point x="356" y="1197" type="line"/>
      <point x="276" y="787" type="line" smooth="yes"/>
      <point x="225" y="526"/>
      <point x="357" y="458"/>
      <point x="738" y="266" type="curve" smooth="yes"/>
      <point x="896" y="186"/>
      <point x="931" y="156"/>
      <point x="931" y="116" type="curve" smooth="yes"/>
      <point x="931" y="54"/>
      <point x="893" y="0"/>
      <point x="768" y="-59" type="curve"/>
      <point x="787" y="-103"/>
      <point x="835" y="-141"/>
      <point x="891" y="-141" type="curve" smooth="yes"/>
      <point x="976" y="-141"/>
      <point x="1077" y="-56"/>
      <point x="1077" y="70" type="curve" smooth="yes"/>
      <point x="1077" y="163"/>
      <point x="1004" y="258"/>
      <point x="720" y="403" type="curve" smooth="yes"/>
      <point x="505" y="513"/>
      <point x="388" y="539"/>
      <point x="414" y="671" type="curve" smooth="yes"/>
      <point x="517" y="1197" type="line"/>
      <point x="981" y="1197" type="line"/>
      <point x="900" y="781" type="line" smooth="yes"/>
      <point x="886" y="711"/>
      <point x="838" y="649"/>
      <point x="761" y="621" type="curve"/>
    </contour>
    <contour>
      <point x="902.306774126" y="-19.0" type="move" name="blwm_matra"/>
    </contour>
    <contour>
      <point x="1085.55390961" y="1325.0" type="move" name="abvm_matra"/>
    </contour>
    <contour>
      <point x="874.00849462" y="1600.0" type="move" name="abvm_latin"/>
    </contour>
    <contour>
      <point x="1099.16053125" y="1395.0" type="move" name="abvm_nasal"/>
    </contour>
    <contour>
      <point x="564.943803091" y="10.0" type="move" name="blwm_rakar"/>
    </contour>
    <contour>
      <point x="561.056196909" y="-10.0" type="move" name="blwm_mid"/>
    </contour>
    <contour>
      <point x="-4.47074711017" y="-23.0" type="move" name="blwm_nukta"/>
    </contour>
    <contour>
      <point x="1087.4977127" y="1335.0" type="move" name="abvm_reph"/>
    </contour>
  </outline>
</glyph>
<glyph name="dOcandra" format="1">
  <advance width="2033"/>
  <unicode hex="0911"/>
  <outline>
    <contour>
      <point x="1542" y="1863"/>
      <point x="1526" y="1846"/>
      <point x="1526" y="1776" type="curve" smooth="yes"/>
      <point x="1526" y="1653"/>
      <point x="1620" y="1486"/>
      <point x="1803" y="1486" type="curve" smooth="yes"/>
      <point x="1998" y="1486"/>
      <point x="2166" y="1660"/>
      <point x="2166" y="1780" type="curve" smooth="yes"/>
      <point x="2166" y="1819"/>
      <point x="2145" y="1843"/>
      <point x="2094" y="1866" type="curve"/>
      <point x="2019" y="1696"/>
      <point x="1905" y="1619"/>
      <point x="1793" y="1619" type="curve" smooth="yes"/>
      <point x="1687" y="1619"/>
      <point x="1608" y="1689"/>
      <point x="1585" y="1884" type="curve"/>
    </contour>
    <contour>
      <point x="2323" y="1206" type="line"/>
      <point x="2292" y="1330" type="line"/>
      <point x="1228" y="1330" type="line"/>
      <point x="1220" y="1321" type="line"/>
      <point x="1252" y="1197" type="line"/>
      <point x="1415" y="1197" type="line"/>
      <point x="1358" y="907" type="line" smooth="yes"/>
      <point x="1331" y="770"/>
      <point x="1220" y="696"/>
      <point x="1092" y="696" type="curve" smooth="yes"/>
      <point x="1038" y="696"/>
      <point x="978" y="709"/>
      <point x="924" y="740" type="curve"/>
      <point x="1053" y="835"/>
      <point x="1088" y="918"/>
      <point x="1088" y="1029" type="curve" smooth="yes"/>
      <point x="1088" y="1208"/>
      <point x="955" y="1335"/>
      <point x="740" y="1335" type="curve" smooth="yes"/>
      <point x="526" y="1335"/>
      <point x="395" y="1220"/>
      <point x="395" y="1117" type="curve" smooth="yes"/>
      <point x="395" y="1057"/>
      <point x="442" y="1017"/>
      <point x="521" y="1017" type="curve"/>
      <point x="544" y="1135"/>
      <point x="645" y="1224"/>
      <point x="785" y="1224" type="curve" smooth="yes"/>
      <point x="887" y="1224"/>
      <point x="953" y="1173"/>
      <point x="953" y="1076" type="curve" smooth="yes"/>
      <point x="953" y="918"/>
      <point x="832" y="814"/>
      <point x="543" y="799" type="curve"/>
      <point x="535" y="789" type="line"/>
      <point x="586" y="632" type="line"/>
      <point x="673" y="642"/>
      <point x="748" y="659"/>
      <point x="812" y="683" type="curve"/>
      <point x="879" y="651"/>
      <point x="919" y="573"/>
      <point x="919" y="490" type="curve" smooth="yes"/>
      <point x="919" y="338"/>
      <point x="794" y="224"/>
      <point x="622" y="224" type="curve" smooth="yes"/>
      <point x="423" y="224"/>
      <point x="282" y="385"/>
      <point x="301" y="756" type="curve"/>
      <point x="233" y="750"/>
      <point x="202" y="722"/>
      <point x="202" y="597" type="curve" smooth="yes"/>
      <point x="202" y="408"/>
      <point x="307" y="62"/>
      <point x="633" y="62" type="curve" smooth="yes"/>
      <point x="876" y="62"/>
      <point x="1044" y="230"/>
      <point x="1044" y="444" type="curve" smooth="yes"/>
      <point x="1044" y="496"/>
      <point x="1034" y="554"/>
      <point x="1016" y="600" type="curve"/>
      <point x="1061" y="582"/>
      <point x="1110" y="573"/>
      <point x="1156" y="573" type="curve" smooth="yes"/>
      <point x="1201" y="573"/>
      <point x="1246" y="582"/>
      <point x="1300" y="605" type="curve"/>
      <point x="1186" y="19" type="line"/>
      <point x="1329" y="-19" type="line"/>
      <point x="1340" y="-12" type="line"/>
      <point x="1575" y="1197" type="line"/>
      <point x="1898" y="1197" type="line"/>
      <point x="1669" y="19" type="line"/>
      <point x="1812" y="-19" type="line"/>
      <point x="1823" y="-12" type="line"/>
      <point x="2058" y="1197" type="line"/>
      <point x="2316" y="1197" type="line"/>
    </contour>
    <contour>
      <point x="1819.30677413" y="-19.0" type="move" name="blwm_matra"/>
    </contour>
    <contour>
      <point x="2002.55390961" y="1325.0" type="move" name="abvm_matra"/>
    </contour>
    <contour>
      <point x="1327.00849462" y="1600.0" type="move" name="abvm_latin"/>
    </contour>
    <contour>
      <point x="2016.16053125" y="1395.0" type="move" name="abvm_nasal"/>
    </contour>
    <contour>
      <point x="1017.94380309" y="10.0" type="move" name="blwm_rakar"/>
    </contour>
    <contour>
      <point x="1014.05619691" y="-10.0" type="move" name="blwm_mid"/>
    </contour>
    <contour>
      <point x="-4.47074711017" y="-23.0" type="move" name="blwm_nukta"/>
    </contour>
    <contour>
      <point x="2004.4977127" y="1335.0" type="move" name="abvm_reph"/>
    </contour>
  </outline>
</glyph>
<glyph name="dOshort" format="1">
  <advance width="2033"/>
  <unicode hex="0912"/>
  <outline>
    <contour>
      <point x="2323" y="1206" type="line"/>
      <point x="2292" y="1330" type="line"/>
      <point x="2080" y="1330" type="line"/>
      <point x="2096" y="1646"/>
      <point x="1924" y="1679"/>
      <point x="1633" y="1732" type="curve" smooth="yes"/>
      <point x="1411" y="1772"/>
      <point x="1291" y="1794"/>
      <point x="1225" y="1956" type="curve"/>
      <point x="1200" y="1919"/>
      <point x="1188" y="1889"/>
      <point x="1188" y="1843" type="curve" smooth="yes"/>
      <point x="1188" y="1638"/>
      <point x="1486" y="1591"/>
      <point x="1705" y="1558" type="curve" smooth="yes"/>
      <point x="1877" y="1532"/>
      <point x="1976" y="1512"/>
      <point x="1976" y="1431" type="curve" smooth="yes"/>
      <point x="1976" y="1405"/>
      <point x="1963" y="1371"/>
      <point x="1940" y="1330" type="curve"/>
      <point x="1228" y="1330" type="line"/>
      <point x="1220" y="1321" type="line"/>
      <point x="1252" y="1197" type="line"/>
      <point x="1415" y="1197" type="line"/>
      <point x="1358" y="907" type="line" smooth="yes"/>
      <point x="1331" y="770"/>
      <point x="1220" y="696"/>
      <point x="1092" y="696" type="curve" smooth="yes"/>
      <point x="1038" y="696"/>
      <point x="978" y="709"/>
      <point x="924" y="740" type="curve"/>
      <point x="1053" y="835"/>
      <point x="1088" y="918"/>
      <point x="1088" y="1029" type="curve" smooth="yes"/>
      <point x="1088" y="1208"/>
      <point x="955" y="1335"/>
      <point x="740" y="1335" type="curve" smooth="yes"/>
      <point x="526" y="1335"/>
      <point x="395" y="1220"/>
      <point x="395" y="1117" type="curve" smooth="yes"/>
      <point x="395" y="1057"/>
      <point x="442" y="1017"/>
      <point x="521" y="1017" type="curve"/>
      <point x="544" y="1135"/>
      <point x="645" y="1224"/>
      <point x="785" y="1224" type="curve" smooth="yes"/>
      <point x="887" y="1224"/>
      <point x="953" y="1173"/>
      <point x="953" y="1076" type="curve" smooth="yes"/>
      <point x="953" y="918"/>
      <point x="832" y="814"/>
      <point x="543" y="799" type="curve"/>
      <point x="535" y="789" type="line"/>
      <point x="586" y="632" type="line"/>
      <point x="673" y="642"/>
      <point x="748" y="659"/>
      <point x="812" y="683" type="curve"/>
      <point x="879" y="651"/>
      <point x="919" y="573"/>
      <point x="919" y="490" type="curve" smooth="yes"/>
      <point x="919" y="338"/>
      <point x="794" y="224"/>
      <point x="622" y="224" type="curve" smooth="yes"/>
      <point x="423" y="224"/>
      <point x="282" y="385"/>
      <point x="301" y="756" type="curve"/>
      <point x="233" y="750"/>
      <point x="202" y="722"/>
      <point x="202" y="597" type="curve" smooth="yes"/>
      <point x="202" y="408"/>
      <point x="307" y="62"/>
      <point x="633" y="62" type="curve" smooth="yes"/>
      <point x="876" y="62"/>
      <point x="1044" y="230"/>
      <point x="1044" y="444" type="curve" smooth="yes"/>
      <point x="1044" y="496"/>
      <point x="1034" y="554"/>
      <point x="1016" y="600" type="curve"/>
      <point x="1061" y="582"/>
      <point x="1110" y="573"/>
      <point x="1156" y="573" type="curve" smooth="yes"/>
      <point x="1201" y="573"/>
      <point x="1246" y="582"/>
      <point x="1300" y="605" type="curve"/>
      <point x="1186" y="19" type="line"/>
      <point x="1329" y="-19" type="line"/>
      <point x="1340" y="-12" type="line"/>
      <point x="1575" y="1197" type="line"/>
      <point x="1898" y="1197" type="line"/>
      <point x="1669" y="19" type="line"/>
      <point x="1812" y="-19" type="line"/>
      <point x="1823" y="-12" type="line"/>
      <point x="2058" y="1197" type="line"/>
      <point x="2316" y="1197" type="line"/>
    </contour>
    <contour>
      <point x="1819.30677413" y="-19.0" type="move" name="blwm_matra"/>
    </contour>
    <contour>
      <point x="2002.55390961" y="1325.0" type="move" name="abvm_matra"/>
    </contour>
    <contour>
      <point x="1327.00849462" y="1600.0" type="move" name="abvm_latin"/>
    </contour>
    <contour>
      <point x="2016.16053125" y="1395.0" type="move" name="abvm_nasal"/>
    </contour>
    <contour>
      <point x="1017.94380309" y="10.0" type="move" name="blwm_rakar"/>
    </contour>
    <contour>
      <point x="1014.05619691" y="-10.0" type="move" name="blwm_mid"/>
    </contour>
    <contour>
      <point x="-4.47074711017" y="-23.0" type="move" name="blwm_nukta"/>
    </contour>
    <contour>
      <point x="2004.4977127" y="1335.0" type="move" name="abvm_reph"/>
    </contour>
  </outline>
</glyph>
<glyph name="dO" format="1">
  <advance width="2033"/>
  <unicode hex="0913"/>
  <outline>
    <contour>
      <point x="2323" y="1206" type="line"/>
      <point x="2292" y="1330" type="line"/>
      <point x="2049" y="1330" type="line"/>
      <point x="1751" y="1844"/>
      <point x="1614" y="1922"/>
      <point x="1486" y="1922" type="curve" smooth="yes"/>
      <point x="1351" y="1922"/>
      <point x="1266" y="1841"/>
      <point x="1266" y="1770" type="curve" smooth="yes"/>
      <point x="1266" y="1724"/>
      <point x="1298" y="1684"/>
      <point x="1344" y="1668" type="curve"/>
      <point x="1390" y="1735"/>
      <point x="1447" y="1771"/>
      <point x="1521" y="1771" type="curve" smooth="yes"/>
      <point x="1626" y="1771"/>
      <point x="1709" y="1703"/>
      <point x="1933" y="1330" type="curve"/>
      <point x="1228" y="1330" type="line"/>
      <point x="1220" y="1321" type="line"/>
      <point x="1252" y="1197" type="line"/>
      <point x="1415" y="1197" type="line"/>
      <point x="1358" y="907" type="line" smooth="yes"/>
      <point x="1331" y="770"/>
      <point x="1220" y="696"/>
      <point x="1092" y="696" type="curve" smooth="yes"/>
      <point x="1038" y="696"/>
      <point x="978" y="709"/>
      <point x="924" y="740" type="curve"/>
      <point x="1053" y="835"/>
      <point x="1088" y="918"/>
      <point x="1088" y="1029" type="curve" smooth="yes"/>
      <point x="1088" y="1208"/>
      <point x="955" y="1335"/>
      <point x="740" y="1335" type="curve" smooth="yes"/>
      <point x="526" y="1335"/>
      <point x="395" y="1220"/>
      <point x="395" y="1117" type="curve" smooth="yes"/>
      <point x="395" y="1057"/>
      <point x="442" y="1017"/>
      <point x="521" y="1017" type="curve"/>
      <point x="544" y="1135"/>
      <point x="645" y="1224"/>
      <point x="785" y="1224" type="curve" smooth="yes"/>
      <point x="887" y="1224"/>
      <point x="953" y="1173"/>
      <point x="953" y="1076" type="curve" smooth="yes"/>
      <point x="953" y="918"/>
      <point x="832" y="814"/>
      <point x="543" y="799" type="curve"/>
      <point x="535" y="789" type="line"/>
      <point x="586" y="632" type="line"/>
      <point x="673" y="642"/>
      <point x="748" y="659"/>
      <point x="812" y="683" type="curve"/>
      <point x="879" y="651"/>
      <point x="919" y="573"/>
      <point x="919" y="490" type="curve" smooth="yes"/>
      <point x="919" y="338"/>
      <point x="794" y="224"/>
      <point x="622" y="224" type="curve" smooth="yes"/>
      <point x="423" y="224"/>
      <point x="282" y="385"/>
      <point x="301" y="756" type="curve"/>
      <point x="233" y="750"/>
      <point x="202" y="722"/>
      <point x="202" y="597" type="curve" smooth="yes"/>
      <point x="202" y="408"/>
      <point x="307" y="62"/>
      <point x="633" y="62" type="curve" smooth="yes"/>
      <point x="876" y="62"/>
      <point x="1044" y="230"/>
      <point x="1044" y="444" type="curve" smooth="yes"/>
      <point x="1044" y="496"/>
      <point x="1034" y="554"/>
      <point x="1016" y="600" type="curve"/>
      <point x="1061" y="582"/>
      <point x="1110" y="573"/>
      <point x="1156" y="573" type="curve" smooth="yes"/>
      <point x="1201" y="573"/>
      <point x="1246" y="582"/>
      <point x="1300" y="605" type="curve"/>
      <point x="1186" y="19" type="line"/>
      <point x="1329" y="-19" type="line"/>
      <point x="1340" y="-12" type="line"/>
      <point x="1575" y="1197" type="line"/>
      <point x="1898" y="1197" type="line"/>
      <point x="1669" y="19" type="line"/>
      <point x="1812" y="-19" type="line"/>
      <point x="1823" y="-12" type="line"/>
      <point x="2058" y="1197" type="line"/>
      <point x="2316" y="1197" type="line"/>
    </contour>
    <contour>
      <point x="1819.30677413" y="-19.0" type="move" name="blwm_matra"/>
    </contour>
    <contour>
      <point x="2002.55390961" y="1325.0" type="move" name="abvm_matra"/>
    </contour>
    <contour>
      <point x="1327.00849462" y="1600.0" type="move" name="abvm_latin"/>
    </contour>
    <contour>
      <point x="2016.16053125" y="1395.0" type="move" name="abvm_nasal"/>
    </contour>
    <contour>
      <point x="1017.94380309" y="10.0" type="move" name="blwm_rakar"/>
    </contour>
    <contour>
      <point x="1014.05619691" y="-10.0" type="move" name="blwm_mid"/>
    </contour>
    <contour>
      <point x="-4.47074711017" y="-23.0" type="move" name="blwm_nukta"/>
    </contour>
    <contour>
      <point x="2004.4977127" y="1335.0" type="move" name="abvm_reph"/>
    </contour>
  </outline>
</glyph>
<glyph name="dAu" format="1">
  <advance width="2033"/>
  <unicode hex="0914"/>
  <outline>
    <contour>
      <point x="2323" y="1206" type="line"/>
      <point x="2292" y="1330" type="line"/>
      <point x="2069" y="1330" type="line"/>
      <point x="2011" y="1929"/>
      <point x="1880" y="2022"/>
      <point x="1758" y="2022" type="curve" smooth="yes"/>
      <point x="1649" y="2022"/>
      <point x="1587" y="1951"/>
      <point x="1587" y="1891" type="curve" smooth="yes"/>
      <point x="1587" y="1847"/>
      <point x="1618" y="1818"/>
      <point x="1661" y="1801" type="curve"/>
      <point x="1695" y="1839"/>
      <point x="1735" y="1864"/>
      <point x="1783" y="1864" type="curve" smooth="yes"/>
      <point x="1851" y="1864"/>
      <point x="1904" y="1813"/>
      <point x="1956" y="1445" type="curve"/>
      <point x="1771" y="1616"/>
      <point x="1573" y="1732"/>
      <point x="1441" y="1732" type="curve" smooth="yes"/>
      <point x="1343" y="1732"/>
      <point x="1257" y="1668"/>
      <point x="1257" y="1586" type="curve" smooth="yes"/>
      <point x="1257" y="1542"/>
      <point x="1285" y="1505"/>
      <point x="1349" y="1488" type="curve"/>
      <point x="1386" y="1550"/>
      <point x="1438" y="1589"/>
      <point x="1502" y="1589" type="curve" smooth="yes"/>
      <point x="1600" y="1589"/>
      <point x="1767" y="1501"/>
      <point x="1926" y="1330" type="curve"/>
      <point x="1228" y="1330" type="line"/>
      <point x="1220" y="1321" type="line"/>
      <point x="1252" y="1197" type="line"/>
      <point x="1415" y="1197" type="line"/>
      <point x="1358" y="907" type="line" smooth="yes"/>
      <point x="1331" y="770"/>
      <point x="1220" y="696"/>
      <point x="1092" y="696" type="curve" smooth="yes"/>
      <point x="1038" y="696"/>
      <point x="978" y="709"/>
      <point x="924" y="740" type="curve"/>
      <point x="1053" y="835"/>
      <point x="1088" y="918"/>
      <point x="1088" y="1029" type="curve" smooth="yes"/>
      <point x="1088" y="1208"/>
      <point x="955" y="1335"/>
      <point x="740" y="1335" type="curve" smooth="yes"/>
      <point x="526" y="1335"/>
      <point x="395" y="1220"/>
      <point x="395" y="1117" type="curve" smooth="yes"/>
      <point x="395" y="1057"/>
      <point x="442" y="1017"/>
      <point x="521" y="1017" type="curve"/>
      <point x="544" y="1135"/>
      <point x="645" y="1224"/>
      <point x="785" y="1224" type="curve" smooth="yes"/>
      <point x="887" y="1224"/>
      <point x="953" y="1173"/>
      <point x="953" y="1076" type="curve" smooth="yes"/>
      <point x="953" y="918"/>
      <point x="832" y="814"/>
      <point x="543" y="799" type="curve"/>
      <point x="535" y="789" type="line"/>
      <point x="586" y="632" type="line"/>
      <point x="673" y="642"/>
      <point x="748" y="659"/>
      <point x="812" y="683" type="curve"/>
      <point x="879" y="651"/>
      <point x="919" y="573"/>
      <point x="919" y="490" type="curve" smooth="yes"/>
      <point x="919" y="338"/>
      <point x="794" y="224"/>
      <point x="622" y="224" type="curve" smooth="yes"/>
      <point x="423" y="224"/>
      <point x="282" y="385"/>
      <point x="301" y="756" type="curve"/>
      <point x="233" y="750"/>
      <point x="202" y="722"/>
      <point x="202" y="597" type="curve" smooth="yes"/>
      <point x="202" y="408"/>
      <point x="307" y="62"/>
      <point x="633" y="62" type="curve" smooth="yes"/>
      <point x="876" y="62"/>
      <point x="1044" y="230"/>
      <point x="1044" y="444" type="curve" smooth="yes"/>
      <point x="1044" y="496"/>
      <point x="1034" y="554"/>
      <point x="1016" y="600" type="curve"/>
      <point x="1061" y="582"/>
      <point x="1110" y="573"/>
      <point x="1156" y="573" type="curve" smooth="yes"/>
      <point x="1201" y="573"/>
      <point x="1246" y="582"/>
      <point x="1300" y="605" type="curve"/>
      <point x="1186" y="19" type="line"/>
      <point x="1329" y="-19" type="line"/>
      <point x="1340" y="-12" type="line"/>
      <point x="1575" y="1197" type="line"/>
      <point x="1898" y="1197" type="line"/>
      <point x="1669" y="19" type="line"/>
      <point x="1812" y="-19" type="line"/>
      <point x="1823" y="-12" type="line"/>
      <point x="2058" y="1197" type="line"/>
      <point x="2316" y="1197" type="line"/>
    </contour>
    <contour>
      <point x="1819.30677413" y="-19.0" type="move" name="blwm_matra"/>
    </contour>
    <contour>
      <point x="2002.55390961" y="1325.0" type="move" name="abvm_matra"/>
    </contour>
    <contour>
      <point x="1327.00849462" y="1600.0" type="move" name="abvm_latin"/>
    </contour>
    <contour>
      <point x="2016.16053125" y="1395.0" type="move" name="abvm_nasal"/>
    </contour>
    <contour>
      <point x="1017.94380309" y="10.0" type="move" name="blwm_rakar"/>
    </contour>
    <contour>
      <point x="1014.05619691" y="-10.0" type="move" name="blwm_mid"/>
    </contour>
    <contour>
      <point x="-4.47074711017" y="-23.0" type="move" name="blwm_nukta"/>
    </contour>
    <contour>
      <point x="2004.4977127" y="1335.0" type="move" name="abvm_reph"/>
    </contour>
  </outline>
</glyph>
<glyph name="dKa" format="1">
  <advance width="1542"/>
  <unicode hex="0915"/>
  <outline>
    <contour>
      <point x="1126" y="1197" type="line"/>
      <point x="1825" y="1197" type="line"/>
      <point x="1832" y="1206" type="line"/>
      <point x="1801" y="1330" type="line"/>
      <point x="209" y="1330" type="line"/>
      <point x="201" y="1321" type="line"/>
      <point x="233" y="1197" type="line"/>
      <point x="966" y="1197" type="line"/>
      <point x="897" y="846" type="line"/>
      <point x="819" y="952"/>
      <point x="708" y="987"/>
      <point x="614" y="987" type="curve" smooth="yes"/>
      <point x="401" y="987"/>
      <point x="222" y="819"/>
      <point x="222" y="609" type="curve" smooth="yes"/>
      <point x="222" y="392"/>
      <point x="411" y="219"/>
      <point x="597" y="219" type="curve" smooth="yes"/>
      <point x="655" y="219"/>
      <point x="716" y="235"/>
      <point x="787" y="279" type="curve"/>
      <point x="737" y="19" type="line"/>
      <point x="880" y="-19" type="line"/>
      <point x="890" y="-12" type="line"/>
      <point x="988" y="496" type="line" smooth="yes"/>
      <point x="1023" y="678"/>
      <point x="1216" y="805"/>
      <point x="1339" y="805" type="curve" smooth="yes"/>
      <point x="1413" y="805"/>
      <point x="1458" y="755"/>
      <point x="1458" y="669" type="curve" smooth="yes"/>
      <point x="1458" y="535"/>
      <point x="1352" y="370"/>
      <point x="1176" y="287" type="curve"/>
      <point x="1197" y="236"/>
      <point x="1242" y="200"/>
      <point x="1294" y="200" type="curve" smooth="yes"/>
      <point x="1408" y="200"/>
      <point x="1570" y="358"/>
      <point x="1570" y="617" type="curve" smooth="yes"/>
      <point x="1570" y="816"/>
      <point x="1455" y="932"/>
      <point x="1300" y="932" type="curve" smooth="yes"/>
      <point x="1210" y="932"/>
      <point x="1131" y="896"/>
      <point x="1055" y="833" type="curve"/>
    </contour>
    <contour>
      <point x="799" y="843"/>
      <point x="879" y="745"/>
      <point x="856" y="632" type="curve" smooth="yes"/>
      <point x="843" y="568" type="line" smooth="yes"/>
      <point x="818" y="444"/>
      <point x="684" y="358"/>
      <point x="556" y="358" type="curve" smooth="yes"/>
      <point x="437" y="358"/>
      <point x="359" y="438"/>
      <point x="359" y="554" type="curve" smooth="yes"/>
      <point x="359" y="709"/>
      <point x="488" y="843"/>
      <point x="658" y="843" type="curve" smooth="yes"/>
    </contour>
    <contour>
      <point x="887.306774126" y="-19.0" type="move" name="blwm_matra"/>
    </contour>
    <contour>
      <point x="1070.55390961" y="1325.0" type="move" name="abvm_matra"/>
    </contour>
    <contour>
      <point x="1082.00849462" y="1600.0" type="move" name="abvm_latin"/>
    </contour>
    <contour>
      <point x="1084.16053125" y="1395.0" type="move" name="abvm_nasal"/>
    </contour>
    <contour>
      <point x="772.943803091" y="10.0" type="move" name="blwm_rakar"/>
    </contour>
    <contour>
      <point x="769.056196909" y="-10.0" type="move" name="blwm_mid"/>
    </contour>
    <contour>
      <point x="395.52925289" y="-23.0" type="move" name="blwm_nukta"/>
    </contour>
    <contour>
      <point x="1072.4977127" y="1335.0" type="move" name="abvm_reph"/>
    </contour>
  </outline>
</glyph>
<glyph name="dKha" format="1">
  <advance width="1566"/>
  <unicode hex="0916"/>
  <outline>
    <contour>
      <point x="1591" y="1197" type="line"/>
      <point x="1849" y="1197" type="line"/>
      <point x="1856" y="1206" type="line"/>
      <point x="1825" y="1330" type="line"/>
      <point x="209" y="1330" type="line"/>
      <point x="201" y="1321" type="line"/>
      <point x="233" y="1197" type="line"/>
      <point x="556" y="1197" type="line"/>
      <point x="567" y="1144"/>
      <point x="573" y="1068"/>
      <point x="573" y="1019" type="curve" smooth="yes"/>
      <point x="573" y="844"/>
      <point x="525" y="791"/>
      <point x="486" y="751" type="curve"/>
      <point x="444" y="769"/>
      <point x="401" y="779"/>
      <point x="361" y="779" type="curve" smooth="yes"/>
      <point x="262" y="779"/>
      <point x="201" y="720"/>
      <point x="201" y="618" type="curve" smooth="yes"/>
      <point x="201" y="371"/>
      <point x="561" y="-4"/>
      <point x="830" y="-4" type="curve" smooth="yes"/>
      <point x="903" y="-4"/>
      <point x="950" y="23"/>
      <point x="980" y="86" type="curve"/>
      <point x="678" y="131"/>
      <point x="472" y="269"/>
      <point x="356" y="483" type="curve"/>
      <point x="576" y="544"/>
      <point x="690" y="698"/>
      <point x="690" y="932" type="curve" smooth="yes"/>
      <point x="690" y="1015"/>
      <point x="676" y="1115"/>
      <point x="655" y="1197" type="curve"/>
      <point x="1431" y="1197" type="line"/>
      <point x="1363" y="849" type="line"/>
      <point x="1297" y="942"/>
      <point x="1211" y="986"/>
      <point x="1108" y="986" type="curve" smooth="yes"/>
      <point x="918" y="986"/>
      <point x="771" y="847"/>
      <point x="771" y="665" type="curve" smooth="yes"/>
      <point x="771" y="475"/>
      <point x="935" y="316"/>
      <point x="1109" y="316" type="curve" smooth="yes"/>
      <point x="1158" y="316"/>
      <point x="1205" y="328"/>
      <point x="1268" y="362" type="curve"/>
      <point x="1202" y="19" type="line"/>
      <point x="1345" y="-19" type="line"/>
      <point x="1356" y="-12" type="line"/>
    </contour>
    <contour>
      <point x="1275" y="850"/>
      <point x="1344" y="748"/>
      <point x="1325" y="651" type="curve" smooth="yes"/>
      <point x="1318" y="615" type="line" smooth="yes"/>
      <point x="1299" y="520"/>
      <point x="1189" y="438"/>
      <point x="1075" y="438" type="curve" smooth="yes"/>
      <point x="978" y="438"/>
      <point x="899" y="501"/>
      <point x="899" y="609" type="curve" smooth="yes"/>
      <point x="899" y="736"/>
      <point x="1002" y="850"/>
      <point x="1144" y="850" type="curve" smooth="yes"/>
    </contour>
    <contour>
      <point x="1352.30677413" y="-19.0" type="move" name="blwm_matra"/>
    </contour>
    <contour>
      <point x="1535.55390961" y="1325.0" type="move" name="abvm_matra"/>
    </contour>
    <contour>
      <point x="1094.00849462" y="1600.0" type="move" name="abvm_latin"/>
    </contour>
    <contour>
      <point x="1549.16053125" y="1395.0" type="move" name="abvm_nasal"/>
    </contour>
    <contour>
      <point x="1234.94380309" y="10.0" type="move" name="blwm_rakar"/>
    </contour>
    <contour>
      <point x="851.056196909" y="-10.0" type="move" name="blwm_mid"/>
    </contour>
    <contour>
      <point x="305.52925289" y="-23.0" type="move" name="blwm_nukta"/>
    </contour>
    <contour>
      <point x="1537.4977127" y="1335.0" type="move" name="abvm_reph"/>
    </contour>
  </outline>
</glyph>
<glyph name="dGha" format="1">
  <advance width="1261"/>
  <unicode hex="0918"/>
  <outline>
    <contour>
      <point x="1287" y="1197" type="line"/>
      <point x="1544" y="1197" type="line"/>
      <point x="1551" y="1206" type="line"/>
      <point x="1520" y="1330" type="line"/>
      <point x="209" y="1330" type="line"/>
      <point x="201" y="1321" type="line"/>
      <point x="233" y="1197" type="line"/>
      <point x="370" y="1197" type="line"/>
      <point x="330" y="1147"/>
      <point x="295" y="1106"/>
      <point x="295" y="1005" type="curve" smooth="yes"/>
      <point x="295" y="895"/>
      <point x="355" y="813"/>
      <point x="456" y="743" type="curve"/>
      <point x="400" y="677"/>
      <point x="365" y="603"/>
      <point x="365" y="525" type="curve" smooth="yes"/>
      <point x="365" y="363"/>
      <point x="499" y="221"/>
      <point x="701" y="221" type="curve" smooth="yes"/>
      <point x="784" y="221"/>
      <point x="865" y="244"/>
      <point x="950" y="289" type="curve"/>
      <point x="898" y="19" type="line"/>
      <point x="1041" y="-19" type="line"/>
      <point x="1052" y="-12" type="line"/>
    </contour>
    <contour>
      <point x="1126" y="1197" type="line"/>
      <point x="1012" y="610" type="line" smooth="yes"/>
      <point x="979" y="438"/>
      <point x="775" y="351"/>
      <point x="644" y="351" type="curve" smooth="yes"/>
      <point x="543" y="351"/>
      <point x="486" y="406"/>
      <point x="486" y="482" type="curve" smooth="yes"/>
      <point x="486" y="600"/>
      <point x="617" y="720"/>
      <point x="845" y="777" type="curve"/>
      <point x="851" y="788" type="line"/>
      <point x="764" y="918" type="line"/>
      <point x="680" y="900"/>
      <point x="602" y="863"/>
      <point x="537" y="815" type="curve"/>
      <point x="476" y="851"/>
      <point x="441" y="902"/>
      <point x="441" y="964" type="curve" smooth="yes"/>
      <point x="441" y="1078"/>
      <point x="558" y="1197"/>
      <point x="697" y="1197" type="curve" smooth="yes"/>
    </contour>
    <contour>
      <point x="1048.30677413" y="-19.0" type="move" name="blwm_matra"/>
    </contour>
    <contour>
      <point x="1231.55390961" y="1325.0" type="move" name="abvm_matra"/>
    </contour>
    <contour>
      <point x="941.00849462" y="1600.0" type="move" name="abvm_latin"/>
    </contour>
    <contour>
      <point x="1245.16053125" y="1395.0" type="move" name="abvm_nasal"/>
    </contour>
    <contour>
      <point x="931.943803091" y="10.0" type="move" name="blwm_rakar"/>
    </contour>
    <contour>
      <point x="548.056196909" y="-10.0" type="move" name="blwm_mid"/>
    </contour>
    <contour>
      <point x="595.52925289" y="-23.0" type="move" name="blwm_nukta"/>
    </contour>
    <contour>
      <point x="1233.4977127" y="1335.0" type="move" name="abvm_reph"/>
    </contour>
  </outline>
</glyph>
<glyph name="dNga" format="1">
  <advance width="1192"/>
  <unicode hex="0919"/>
  <outline>
    <contour>
      <point x="1075" y="1197" type="line"/>
      <point x="1475" y="1197" type="line"/>
      <point x="1482" y="1206" type="line"/>
      <point x="1451" y="1330" type="line"/>
      <point x="209" y="1330" type="line"/>
      <point x="201" y="1321" type="line"/>
      <point x="233" y="1197" type="line"/>
      <point x="921" y="1197" type="line"/>
      <point x="889" y="1034" type="line" smooth="yes"/>
      <point x="888" y="1029"/>
      <point x="884" y="1026"/>
      <point x="879" y="1026" type="curve" smooth="yes"/>
      <point x="576" y="1026" type="line" smooth="yes"/>
      <point x="420" y="1026"/>
      <point x="347" y="946"/>
      <point x="347" y="824" type="curve" smooth="yes"/>
      <point x="347" y="671"/>
      <point x="476" y="522"/>
      <point x="625" y="522" type="curve" smooth="yes"/>
      <point x="677" y="522"/>
      <point x="801" y="539"/>
      <point x="841" y="539" type="curve" smooth="yes"/>
      <point x="899" y="539"/>
      <point x="931" y="500"/>
      <point x="931" y="450" type="curve" smooth="yes"/>
      <point x="931" y="338"/>
      <point x="790" y="255"/>
      <point x="645" y="255" type="curve" smooth="yes"/>
      <point x="476" y="255"/>
      <point x="327" y="372"/>
      <point x="253" y="616" type="curve"/>
      <point x="216" y="599"/>
      <point x="194" y="566"/>
      <point x="194" y="522" type="curve" smooth="yes"/>
      <point x="194" y="392"/>
      <point x="352" y="99"/>
      <point x="668" y="99" type="curve" smooth="yes"/>
      <point x="886" y="99"/>
      <point x="1028" y="226"/>
      <point x="1028" y="424" type="curve" smooth="yes"/>
      <point x="1028" y="580"/>
      <point x="928" y="701"/>
      <point x="803" y="701" type="curve" smooth="yes"/>
      <point x="749" y="701"/>
      <point x="635" y="680"/>
      <point x="576" y="680" type="curve" smooth="yes"/>
      <point x="503" y="680"/>
      <point x="467" y="715"/>
      <point x="467" y="768" type="curve" smooth="yes"/>
      <point x="467" y="832"/>
      <point x="504" y="885"/>
      <point x="631" y="885" type="curve" smooth="yes"/>
      <point x="1006" y="885" type="line"/>
      <point x="1016" y="893" type="line"/>
    </contour>
    <contour>
      <point x="1115" y="861"/>
      <point x="1058" y="810"/>
      <point x="1058" y="751" type="curve" smooth="yes"/>
      <point x="1058" y="706"/>
      <point x="1091" y="670"/>
      <point x="1137" y="670" type="curve" smooth="yes"/>
      <point x="1195" y="670"/>
      <point x="1253" y="721"/>
      <point x="1253" y="781" type="curve" smooth="yes"/>
      <point x="1253" y="825"/>
      <point x="1220" y="861"/>
      <point x="1174" y="861" type="curve" smooth="yes"/>
    </contour>
    <contour>
      <point x="836.306774126" y="-19.0" type="move" name="blwm_matra"/>
    </contour>
    <contour>
      <point x="1019.55390961" y="1325.0" type="move" name="abvm_matra"/>
    </contour>
    <contour>
      <point x="907.00849462" y="1600.0" type="move" name="abvm_latin"/>
    </contour>
    <contour>
      <point x="1033.16053125" y="1395.0" type="move" name="abvm_nasal"/>
    </contour>
    <contour>
      <point x="597.943803091" y="10.0" type="move" name="blwm_rakar"/>
    </contour>
    <contour>
      <point x="594.056196909" y="-10.0" type="move" name="blwm_mid"/>
    </contour>
    <contour>
      <point x="582.091221976" y="-123.0" type="move" name="blwm_nukta"/>
    </contour>
    <contour>
      <point x="1021.4977127" y="1335.0" type="move" name="abvm_reph"/>
    </contour>
  </outline>
</glyph>
<glyph name="dCa" format="1">
  <advance width="1321"/>
  <unicode hex="091A"/>
  <outline>
    <contour>
      <point x="1347" y="1197" type="line"/>
      <point x="1604" y="1197" type="line"/>
      <point x="1611" y="1206" type="line"/>
      <point x="1580" y="1330" type="line"/>
      <point x="209" y="1330" type="line"/>
      <point x="201" y="1321" type="line"/>
      <point x="233" y="1197" type="line"/>
      <point x="1187" y="1197" type="line"/>
      <point x="1082" y="660" type="line" smooth="yes"/>
      <point x="1052" y="508"/>
      <point x="878" y="373"/>
      <point x="705" y="373" type="curve" smooth="yes"/>
      <point x="585" y="373"/>
      <point x="517" y="442"/>
      <point x="517" y="534" type="curve" smooth="yes"/>
      <point x="517" y="678"/>
      <point x="682" y="830"/>
      <point x="902" y="830" type="curve" smooth="yes"/>
      <point x="957" y="830" type="line"/>
      <point x="965" y="839" type="line"/>
      <point x="933" y="963" type="line"/>
      <point x="255" y="963" type="line"/>
      <point x="247" y="954" type="line"/>
      <point x="279" y="830" type="line"/>
      <point x="516" y="830" type="line"/>
      <point x="432" y="742"/>
      <point x="395" y="669"/>
      <point x="395" y="575" type="curve" smooth="yes"/>
      <point x="395" y="406"/>
      <point x="527" y="251"/>
      <point x="746" y="251" type="curve" smooth="yes"/>
      <point x="836" y="251"/>
      <point x="925" y="276"/>
      <point x="1018" y="331" type="curve"/>
      <point x="958" y="19" type="line"/>
      <point x="1101" y="-19" type="line"/>
      <point x="1112" y="-12" type="line"/>
    </contour>
    <contour>
      <point x="1108.30677413" y="-19.0" type="move" name="blwm_matra"/>
    </contour>
    <contour>
      <point x="1291.55390961" y="1325.0" type="move" name="abvm_matra"/>
    </contour>
    <contour>
      <point x="971.00849462" y="1600.0" type="move" name="abvm_latin"/>
    </contour>
    <contour>
      <point x="1305.16053125" y="1395.0" type="move" name="abvm_nasal"/>
    </contour>
    <contour>
      <point x="990" y="10" type="move" name="blwm_rakar"/>
    </contour>
    <contour>
      <point x="658.056196909" y="-10.0" type="move" name="blwm_mid"/>
    </contour>
    <contour>
      <point x="595.52925289" y="-23.0" type="move" name="blwm_nukta"/>
    </contour>
    <contour>
      <point x="1293.4977127" y="1335.0" type="move" name="abvm_reph"/>
    </contour>
  </outline>
</glyph>
<glyph name="dCha" format="1">
  <advance width="1371"/>
  <unicode hex="091B"/>
  <outline>
    <contour>
      <point x="1295" y="1197" type="line"/>
      <point x="1654" y="1197" type="line"/>
      <point x="1661" y="1206" type="line"/>
      <point x="1630" y="1330" type="line"/>
      <point x="209" y="1330" type="line"/>
      <point x="201" y="1321" type="line"/>
      <point x="233" y="1197" type="line"/>
      <point x="1155" y="1197" type="line"/>
      <point x="1127" y="1055" type="line"/>
      <point x="1012" y="1026"/>
      <point x="935" y="932"/>
      <point x="935" y="806" type="curve" smooth="yes"/>
      <point x="935" y="702"/>
      <point x="988" y="576"/>
      <point x="1116" y="458" type="curve"/>
      <point x="991" y="309"/>
      <point x="814" y="197"/>
      <point x="650" y="197" type="curve" smooth="yes"/>
      <point x="543" y="197"/>
      <point x="468" y="248"/>
      <point x="468" y="334" type="curve" smooth="yes"/>
      <point x="468" y="445"/>
      <point x="581" y="554"/>
      <point x="807" y="589" type="curve"/>
      <point x="813" y="599" type="line"/>
      <point x="728" y="728" type="line"/>
      <point x="648" y="720"/>
      <point x="575" y="693"/>
      <point x="515" y="654" type="curve"/>
      <point x="447" y="687"/>
      <point x="415" y="728"/>
      <point x="415" y="778" type="curve" smooth="yes"/>
      <point x="415" y="875"/>
      <point x="502" y="947"/>
      <point x="740" y="947" type="curve"/>
      <point x="716" y="1045"/>
      <point x="670" y="1088"/>
      <point x="577" y="1088" type="curve" smooth="yes"/>
      <point x="420" y="1088"/>
      <point x="278" y="974"/>
      <point x="278" y="819" type="curve" smooth="yes"/>
      <point x="278" y="732"/>
      <point x="326" y="642"/>
      <point x="430" y="584" type="curve"/>
      <point x="380" y="525"/>
      <point x="347" y="455"/>
      <point x="347" y="382" type="curve" smooth="yes"/>
      <point x="347" y="220"/>
      <point x="485" y="61"/>
      <point x="703" y="61" type="curve" smooth="yes"/>
      <point x="1055" y="61"/>
      <point x="1400" y="434"/>
      <point x="1400" y="780" type="curve" smooth="yes"/>
      <point x="1400" y="902"/>
      <point x="1355" y="1005"/>
      <point x="1265" y="1042" type="curve"/>
    </contour>
    <contour>
      <point x="1289" y="748"/>
      <point x="1248" y="644"/>
      <point x="1182" y="539" type="curve"/>
      <point x="1102" y="618"/>
      <point x="1065" y="696"/>
      <point x="1065" y="763" type="curve" smooth="yes"/>
      <point x="1065" y="852"/>
      <point x="1137" y="932"/>
      <point x="1217" y="932" type="curve" smooth="yes"/>
      <point x="1264" y="932"/>
      <point x="1289" y="898"/>
      <point x="1289" y="832" type="curve" smooth="yes"/>
    </contour>
    <contour>
      <point x="840.756349395" y="-99.0" type="move" name="blwm_matra"/>
    </contour>
    <contour>
      <point x="1239.55390961" y="1325.0" type="move" name="abvm_matra"/>
    </contour>
    <contour>
      <point x="996.00849462" y="1600.0" type="move" name="abvm_latin"/>
    </contour>
    <contour>
      <point x="1253.16053125" y="1395.0" type="move" name="abvm_nasal"/>
    </contour>
    <contour>
      <point x="671.39337836" y="-70.0" type="move" name="blwm_rakar"/>
    </contour>
    <contour>
      <point x="683.056196909" y="-10.0" type="move" name="blwm_mid"/>
    </contour>
    <contour>
      <point x="676.091221976" y="-123.0" type="move" name="blwm_nukta"/>
    </contour>
    <contour>
      <point x="1241.4977127" y="1335.0" type="move" name="abvm_reph"/>
    </contour>
  </outline>
</glyph>
<glyph name="dJa" format="1">
  <advance width="1421"/>
  <unicode hex="091C"/>
  <outline>
    <contour>
      <point x="1447" y="1197" type="line"/>
      <point x="1704" y="1197" type="line"/>
      <point x="1711" y="1206" type="line"/>
      <point x="1680" y="1330" type="line"/>
      <point x="209" y="1330" type="line"/>
      <point x="201" y="1321" type="line"/>
      <point x="233" y="1197" type="line"/>
      <point x="1287" y="1197" type="line"/>
      <point x="1233" y="923" type="line"/>
      <point x="623" y="923" type="line"/>
      <point x="616" y="914" type="line"/>
      <point x="648" y="790" type="line"/>
      <point x="765" y="790"/>
      <point x="821" y="708"/>
      <point x="821" y="616" type="curve" smooth="yes"/>
      <point x="821" y="471"/>
      <point x="705" y="389"/>
      <point x="587" y="389" type="curve" smooth="yes"/>
      <point x="426" y="389"/>
      <point x="328" y="551"/>
      <point x="350" y="923" type="curve"/>
      <point x="253" y="913"/>
      <point x="243" y="867"/>
      <point x="243" y="746" type="curve" smooth="yes"/>
      <point x="243" y="562"/>
      <point x="323" y="227"/>
      <point x="598" y="227" type="curve" smooth="yes"/>
      <point x="787" y="227"/>
      <point x="947" y="362"/>
      <point x="947" y="562" type="curve" smooth="yes"/>
      <point x="947" y="636"/>
      <point x="924" y="721"/>
      <point x="875" y="790" type="curve"/>
      <point x="1208" y="790" type="line"/>
      <point x="1058" y="19" type="line"/>
      <point x="1201" y="-19" type="line"/>
      <point x="1212" y="-12" type="line"/>
    </contour>
    <contour>
      <point x="1208.30677413" y="-19.0" type="move" name="blwm_matra"/>
    </contour>
    <contour>
      <point x="1391.55390961" y="1325.0" type="move" name="abvm_matra"/>
    </contour>
    <contour>
      <point x="1021.00849462" y="1600.0" type="move" name="abvm_latin"/>
    </contour>
    <contour>
      <point x="1405.16053125" y="1395.0" type="move" name="abvm_nasal"/>
    </contour>
    <contour>
      <point x="1094.94380309" y="10.0" type="move" name="blwm_rakar"/>
    </contour>
    <contour>
      <point x="708.056196909" y="-10.0" type="move" name="blwm_mid"/>
    </contour>
    <contour>
      <point x="521.641646707" y="-43.0" type="move" name="blwm_nukta"/>
    </contour>
    <contour>
      <point x="1393.4977127" y="1335.0" type="move" name="abvm_reph"/>
    </contour>
  </outline>
</glyph>
<glyph name="dJha" format="1">
  <advance width="1500"/>
  <unicode hex="091D"/>
  <outline>
    <contour>
      <point x="1525" y="1197" type="line"/>
      <point x="1783" y="1197" type="line"/>
      <point x="1790" y="1206" type="line"/>
      <point x="1759" y="1330" type="line"/>
      <point x="209" y="1330" type="line"/>
      <point x="201" y="1321" type="line"/>
      <point x="233" y="1197" type="line"/>
      <point x="851" y="1197" type="line"/>
      <point x="819" y="1034" type="line" smooth="yes"/>
      <point x="818" y="1029"/>
      <point x="814" y="1026"/>
      <point x="809" y="1026" type="curve" smooth="yes"/>
      <point x="506" y="1026" type="line" smooth="yes"/>
      <point x="356" y="1026"/>
      <point x="281" y="946"/>
      <point x="281" y="845" type="curve" smooth="yes"/>
      <point x="281" y="713"/>
      <point x="397" y="540"/>
      <point x="562" y="540" type="curve" smooth="yes"/>
      <point x="618" y="540"/>
      <point x="782" y="559"/>
      <point x="817" y="559" type="curve" smooth="yes"/>
      <point x="857" y="559"/>
      <point x="874" y="531"/>
      <point x="874" y="499" type="curve" smooth="yes"/>
      <point x="874" y="389"/>
      <point x="705" y="310"/>
      <point x="480" y="311" type="curve"/>
      <point x="457" y="396"/>
      <point x="421" y="447"/>
      <point x="353" y="447" type="curve" smooth="yes"/>
      <point x="294" y="447"/>
      <point x="219" y="409"/>
      <point x="219" y="319" type="curve" smooth="yes"/>
      <point x="219" y="236"/>
      <point x="292" y="162"/>
      <point x="432" y="150" type="curve"/>
      <point x="463" y="-61"/>
      <point x="565" y="-143"/>
      <point x="670" y="-143" type="curve" smooth="yes"/>
      <point x="751" y="-143"/>
      <point x="818" y="-98"/>
      <point x="818" y="-24" type="curve" smooth="yes"/>
      <point x="818" y="-7"/>
      <point x="815" y="14"/>
      <point x="808" y="33" type="curve"/>
      <point x="776" y="23"/>
      <point x="749" y="17"/>
      <point x="706" y="17" type="curve" smooth="yes"/>
      <point x="612" y="17"/>
      <point x="561" y="45"/>
      <point x="520" y="149" type="curve"/>
      <point x="786" y="166"/>
      <point x="975" y="286"/>
      <point x="975" y="468" type="curve" smooth="yes"/>
      <point x="975" y="489"/>
      <point x="972" y="519"/>
      <point x="964" y="546" type="curve"/>
      <point x="1007" y="532"/>
      <point x="1054" y="523"/>
      <point x="1101" y="523" type="curve" smooth="yes"/>
      <point x="1148" y="523"/>
      <point x="1187" y="532"/>
      <point x="1240" y="558" type="curve"/>
      <point x="1136" y="19" type="line"/>
      <point x="1279" y="-19" type="line"/>
      <point x="1290" y="-12" type="line"/>
    </contour>
    <contour>
      <point x="946" y="893" type="line"/>
      <point x="1005" y="1197" type="line"/>
      <point x="1365" y="1197" type="line"/>
      <point x="1299" y="857" type="line" smooth="yes"/>
      <point x="1273" y="721"/>
      <point x="1164" y="646"/>
      <point x="1028" y="646" type="curve" smooth="yes"/>
      <point x="984" y="646"/>
      <point x="935" y="654"/>
      <point x="887" y="682" type="curve"/>
      <point x="853" y="699"/>
      <point x="815" y="713"/>
      <point x="768" y="713" type="curve" smooth="yes"/>
      <point x="707" y="713"/>
      <point x="560" y="690"/>
      <point x="504" y="690" type="curve" smooth="yes"/>
      <point x="441" y="690"/>
      <point x="407" y="722"/>
      <point x="407" y="771" type="curve" smooth="yes"/>
      <point x="407" y="833"/>
      <point x="446" y="885"/>
      <point x="561" y="885" type="curve" smooth="yes"/>
      <point x="936" y="885" type="line"/>
    </contour>
    <contour>
      <point x="1286.30677413" y="-19.0" type="move" name="blwm_matra"/>
    </contour>
    <contour>
      <point x="1469.55390961" y="1325.0" type="move" name="abvm_matra"/>
    </contour>
    <contour>
      <point x="1061.00849462" y="1600.0" type="move" name="abvm_latin"/>
    </contour>
    <contour>
      <point x="1483.16053125" y="1395.0" type="move" name="abvm_nasal"/>
    </contour>
    <contour>
      <point x="1171.94380309" y="10.0" type="move" name="blwm_rakar"/>
    </contour>
    <contour>
      <point x="748.056196909" y="-10.0" type="move" name="blwm_mid"/>
    </contour>
    <contour>
      <point x="195.52925289" y="-23.0" type="move" name="blwm_nukta"/>
    </contour>
    <contour>
      <point x="1471.4977127" y="1335.0" type="move" name="abvm_reph"/>
    </contour>
  </outline>
</glyph>
<glyph name="dNya" format="1">
  <advance width="1531"/>
  <unicode hex="091E"/>
  <outline>
    <contour>
      <point x="1557" y="1197" type="line"/>
      <point x="1814" y="1197" type="line"/>
      <point x="1821" y="1206" type="line"/>
      <point x="1790" y="1330" type="line"/>
      <point x="209" y="1330" type="line"/>
      <point x="201" y="1321" type="line"/>
      <point x="233" y="1197" type="line"/>
      <point x="1397" y="1197" type="line"/>
      <point x="1317" y="787" type="line" smooth="yes"/>
      <point x="1296" y="677"/>
      <point x="1229" y="646"/>
      <point x="1170" y="646" type="curve" smooth="yes"/>
      <point x="1126" y="646"/>
      <point x="1088" y="663"/>
      <point x="1050" y="714" type="curve"/>
      <point x="1018" y="873"/>
      <point x="893" y="994"/>
      <point x="742" y="994" type="curve" smooth="yes"/>
      <point x="609" y="994"/>
      <point x="512" y="903"/>
      <point x="512" y="821" type="curve" smooth="yes"/>
      <point x="512" y="779"/>
      <point x="537" y="738"/>
      <point x="593" y="723" type="curve"/>
      <point x="663" y="818"/>
      <point x="737" y="842"/>
      <point x="794" y="842" type="curve" smooth="yes"/>
      <point x="886" y="842"/>
      <point x="942" y="772"/>
      <point x="942" y="670" type="curve" smooth="yes"/>
      <point x="942" y="486"/>
      <point x="790" y="357"/>
      <point x="614" y="357" type="curve" smooth="yes"/>
      <point x="430" y="357"/>
      <point x="322" y="506"/>
      <point x="334" y="830" type="curve"/>
      <point x="275" y="830"/>
      <point x="235" y="798"/>
      <point x="235" y="682" type="curve" smooth="yes"/>
      <point x="235" y="505"/>
      <point x="339" y="195"/>
      <point x="636" y="195" type="curve" smooth="yes"/>
      <point x="852" y="195"/>
      <point x="1004" y="347"/>
      <point x="1052" y="565" type="curve"/>
      <point x="1094" y="514"/>
      <point x="1145" y="483"/>
      <point x="1206" y="483" type="curve" smooth="yes"/>
      <point x="1221" y="483"/>
      <point x="1236" y="485"/>
      <point x="1259" y="491" type="curve"/>
      <point x="1168" y="19" type="line"/>
      <point x="1311" y="-19" type="line"/>
      <point x="1322" y="-12" type="line"/>
    </contour>
    <contour>
      <point x="1324.30677413" y="-19.0" type="move" name="blwm_matra"/>
    </contour>
    <contour>
      <point x="1507.55390961" y="1325.0" type="move" name="abvm_matra"/>
    </contour>
    <contour>
      <point x="1082.00849462" y="1600.0" type="move" name="abvm_latin"/>
    </contour>
    <contour>
      <point x="1521.16053125" y="1395.0" type="move" name="abvm_nasal"/>
    </contour>
    <contour>
      <point x="1202.94380309" y="10.0" type="move" name="blwm_rakar"/>
    </contour>
    <contour>
      <point x="769.056196909" y="-10.0" type="move" name="blwm_mid"/>
    </contour>
    <contour>
      <point x="597.641646707" y="-43.0" type="move" name="blwm_nukta"/>
    </contour>
    <contour>
      <point x="1509.4977127" y="1335.0" type="move" name="abvm_reph"/>
    </contour>
  </outline>
</glyph>
<glyph name="dTta" format="1">
  <advance width="1058"/>
  <unicode hex="091F"/>
  <outline>
    <contour>
      <point x="1075" y="1197" type="line"/>
      <point x="1341" y="1197" type="line"/>
      <point x="1348" y="1206" type="line"/>
      <point x="1317" y="1330" type="line"/>
      <point x="209" y="1330" type="line"/>
      <point x="201" y="1321" type="line"/>
      <point x="233" y="1197" type="line"/>
      <point x="921" y="1197" type="line"/>
      <point x="877" y="974" type="line" smooth="yes"/>
      <point x="876" y="969"/>
      <point x="873" y="966"/>
      <point x="868" y="966" type="curve" smooth="yes"/>
      <point x="745" y="966" type="line" smooth="yes"/>
      <point x="416" y="966"/>
      <point x="208" y="766"/>
      <point x="208" y="527" type="curve" smooth="yes"/>
      <point x="208" y="307"/>
      <point x="382" y="91"/>
      <point x="652" y="91" type="curve" smooth="yes"/>
      <point x="863" y="91"/>
      <point x="1061" y="213"/>
      <point x="1061" y="340" type="curve" smooth="yes"/>
      <point x="1061" y="382"/>
      <point x="1037" y="418"/>
      <point x="986" y="435" type="curve"/>
      <point x="909" y="308"/>
      <point x="762" y="222"/>
      <point x="604" y="222" type="curve" smooth="yes"/>
      <point x="429" y="222"/>
      <point x="344" y="335"/>
      <point x="344" y="467" type="curve" smooth="yes"/>
      <point x="344" y="664"/>
      <point x="514" y="819"/>
      <point x="772" y="819" type="curve" smooth="yes"/>
      <point x="993" y="819" type="line"/>
      <point x="1003" y="827" type="line"/>
    </contour>
    <contour>
      <point x="720.756349395" y="-99.0" type="move" name="blwm_matra"/>
    </contour>
    <contour>
      <point x="1019.55390961" y="1325.0" type="move" name="abvm_matra"/>
    </contour>
    <contour>
      <point x="840.00849462" y="1600.0" type="move" name="abvm_latin"/>
    </contour>
    <contour>
      <point x="1033.16053125" y="1395.0" type="move" name="abvm_nasal"/>
    </contour>
    <contour>
      <point x="621.224787634" y="-40.0" type="move" name="blwm_rakar"/>
    </contour>
    <contour>
      <point x="527.056196909" y="-10.0" type="move" name="blwm_mid"/>
    </contour>
    <contour>
      <point x="576.091221976" y="-123.0" type="move" name="blwm_nukta"/>
    </contour>
    <contour>
      <point x="1021.4977127" y="1335.0" type="move" name="abvm_reph"/>
    </contour>
  </outline>
</glyph>
<glyph name="dTtha" format="1">
  <advance width="1138"/>
  <unicode hex="0920"/>
  <outline>
    <contour>
      <point x="1025" y="1197" type="line"/>
      <point x="1421" y="1197" type="line"/>
      <point x="1428" y="1206" type="line"/>
      <point x="1397" y="1330" type="line"/>
      <point x="209" y="1330" type="line"/>
      <point x="201" y="1321" type="line"/>
      <point x="233" y="1197" type="line"/>
      <point x="871" y="1197" type="line"/>
      <point x="827" y="974" type="line" smooth="yes"/>
      <point x="826" y="969"/>
      <point x="823" y="966"/>
      <point x="818" y="966" type="curve" smooth="yes"/>
      <point x="701" y="966" type="line" smooth="yes"/>
      <point x="401" y="966"/>
      <point x="194" y="758"/>
      <point x="194" y="523" type="curve" smooth="yes"/>
      <point x="194" y="297"/>
      <point x="374" y="81"/>
      <point x="638" y="81" type="curve" smooth="yes"/>
      <point x="906" y="81"/>
      <point x="1144" y="282"/>
      <point x="1144" y="535" type="curve" smooth="yes"/>
      <point x="1144" y="676"/>
      <point x="1071" y="807"/>
      <point x="964" y="885" type="curve"/>
    </contour>
    <contour>
      <point x="940" y="819"/>
      <point x="1015" y="712"/>
      <point x="1015" y="591" type="curve" smooth="yes"/>
      <point x="1015" y="374"/>
      <point x="800" y="212"/>
      <point x="588" y="212" type="curve" smooth="yes"/>
      <point x="420" y="212"/>
      <point x="324" y="327"/>
      <point x="324" y="467" type="curve" smooth="yes"/>
      <point x="324" y="655"/>
      <point x="488" y="819"/>
      <point x="745" y="819" type="curve" smooth="yes"/>
    </contour>
    <contour>
      <point x="670.756349395" y="-99.0" type="move" name="blwm_matra"/>
    </contour>
    <contour>
      <point x="969.553909607" y="1325.0" type="move" name="abvm_matra"/>
    </contour>
    <contour>
      <point x="880.00849462" y="1600.0" type="move" name="abvm_latin"/>
    </contour>
    <contour>
      <point x="983.160531247" y="1395.0" type="move" name="abvm_nasal"/>
    </contour>
    <contour>
      <point x="575.39337836" y="-70.0" type="move" name="blwm_rakar"/>
    </contour>
    <contour>
      <point x="567.056196909" y="-10.0" type="move" name="blwm_mid"/>
    </contour>
    <contour>
      <point x="576.091221976" y="-123.0" type="move" name="blwm_nukta"/>
    </contour>
    <contour>
      <point x="971.497712699" y="1335.0" type="move" name="abvm_reph"/>
    </contour>
  </outline>
</glyph>
<glyph name="dDda" format="1">
  <advance width="1052"/>
  <unicode hex="0921"/>
  <outline>
    <contour>
      <point x="1095" y="1197" type="line"/>
      <point x="1335" y="1197" type="line"/>
      <point x="1342" y="1206" type="line"/>
      <point x="1311" y="1330" type="line"/>
      <point x="209" y="1330" type="line"/>
      <point x="201" y="1321" type="line"/>
      <point x="233" y="1197" type="line"/>
      <point x="941" y="1197" type="line"/>
      <point x="909" y="1034" type="line" smooth="yes"/>
      <point x="908" y="1029"/>
      <point x="904" y="1026"/>
      <point x="899" y="1026" type="curve" smooth="yes"/>
      <point x="576" y="1026" type="line" smooth="yes"/>
      <point x="420" y="1026"/>
      <point x="347" y="946"/>
      <point x="347" y="824" type="curve" smooth="yes"/>
      <point x="347" y="671"/>
      <point x="476" y="522"/>
      <point x="625" y="522" type="curve" smooth="yes"/>
      <point x="677" y="522"/>
      <point x="801" y="539"/>
      <point x="841" y="539" type="curve" smooth="yes"/>
      <point x="899" y="539"/>
      <point x="931" y="500"/>
      <point x="931" y="450" type="curve" smooth="yes"/>
      <point x="931" y="338"/>
      <point x="790" y="255"/>
      <point x="645" y="255" type="curve" smooth="yes"/>
      <point x="476" y="255"/>
      <point x="327" y="372"/>
      <point x="253" y="616" type="curve"/>
      <point x="216" y="599"/>
      <point x="194" y="566"/>
      <point x="194" y="522" type="curve" smooth="yes"/>
      <point x="194" y="392"/>
      <point x="352" y="99"/>
      <point x="668" y="99" type="curve" smooth="yes"/>
      <point x="886" y="99"/>
      <point x="1028" y="226"/>
      <point x="1028" y="424" type="curve" smooth="yes"/>
      <point x="1028" y="580"/>
      <point x="928" y="701"/>
      <point x="803" y="701" type="curve" smooth="yes"/>
      <point x="749" y="701"/>
      <point x="635" y="680"/>
      <point x="576" y="680" type="curve" smooth="yes"/>
      <point x="503" y="680"/>
      <point x="467" y="715"/>
      <point x="467" y="768" type="curve" smooth="yes"/>
      <point x="467" y="832"/>
      <point x="504" y="885"/>
      <point x="631" y="885" type="curve" smooth="yes"/>
      <point x="1026" y="885" type="line"/>
      <point x="1036" y="893" type="line"/>
    </contour>
    <contour>
      <point x="744.643955578" y="-79.0" type="move" name="blwm_matra"/>
    </contour>
    <contour>
      <point x="1039.55390961" y="1325.0" type="move" name="abvm_matra"/>
    </contour>
    <contour>
      <point x="837.00849462" y="1600.0" type="move" name="abvm_latin"/>
    </contour>
    <contour>
      <point x="1053.16053125" y="1395.0" type="move" name="abvm_nasal"/>
    </contour>
    <contour>
      <point x="612.39337836" y="-70.0" type="move" name="blwm_rakar"/>
    </contour>
    <contour>
      <point x="524.056196909" y="-10.0" type="move" name="blwm_mid"/>
    </contour>
    <contour>
      <point x="576.091221976" y="-123.0" type="move" name="blwm_nukta"/>
    </contour>
    <contour>
      <point x="1041.4977127" y="1335.0" type="move" name="abvm_reph"/>
    </contour>
  </outline>
</glyph>
<glyph name="dDdha" format="1">
  <advance width="1058"/>
  <unicode hex="0922"/>
  <outline>
    <contour>
      <point x="1075" y="1197" type="line"/>
      <point x="1341" y="1197" type="line"/>
      <point x="1348" y="1206" type="line"/>
      <point x="1317" y="1330" type="line"/>
      <point x="209" y="1330" type="line"/>
      <point x="201" y="1321" type="line"/>
      <point x="233" y="1197" type="line"/>
      <point x="921" y="1197" type="line"/>
      <point x="879" y="984" type="line" smooth="yes"/>
      <point x="878" y="979"/>
      <point x="875" y="976"/>
      <point x="870" y="976" type="curve" smooth="yes"/>
      <point x="752" y="976" type="line" smooth="yes"/>
      <point x="423" y="976"/>
      <point x="214" y="771"/>
      <point x="214" y="523" type="curve" smooth="yes"/>
      <point x="214" y="287"/>
      <point x="397" y="61"/>
      <point x="654" y="61" type="curve" smooth="yes"/>
      <point x="880" y="61"/>
      <point x="1080" y="218"/>
      <point x="1080" y="419" type="curve" smooth="yes"/>
      <point x="1080" y="548"/>
      <point x="995" y="655"/>
      <point x="866" y="655" type="curve" smooth="yes"/>
      <point x="740" y="655"/>
      <point x="634" y="565"/>
      <point x="634" y="422" type="curve" smooth="yes"/>
      <point x="634" y="357"/>
      <point x="660" y="283"/>
      <point x="723" y="203" type="curve"/>
      <point x="689" y="195"/>
      <point x="652" y="192"/>
      <point x="622" y="192" type="curve" smooth="yes"/>
      <point x="434" y="192"/>
      <point x="343" y="322"/>
      <point x="343" y="465" type="curve" smooth="yes"/>
      <point x="343" y="668"/>
      <point x="515" y="829"/>
      <point x="774" y="829" type="curve" smooth="yes"/>
      <point x="995" y="829" type="line"/>
      <point x="1005" y="837" type="line"/>
    </contour>
    <contour>
      <point x="954" y="531"/>
      <point x="986" y="497"/>
      <point x="986" y="446" type="curve" smooth="yes"/>
      <point x="986" y="366"/>
      <point x="912" y="283"/>
      <point x="805" y="234" type="curve"/>
      <point x="775" y="284"/>
      <point x="762" y="335"/>
      <point x="762" y="374" type="curve" smooth="yes"/>
      <point x="762" y="465"/>
      <point x="834" y="531"/>
      <point x="906" y="531" type="curve" smooth="yes"/>
    </contour>
    <contour>
      <point x="716.868743213" y="-119.0" type="move" name="blwm_matra"/>
    </contour>
    <contour>
      <point x="1019.55390961" y="1325.0" type="move" name="abvm_matra"/>
    </contour>
    <contour>
      <point x="840.00849462" y="1600.0" type="move" name="abvm_latin"/>
    </contour>
    <contour>
      <point x="1033.16053125" y="1395.0" type="move" name="abvm_nasal"/>
    </contour>
    <contour>
      <point x="611.505772178" y="-90.0" type="move" name="blwm_rakar"/>
    </contour>
    <contour>
      <point x="527.056196909" y="-10.0" type="move" name="blwm_mid"/>
    </contour>
    <contour>
      <point x="572.203615793" y="-143.0" type="move" name="blwm_nukta"/>
    </contour>
    <contour>
      <point x="1021.4977127" y="1335.0" type="move" name="abvm_reph"/>
    </contour>
  </outline>
</glyph>
<glyph name="dNna" format="1">
  <advance width="1421"/>
  <unicode hex="0923"/>
  <outline>
    <contour>
      <point x="1447" y="1197" type="line"/>
      <point x="1704" y="1197" type="line"/>
      <point x="1711" y="1206" type="line"/>
      <point x="1680" y="1330" type="line"/>
      <point x="209" y="1330" type="line"/>
      <point x="201" y="1321" type="line"/>
      <point x="233" y="1197" type="line"/>
      <point x="362" y="1197" type="line"/>
      <point x="276" y="755" type="line" smooth="yes"/>
      <point x="233" y="534"/>
      <point x="394" y="351"/>
      <point x="596" y="351" type="curve" smooth="yes"/>
      <point x="757" y="351"/>
      <point x="900" y="468"/>
      <point x="932" y="631" type="curve" smooth="yes"/>
      <point x="1042" y="1197" type="line"/>
      <point x="1287" y="1197" type="line"/>
      <point x="1058" y="19" type="line"/>
      <point x="1201" y="-19" type="line"/>
      <point x="1212" y="-12" type="line"/>
    </contour>
    <contour>
      <point x="522" y="1197" type="line"/>
      <point x="887" y="1197" type="line"/>
      <point x="790" y="700" type="line" smooth="yes"/>
      <point x="762" y="555"/>
      <point x="661" y="473"/>
      <point x="554" y="473" type="curve" smooth="yes"/>
      <point x="458" y="473"/>
      <point x="393" y="539"/>
      <point x="419" y="670" type="curve" smooth="yes"/>
    </contour>
    <contour>
      <point x="1208.30677413" y="-19.0" type="move" name="blwm_matra"/>
    </contour>
    <contour>
      <point x="1391.55390961" y="1325.0" type="move" name="abvm_matra"/>
    </contour>
    <contour>
      <point x="1021.00849462" y="1600.0" type="move" name="abvm_latin"/>
    </contour>
    <contour>
      <point x="1405.16053125" y="1395.0" type="move" name="abvm_nasal"/>
    </contour>
    <contour>
      <point x="1092.94380309" y="10.0" type="move" name="blwm_rakar"/>
    </contour>
    <contour>
      <point x="708.056196909" y="-10.0" type="move" name="blwm_mid"/>
    </contour>
    <contour>
      <point x="504.967283804" y="77.0" type="move" name="blwm_nukta"/>
    </contour>
    <contour>
      <point x="1393.4977127" y="1335.0" type="move" name="abvm_reph"/>
    </contour>
  </outline>
</glyph>
<glyph name="dTa" format="1">
  <advance width="1191"/>
  <unicode hex="0924"/>
  <outline>
    <contour>
      <point x="1217" y="1197" type="line"/>
      <point x="1474" y="1197" type="line"/>
      <point x="1481" y="1206" type="line"/>
      <point x="1450" y="1330" type="line"/>
      <point x="209" y="1330" type="line"/>
      <point x="201" y="1321" type="line"/>
      <point x="233" y="1197" type="line"/>
      <point x="1057" y="1197" type="line"/>
      <point x="1003" y="923" type="line"/>
      <point x="545" y="923" type="line" smooth="yes"/>
      <point x="320" y="923"/>
      <point x="198" y="767"/>
      <point x="198" y="539" type="curve" smooth="yes"/>
      <point x="198" y="261"/>
      <point x="382" y="-18"/>
      <point x="477" y="-18" type="curve" smooth="yes"/>
      <point x="498" y="-18"/>
      <point x="522" y="-5"/>
      <point x="537" y="20" type="curve"/>
      <point x="408" y="153"/>
      <point x="337" y="341"/>
      <point x="337" y="493" type="curve" smooth="yes"/>
      <point x="337" y="642"/>
      <point x="403" y="778"/>
      <point x="589" y="778" type="curve" smooth="yes"/>
      <point x="975" y="778" type="line"/>
      <point x="828" y="19" type="line"/>
      <point x="971" y="-19" type="line"/>
      <point x="982" y="-12" type="line"/>
    </contour>
    <contour>
      <point x="978.306774126" y="-19.0" type="move" name="blwm_matra"/>
    </contour>
    <contour>
      <point x="1161.55390961" y="1325.0" type="move" name="abvm_matra"/>
    </contour>
    <contour>
      <point x="906.00849462" y="1600.0" type="move" name="abvm_latin"/>
    </contour>
    <contour>
      <point x="1175.16053125" y="1395.0" type="move" name="abvm_nasal"/>
    </contour>
    <contour>
      <point x="863.943803091" y="10.0" type="move" name="blwm_rakar"/>
    </contour>
    <contour>
      <point x="463.056196909" y="-10.0" type="move" name="blwm_mid"/>
    </contour>
    <contour>
      <point x="135.52925289" y="-23.0" type="move" name="blwm_nukta"/>
    </contour>
    <contour>
      <point x="1163.4977127" y="1335.0" type="move" name="abvm_reph"/>
    </contour>
  </outline>
</glyph>
<glyph name="dTha" format="1">
  <advance width="1341"/>
  <unicode hex="0925"/>
  <outline>
    <contour>
      <point x="437" y="1387"/>
      <point x="304" y="1295"/>
      <point x="304" y="1151" type="curve" smooth="yes"/>
      <point x="304" y="1027"/>
      <point x="404" y="922"/>
      <point x="509" y="922" type="curve" smooth="yes"/>
      <point x="549" y="922"/>
      <point x="572" y="936"/>
      <point x="584" y="951" type="curve"/>
      <point x="485" y="993"/>
      <point x="446" y="1053"/>
      <point x="446" y="1113" type="curve" smooth="yes"/>
      <point x="446" y="1204"/>
      <point x="525" y="1260"/>
      <point x="615" y="1260" type="curve" smooth="yes"/>
      <point x="699" y="1260"/>
      <point x="757" y="1204"/>
      <point x="757" y="1106" type="curve" smooth="yes"/>
      <point x="757" y="929"/>
      <point x="613" y="796"/>
      <point x="288" y="710" type="curve"/>
      <point x="281" y="700" type="line"/>
      <point x="401" y="374"/>
      <point x="591" y="241"/>
      <point x="795" y="241" type="curve" smooth="yes"/>
      <point x="883" y="241"/>
      <point x="957" y="266"/>
      <point x="1035" y="316" type="curve"/>
      <point x="978" y="19" type="line"/>
      <point x="1121" y="-19" type="line"/>
      <point x="1132" y="-12" type="line"/>
      <point x="1367" y="1197" type="line"/>
      <point x="1624" y="1197" type="line"/>
      <point x="1631" y="1206" type="line"/>
      <point x="1600" y="1330" type="line"/>
      <point x="989" y="1330" type="line"/>
      <point x="981" y="1321" type="line"/>
      <point x="1013" y="1197" type="line"/>
      <point x="1207" y="1197" type="line"/>
      <point x="1106" y="680" type="line" smooth="yes"/>
      <point x="1073" y="512"/>
      <point x="915" y="401"/>
      <point x="754" y="401" type="curve" smooth="yes"/>
      <point x="648" y="401"/>
      <point x="522" y="449"/>
      <point x="447" y="591" type="curve"/>
      <point x="741" y="688"/>
      <point x="884" y="843"/>
      <point x="884" y="1046" type="curve" smooth="yes"/>
      <point x="884" y="1237"/>
      <point x="745" y="1387"/>
      <point x="577" y="1387" type="curve" smooth="yes"/>
    </contour>
    <contour>
      <point x="1128.30677413" y="-19.0" type="move" name="blwm_matra"/>
    </contour>
    <contour>
      <point x="1311.55390961" y="1325.0" type="move" name="abvm_matra"/>
    </contour>
    <contour>
      <point x="981.00849462" y="1600.0" type="move" name="abvm_latin"/>
    </contour>
    <contour>
      <point x="1325.16053125" y="1395.0" type="move" name="abvm_nasal"/>
    </contour>
    <contour>
      <point x="1016.94380309" y="10.0" type="move" name="blwm_rakar"/>
    </contour>
    <contour>
      <point x="626.056196909" y="-10.0" type="move" name="blwm_mid"/>
    </contour>
    <contour>
      <point x="465.967283804" y="77.0" type="move" name="blwm_nukta"/>
    </contour>
    <contour>
      <point x="1313.4977127" y="1335.0" type="move" name="abvm_reph"/>
    </contour>
  </outline>
</glyph>
<glyph name="dDa" format="1">
  <advance width="1058"/>
  <unicode hex="0926"/>
  <outline>
    <contour>
      <point x="993" y="819" type="line"/>
      <point x="1003" y="827" type="line"/>
      <point x="1075" y="1197" type="line"/>
      <point x="1341" y="1197" type="line"/>
      <point x="1348" y="1206" type="line"/>
      <point x="1317" y="1330" type="line"/>
      <point x="209" y="1330" type="line"/>
      <point x="201" y="1321" type="line"/>
      <point x="233" y="1197" type="line"/>
      <point x="921" y="1197" type="line"/>
      <point x="877" y="974" type="line" smooth="yes"/>
      <point x="876" y="969"/>
      <point x="873" y="966"/>
      <point x="868" y="966" type="curve" smooth="yes"/>
      <point x="750" y="966" type="line" smooth="yes"/>
      <point x="386" y="966"/>
      <point x="215" y="744"/>
      <point x="215" y="527" type="curve" smooth="yes"/>
      <point x="215" y="306"/>
      <point x="384" y="91"/>
      <point x="638" y="91" type="curve" smooth="yes"/>
      <point x="718" y="91"/>
      <point x="793" y="111"/>
      <point x="854" y="140" type="curve"/>
      <point x="892" y="90"/>
      <point x="907" y="51"/>
      <point x="907" y="22" type="curve" smooth="yes"/>
      <point x="907" y="-33"/>
      <point x="849" y="-77"/>
      <point x="766" y="-98" type="curve"/>
      <point x="779" y="-164"/>
      <point x="816" y="-202"/>
      <point x="872" y="-202" type="curve" smooth="yes"/>
      <point x="950" y="-202"/>
      <point x="1022" y="-131"/>
      <point x="1022" y="-28" type="curve" smooth="yes"/>
      <point x="1022" y="24"/>
      <point x="1001" y="93"/>
      <point x="932" y="190" type="curve"/>
      <point x="988" y="235"/>
      <point x="1034" y="296"/>
      <point x="1034" y="365" type="curve" smooth="yes"/>
      <point x="1034" y="435"/>
      <point x="991" y="499"/>
      <point x="910" y="499" type="curve" smooth="yes"/>
      <point x="818" y="499"/>
      <point x="747" y="425"/>
      <point x="747" y="342" type="curve" smooth="yes"/>
      <point x="747" y="314"/>
      <point x="756" y="285"/>
      <point x="773" y="257" type="curve"/>
      <point x="721" y="233"/>
      <point x="659" y="219"/>
      <point x="598" y="219" type="curve" smooth="yes"/>
      <point x="426" y="219"/>
      <point x="344" y="337"/>
      <point x="344" y="468" type="curve" smooth="yes"/>
      <point x="344" y="663"/>
      <point x="514" y="819"/>
      <point x="772" y="819" type="curve" smooth="yes"/>
    </contour>
    <contour>
      <point x="945.31370074" y="-127.0" type="move" name="blwm_matra"/>
    </contour>
    <contour>
      <point x="1019.55390961" y="1325.0" type="move" name="abvm_matra"/>
    </contour>
    <contour>
      <point x="840.00849462" y="1600.0" type="move" name="abvm_latin"/>
    </contour>
    <contour>
      <point x="1033.16053125" y="1395.0" type="move" name="abvm_nasal"/>
    </contour>
    <contour>
      <point x="671.505772178" y="-90.0" type="move" name="blwm_rakar"/>
    </contour>
    <contour>
      <point x="527.056196909" y="-10.0" type="move" name="blwm_mid"/>
    </contour>
    <contour>
      <point x="476.091221976" y="-123.0" type="move" name="blwm_nukta"/>
    </contour>
    <contour>
      <point x="1021.4977127" y="1335.0" type="move" name="abvm_reph"/>
    </contour>
  </outline>
</glyph>
<glyph name="dDha" format="1">
  <advance width="1315"/>
  <unicode hex="0927"/>
  <outline>
    <contour>
      <point x="1341" y="1197" type="line"/>
      <point x="1598" y="1197" type="line"/>
      <point x="1605" y="1206" type="line"/>
      <point x="1574" y="1330" type="line"/>
      <point x="963" y="1330" type="line"/>
      <point x="955" y="1321" type="line"/>
      <point x="987" y="1197" type="line"/>
      <point x="1181" y="1197" type="line"/>
      <point x="1067" y="610" type="line" smooth="yes"/>
      <point x="1033" y="433"/>
      <point x="835" y="351"/>
      <point x="699" y="351" type="curve" smooth="yes"/>
      <point x="586" y="351"/>
      <point x="523" y="412"/>
      <point x="523" y="496" type="curve" smooth="yes"/>
      <point x="523" y="627"/>
      <point x="659" y="743"/>
      <point x="898" y="778" type="curve"/>
      <point x="904" y="789" type="line"/>
      <point x="818" y="918" type="line"/>
      <point x="742" y="910"/>
      <point x="670" y="885"/>
      <point x="608" y="849" type="curve"/>
      <point x="508" y="915"/>
      <point x="465" y="993"/>
      <point x="465" y="1066" type="curve" smooth="yes"/>
      <point x="465" y="1165"/>
      <point x="546" y="1245"/>
      <point x="635" y="1245" type="curve" smooth="yes"/>
      <point x="695" y="1245"/>
      <point x="761" y="1207"/>
      <point x="752" y="1087" type="curve"/>
      <point x="776" y="1087"/>
      <point x="824" y="1097"/>
      <point x="824" y="1190" type="curve" smooth="yes"/>
      <point x="824" y="1292"/>
      <point x="741" y="1387"/>
      <point x="609" y="1387" type="curve" smooth="yes"/>
      <point x="443" y="1387"/>
      <point x="319" y="1256"/>
      <point x="319" y="1111" type="curve" smooth="yes"/>
      <point x="319" y="1003"/>
      <point x="384" y="881"/>
      <point x="519" y="784" type="curve"/>
      <point x="448" y="716"/>
      <point x="400" y="623"/>
      <point x="400" y="535" type="curve" smooth="yes"/>
      <point x="400" y="371"/>
      <point x="540" y="221"/>
      <point x="757" y="221" type="curve" smooth="yes"/>
      <point x="841" y="221"/>
      <point x="919" y="242"/>
      <point x="1004" y="287" type="curve"/>
      <point x="952" y="19" type="line"/>
      <point x="1095" y="-19" type="line"/>
      <point x="1106" y="-12" type="line"/>
    </contour>
    <contour>
      <point x="1102.30677413" y="-19.0" type="move" name="blwm_matra"/>
    </contour>
    <contour>
      <point x="1285.55390961" y="1325.0" type="move" name="abvm_matra"/>
    </contour>
    <contour>
      <point x="968.00849462" y="1600.0" type="move" name="abvm_latin"/>
    </contour>
    <contour>
      <point x="1299.16053125" y="1395.0" type="move" name="abvm_nasal"/>
    </contour>
    <contour>
      <point x="986.943803091" y="10.0" type="move" name="blwm_rakar"/>
    </contour>
    <contour>
      <point x="595.056196909" y="-10.0" type="move" name="blwm_mid"/>
    </contour>
    <contour>
      <point x="615.52925289" y="-23.0" type="move" name="blwm_nukta"/>
    </contour>
    <contour>
      <point x="1287.4977127" y="1335.0" type="move" name="abvm_reph"/>
    </contour>
  </outline>
</glyph>
<glyph name="dPa" format="1">
  <advance width="1112"/>
  <unicode hex="092A"/>
  <outline>
    <contour>
      <point x="1137" y="1197" type="line"/>
      <point x="1395" y="1197" type="line"/>
      <point x="1402" y="1206" type="line"/>
      <point x="1371" y="1330" type="line"/>
      <point x="209" y="1330" type="line"/>
      <point x="201" y="1321" type="line"/>
      <point x="233" y="1197" type="line"/>
      <point x="362" y="1197" type="line"/>
      <point x="276" y="755" type="line" smooth="yes"/>
      <point x="233" y="536"/>
      <point x="388" y="351"/>
      <point x="590" y="351" type="curve" smooth="yes"/>
      <point x="664" y="351"/>
      <point x="742" y="373"/>
      <point x="826" y="421" type="curve"/>
      <point x="748" y="19" type="line"/>
      <point x="891" y="-19" type="line"/>
      <point x="902" y="-12" type="line"/>
    </contour>
    <contour>
      <point x="522" y="1197" type="line"/>
      <point x="977" y="1197" type="line"/>
      <point x="890" y="750" type="line" smooth="yes"/>
      <point x="860" y="594"/>
      <point x="697" y="473"/>
      <point x="554" y="473" type="curve" smooth="yes"/>
      <point x="447" y="473"/>
      <point x="394" y="541"/>
      <point x="419" y="670" type="curve" smooth="yes"/>
    </contour>
    <contour>
      <point x="898.306774126" y="-19.0" type="move" name="blwm_matra"/>
    </contour>
    <contour>
      <point x="1081.55390961" y="1325.0" type="move" name="abvm_matra"/>
    </contour>
    <contour>
      <point x="867.00849462" y="1600.0" type="move" name="abvm_latin"/>
    </contour>
    <contour>
      <point x="1095.16053125" y="1395.0" type="move" name="abvm_nasal"/>
    </contour>
    <contour>
      <point x="777.943803091" y="10.0" type="move" name="blwm_rakar"/>
    </contour>
    <contour>
      <point x="394.056196909" y="-10.0" type="move" name="blwm_mid"/>
    </contour>
    <contour>
      <point x="464.967283804" y="77.0" type="move" name="blwm_nukta"/>
    </contour>
    <contour>
      <point x="1083.4977127" y="1335.0" type="move" name="abvm_reph"/>
    </contour>
  </outline>
</glyph>
<glyph name="dBa" format="1">
  <advance width="1160"/>
  <unicode hex="092C"/>
  <outline>
    <contour>
      <point x="1186" y="1197" type="line"/>
      <point x="1443" y="1197" type="line"/>
      <point x="1450" y="1206" type="line"/>
      <point x="1419" y="1330" type="line"/>
      <point x="209" y="1330" type="line"/>
      <point x="201" y="1321" type="line"/>
      <point x="233" y="1197" type="line"/>
      <point x="1026" y="1197" type="line"/>
      <point x="959" y="855" type="line"/>
      <point x="879" y="961"/>
      <point x="763" y="1007"/>
      <point x="644" y="1007" type="curve" smooth="yes"/>
      <point x="406" y="1007"/>
      <point x="202" y="831"/>
      <point x="202" y="609" type="curve" smooth="yes"/>
      <point x="202" y="393"/>
      <point x="393" y="219"/>
      <point x="595" y="219" type="curve" smooth="yes"/>
      <point x="665" y="219"/>
      <point x="755" y="239"/>
      <point x="851" y="297" type="curve"/>
      <point x="797" y="19" type="line"/>
      <point x="940" y="-19" type="line"/>
      <point x="951" y="-12" type="line"/>
    </contour>
    <contour>
      <point x="913" y="618" type="line" smooth="yes"/>
      <point x="899" y="549"/>
      <point x="857" y="488"/>
      <point x="800" y="442" type="curve"/>
      <point x="553" y="837" type="line"/>
      <point x="593" y="855"/>
      <point x="642" y="863"/>
      <point x="688" y="863" type="curve" smooth="yes"/>
      <point x="842" y="863"/>
      <point x="945" y="773"/>
      <point x="920" y="652" type="curve" smooth="yes"/>
    </contour>
    <contour>
      <point x="417" y="350"/>
      <point x="339" y="437"/>
      <point x="339" y="554" type="curve" smooth="yes"/>
      <point x="339" y="640"/>
      <point x="380" y="714"/>
      <point x="446" y="774" type="curve"/>
      <point x="697" y="382" type="line"/>
      <point x="651" y="360"/>
      <point x="596" y="350"/>
      <point x="549" y="350" type="curve" smooth="yes"/>
    </contour>
    <contour>
      <point x="947.306774126" y="-19.0" type="move" name="blwm_matra"/>
    </contour>
    <contour>
      <point x="1130.55390961" y="1325.0" type="move" name="abvm_matra"/>
    </contour>
    <contour>
      <point x="891.00849462" y="1600.0" type="move" name="abvm_latin"/>
    </contour>
    <contour>
      <point x="1144.16053125" y="1395.0" type="move" name="abvm_nasal"/>
    </contour>
    <contour>
      <point x="831.943803091" y="10.0" type="move" name="blwm_rakar"/>
    </contour>
    <contour>
      <point x="448.056196909" y="-10.0" type="move" name="blwm_mid"/>
    </contour>
    <contour>
      <point x="495.52925289" y="-23.0" type="move" name="blwm_nukta"/>
    </contour>
    <contour>
      <point x="1132.4977127" y="1335.0" type="move" name="abvm_reph"/>
    </contour>
  </outline>
</glyph>
<glyph name="dBha" format="1">
  <advance width="1383"/>
  <unicode hex="092D"/>
  <outline>
    <contour>
      <point x="297" y="1039"/>
      <point x="396" y="934"/>
      <point x="502" y="934" type="curve" smooth="yes"/>
      <point x="542" y="934"/>
      <point x="564" y="948"/>
      <point x="576" y="963" type="curve"/>
      <point x="477" y="1005"/>
      <point x="438" y="1065"/>
      <point x="438" y="1125" type="curve" smooth="yes"/>
      <point x="438" y="1206"/>
      <point x="497" y="1260"/>
      <point x="576" y="1260" type="curve" smooth="yes"/>
      <point x="651" y="1260"/>
      <point x="682" y="1207"/>
      <point x="655" y="1069" type="curve" smooth="yes"/>
      <point x="576" y="662" type="line"/>
      <point x="491" y="659"/>
      <point x="411" y="638"/>
      <point x="411" y="554" type="curve" smooth="yes"/>
      <point x="411" y="447"/>
      <point x="536" y="294"/>
      <point x="607" y="294" type="curve" smooth="yes"/>
      <point x="635" y="294"/>
      <point x="667" y="317"/>
      <point x="678" y="373" type="curve" smooth="yes"/>
      <point x="706" y="518" type="line"/>
      <point x="1117" y="518" type="line"/>
      <point x="1020" y="19" type="line"/>
      <point x="1163" y="-19" type="line"/>
      <point x="1174" y="-12" type="line"/>
      <point x="1409" y="1197" type="line"/>
      <point x="1666" y="1197" type="line"/>
      <point x="1673" y="1206" type="line"/>
      <point x="1642" y="1330" type="line"/>
      <point x="943" y="1330" type="line"/>
      <point x="935" y="1321" type="line"/>
      <point x="967" y="1197" type="line"/>
      <point x="1249" y="1197" type="line"/>
      <point x="1145" y="663" type="line"/>
      <point x="734" y="663" type="line"/>
      <point x="794" y="973" type="line" smooth="yes"/>
      <point x="839" y="1206"/>
      <point x="715" y="1387"/>
      <point x="536" y="1387" type="curve" smooth="yes"/>
      <point x="399" y="1387"/>
      <point x="297" y="1286"/>
      <point x="297" y="1163" type="curve" smooth="yes"/>
    </contour>
    <contour>
      <point x="1170.30677413" y="-19.0" type="move" name="blwm_matra"/>
    </contour>
    <contour>
      <point x="1353.55390961" y="1325.0" type="move" name="abvm_matra"/>
    </contour>
    <contour>
      <point x="1002.00849462" y="1600.0" type="move" name="abvm_latin"/>
    </contour>
    <contour>
      <point x="1367.16053125" y="1395.0" type="move" name="abvm_nasal"/>
    </contour>
    <contour>
      <point x="1052.94380309" y="10.0" type="move" name="blwm_rakar"/>
    </contour>
    <contour>
      <point x="658.861816599" y="-11.0" type="move" name="blwm_mid"/>
    </contour>
    <contour>
      <point x="714.967283804" y="77.0" type="move" name="blwm_nukta"/>
    </contour>
    <contour>
      <point x="1355.4977127" y="1335.0" type="move" name="abvm_reph"/>
    </contour>
  </outline>
</glyph>
<glyph name="dMa" format="1">
  <advance width="1196"/>
  <unicode hex="092E"/>
  <outline>
    <contour>
      <point x="1222" y="1197" type="line"/>
      <point x="1479" y="1197" type="line"/>
      <point x="1486" y="1206" type="line"/>
      <point x="1455" y="1330" type="line"/>
      <point x="209" y="1330" type="line"/>
      <point x="201" y="1321" type="line"/>
      <point x="233" y="1197" type="line"/>
      <point x="443" y="1197" type="line"/>
      <point x="337" y="652" type="line"/>
      <point x="208" y="649"/>
      <point x="172" y="599"/>
      <point x="172" y="543" type="curve" smooth="yes"/>
      <point x="172" y="438"/>
      <point x="297" y="284"/>
      <point x="368" y="284" type="curve" smooth="yes"/>
      <point x="396" y="284"/>
      <point x="428" y="307"/>
      <point x="439" y="363" type="curve" smooth="yes"/>
      <point x="467" y="508" type="line"/>
      <point x="928" y="508" type="line"/>
      <point x="833" y="19" type="line"/>
      <point x="976" y="-19" type="line"/>
      <point x="987" y="-12" type="line"/>
    </contour>
    <contour>
      <point x="956" y="653" type="line"/>
      <point x="495" y="653" type="line"/>
      <point x="601" y="1197" type="line"/>
      <point x="1062" y="1197" type="line"/>
    </contour>
    <contour>
      <point x="983.306774126" y="-19.0" type="move" name="blwm_matra"/>
    </contour>
    <contour>
      <point x="1166.55390961" y="1325.0" type="move" name="abvm_matra"/>
    </contour>
    <contour>
      <point x="909.00849462" y="1600.0" type="move" name="abvm_latin"/>
    </contour>
    <contour>
      <point x="1180.16053125" y="1395.0" type="move" name="abvm_nasal"/>
    </contour>
    <contour>
      <point x="866.943803091" y="10.0" type="move" name="blwm_rakar"/>
    </contour>
    <contour>
      <point x="476.056196909" y="-10.0" type="move" name="blwm_mid"/>
    </contour>
    <contour>
      <point x="514.967283804" y="77.0" type="move" name="blwm_nukta"/>
    </contour>
    <contour>
      <point x="1168.4977127" y="1335.0" type="move" name="abvm_reph"/>
    </contour>
  </outline>
</glyph>
<glyph name="dRa" format="1">
  <advance width="866"/>
  <unicode hex="0930"/>
  <outline>
    <contour>
      <point x="1149" y="1197" type="line"/>
      <point x="1156" y="1206" type="line"/>
      <point x="1125" y="1330" type="line"/>
      <point x="209" y="1330" type="line"/>
      <point x="201" y="1321" type="line"/>
      <point x="233" y="1197" type="line"/>
      <point x="695" y="1197" type="line"/>
      <point x="703" y="1152"/>
      <point x="707" y="1083"/>
      <point x="707" y="1041" type="curve" smooth="yes"/>
      <point x="707" y="882"/>
      <point x="668" y="786"/>
      <point x="538" y="723" type="curve"/>
      <point x="476" y="762"/>
      <point x="413" y="779"/>
      <point x="364" y="779" type="curve" smooth="yes"/>
      <point x="263" y="779"/>
      <point x="201" y="709"/>
      <point x="201" y="621" type="curve" smooth="yes"/>
      <point x="201" y="411"/>
      <point x="471" y="-2"/>
      <point x="639" y="-2" type="curve" smooth="yes"/>
      <point x="681" y="-2"/>
      <point x="728" y="24"/>
      <point x="746" y="66" type="curve"/>
      <point x="563" y="170"/>
      <point x="439" y="289"/>
      <point x="349" y="484" type="curve"/>
      <point x="729" y="551"/>
      <point x="824" y="748"/>
      <point x="824" y="951" type="curve" smooth="yes"/>
      <point x="824" y="1026"/>
      <point x="812" y="1121"/>
      <point x="794" y="1197" type="curve"/>
    </contour>
    <contour>
      <point x="594.306774126" y="-19.0" type="move" name="blwm_matra"/>
    </contour>
    <contour>
      <point x="777.553909607" y="1325.0" type="move" name="abvm_matra"/>
    </contour>
    <contour>
      <point x="744.00849462" y="1600.0" type="move" name="abvm_latin"/>
    </contour>
    <contour>
      <point x="791.160531247" y="1395.0" type="move" name="abvm_nasal"/>
    </contour>
    <contour>
      <point x="434.943803091" y="10.0" type="move" name="blwm_rakar"/>
    </contour>
    <contour>
      <point x="431.056196909" y="-10.0" type="move" name="blwm_mid"/>
    </contour>
    <contour>
      <point x="184.967283804" y="77.0" type="move" name="blwm_nukta"/>
    </contour>
    <contour>
      <point x="779.497712699" y="1335.0" type="move" name="abvm_reph"/>
    </contour>
  </outline>
</glyph>
<glyph name="dLa" format="1">
  <advance width="1411"/>
  <unicode hex="0932"/>
  <outline>
    <contour>
      <point x="1437" y="1197" type="line"/>
      <point x="1694" y="1197" type="line"/>
      <point x="1701" y="1206" type="line"/>
      <point x="1670" y="1330" type="line"/>
      <point x="209" y="1330" type="line"/>
      <point x="201" y="1321" type="line"/>
      <point x="233" y="1197" type="line"/>
      <point x="1277" y="1197" type="line"/>
      <point x="1224" y="928" type="line"/>
      <point x="1082" y="916"/>
      <point x="950" y="861"/>
      <point x="845" y="769" type="curve"/>
      <point x="754" y="901"/>
      <point x="665" y="946"/>
      <point x="563" y="946" type="curve" smooth="yes"/>
      <point x="368" y="946"/>
      <point x="230" y="795"/>
      <point x="230" y="578" type="curve" smooth="yes"/>
      <point x="230" y="286"/>
      <point x="463" y="-18"/>
      <point x="570" y="-18" type="curve" smooth="yes"/>
      <point x="596" y="-18"/>
      <point x="622" y="-1"/>
      <point x="636" y="24" type="curve"/>
      <point x="465" y="167"/>
      <point x="376" y="376"/>
      <point x="376" y="532" type="curve" smooth="yes"/>
      <point x="376" y="688"/>
      <point x="476" y="798"/>
      <point x="599" y="798" type="curve" smooth="yes"/>
      <point x="663" y="798"/>
      <point x="721" y="767"/>
      <point x="775" y="698" type="curve"/>
      <point x="732" y="649"/>
      <point x="696" y="594"/>
      <point x="666" y="532" type="curve"/>
      <point x="790" y="437" type="line"/>
      <point x="802" y="441" type="line"/>
      <point x="891" y="634"/>
      <point x="1006" y="744"/>
      <point x="1198" y="793" type="curve"/>
      <point x="1048" y="19" type="line"/>
      <point x="1191" y="-19" type="line"/>
      <point x="1202" y="-12" type="line"/>
    </contour>
    <contour>
      <point x="1198.30677413" y="-19.0" type="move" name="blwm_matra"/>
    </contour>
    <contour>
      <point x="1381.55390961" y="1325.0" type="move" name="abvm_matra"/>
    </contour>
    <contour>
      <point x="1016.00849462" y="1600.0" type="move" name="abvm_latin"/>
    </contour>
    <contour>
      <point x="1395.16053125" y="1395.0" type="move" name="abvm_nasal"/>
    </contour>
    <contour>
      <point x="1082.94380309" y="10.0" type="move" name="blwm_rakar"/>
    </contour>
    <contour>
      <point x="703.056196909" y="-10.0" type="move" name="blwm_mid"/>
    </contour>
    <contour>
      <point x="195.52925289" y="-23.0" type="move" name="blwm_nukta"/>
    </contour>
    <contour>
      <point x="1383.4977127" y="1335.0" type="move" name="abvm_reph"/>
    </contour>
  </outline>
</glyph>
<glyph name="dLlla" format="1">
  <advance width="1431"/>
  <unicode hex="0934"/>
  <outline>
    <contour>
      <point x="1307" y="1197" type="line"/>
      <point x="1714" y="1197" type="line"/>
      <point x="1721" y="1206" type="line"/>
      <point x="1690" y="1330" type="line"/>
      <point x="209" y="1330" type="line"/>
      <point x="201" y="1321" type="line"/>
      <point x="233" y="1197" type="line"/>
      <point x="1157" y="1197" type="line"/>
      <point x="1098" y="894" type="line"/>
      <point x="1018" y="876"/>
      <point x="958" y="823"/>
      <point x="877" y="724" type="curve"/>
      <point x="773" y="850"/>
      <point x="666" y="910"/>
      <point x="547" y="910" type="curve" smooth="yes"/>
      <point x="340" y="910"/>
      <point x="163" y="740"/>
      <point x="163" y="525" type="curve" smooth="yes"/>
      <point x="163" y="327"/>
      <point x="308" y="157"/>
      <point x="488" y="157" type="curve" smooth="yes"/>
      <point x="615" y="157"/>
      <point x="699" y="237"/>
      <point x="793" y="361" type="curve"/>
      <point x="890" y="216"/>
      <point x="993" y="147"/>
      <point x="1113" y="147" type="curve" smooth="yes"/>
      <point x="1307" y="147"/>
      <point x="1484" y="317"/>
      <point x="1484" y="533" type="curve" smooth="yes"/>
      <point x="1484" y="697"/>
      <point x="1384" y="845"/>
      <point x="1246" y="887" type="curve"/>
    </contour>
    <contour>
      <point x="674" y="769"/>
      <point x="750" y="726"/>
      <point x="814" y="641" type="curve"/>
      <point x="625" y="379"/>
      <point x="564" y="288"/>
      <point x="449" y="288" type="curve" smooth="yes"/>
      <point x="350" y="288"/>
      <point x="293" y="361"/>
      <point x="293" y="464" type="curve" smooth="yes"/>
      <point x="293" y="626"/>
      <point x="421" y="769"/>
      <point x="586" y="769" type="curve" smooth="yes"/>
    </contour>
    <contour>
      <point x="1298" y="769"/>
      <point x="1353" y="697"/>
      <point x="1353" y="595" type="curve" smooth="yes"/>
      <point x="1353" y="432"/>
      <point x="1227" y="288"/>
      <point x="1073" y="288" type="curve" smooth="yes"/>
      <point x="986" y="288"/>
      <point x="916" y="338"/>
      <point x="856" y="449" type="curve"/>
      <point x="1044" y="718"/>
      <point x="1107" y="769"/>
      <point x="1196" y="769" type="curve" smooth="yes"/>
    </contour>
    <contour>
      <point x="716" y="69"/>
      <point x="659" y="18"/>
      <point x="659" y="-41" type="curve" smooth="yes"/>
      <point x="659" y="-86"/>
      <point x="692" y="-122"/>
      <point x="738" y="-122" type="curve" smooth="yes"/>
      <point x="796" y="-122"/>
      <point x="854" y="-71"/>
      <point x="854" y="-11" type="curve" smooth="yes"/>
      <point x="854" y="33"/>
      <point x="821" y="69"/>
      <point x="775" y="69" type="curve" smooth="yes"/>
    </contour>
    <contour>
      <point x="1068.30677413" y="-19.0" type="move" name="blwm_matra"/>
    </contour>
    <contour>
      <point x="1251.55390961" y="1325.0" type="move" name="abvm_matra"/>
    </contour>
    <contour>
      <point x="1026.00849462" y="1600.0" type="move" name="abvm_latin"/>
    </contour>
    <contour>
      <point x="1265.16053125" y="1395.0" type="move" name="abvm_nasal"/>
    </contour>
    <contour>
      <point x="713.056196909" y="-10.0" type="move" name="blwm_mid"/>
    </contour>
    <contour>
      <point x="716.943803091" y="10.0" type="move" name="blwm_rakar"/>
    </contour>
    <contour>
      <point x="1253.4977127" y="1335.0" type="move" name="abvm_reph"/>
    </contour>
  </outline>
</glyph>
<glyph name="dSha" format="1">
  <advance width="1491"/>
  <unicode hex="0936"/>
  <outline>
    <contour>
      <point x="880" y="487"/>
      <point x="1030" y="782"/>
      <point x="1030" y="976" type="curve" smooth="yes"/>
      <point x="1030" y="1055"/>
      <point x="1008" y="1133"/>
      <point x="967" y="1197" type="curve"/>
      <point x="1357" y="1197" type="line"/>
      <point x="1128" y="19" type="line"/>
      <point x="1271" y="-19" type="line"/>
      <point x="1282" y="-12" type="line"/>
      <point x="1517" y="1197" type="line"/>
      <point x="1774" y="1197" type="line"/>
      <point x="1781" y="1206" type="line"/>
      <point x="1750" y="1330" type="line"/>
      <point x="209" y="1330" type="line"/>
      <point x="201" y="1321" type="line"/>
      <point x="233" y="1197" type="line"/>
      <point x="492" y="1197" type="line"/>
      <point x="457" y="1144"/>
      <point x="443" y="1089"/>
      <point x="443" y="1034" type="curve" smooth="yes"/>
      <point x="443" y="896"/>
      <point x="531" y="775"/>
      <point x="731" y="677" type="curve"/>
      <point x="668" y="614"/>
      <point x="588" y="555"/>
      <point x="498" y="517" type="curve"/>
      <point x="463" y="605"/>
      <point x="400" y="645"/>
      <point x="333" y="645" type="curve" smooth="yes"/>
      <point x="254" y="645"/>
      <point x="187" y="590"/>
      <point x="187" y="509" type="curve" smooth="yes"/>
      <point x="187" y="419"/>
      <point x="277" y="339"/>
      <point x="433" y="336" type="curve"/>
      <point x="515" y="50"/>
      <point x="650" y="-25"/>
      <point x="765" y="-25" type="curve" smooth="yes"/>
      <point x="871" y="-25"/>
      <point x="935" y="36"/>
      <point x="935" y="112" type="curve" smooth="yes"/>
      <point x="935" y="128"/>
      <point x="932" y="152"/>
      <point x="926" y="171" type="curve"/>
      <point x="877" y="149"/>
      <point x="831" y="135"/>
      <point x="774" y="135" type="curve" smooth="yes"/>
      <point x="666" y="135"/>
      <point x="575" y="185"/>
      <point x="529" y="355" type="curve"/>
    </contour>
    <contour>
      <point x="851" y="1205"/>
      <point x="904" y="1152"/>
      <point x="904" y="1045" type="curve" smooth="yes"/>
      <point x="904" y="953"/>
      <point x="865" y="854"/>
      <point x="793" y="752" type="curve"/>
      <point x="650" y="833"/>
      <point x="587" y="917"/>
      <point x="587" y="1012" type="curve" smooth="yes"/>
      <point x="587" y="1114"/>
      <point x="649" y="1205"/>
      <point x="768" y="1205" type="curve" smooth="yes"/>
    </contour>
    <contour>
      <point x="1278.30677413" y="-19.0" type="move" name="blwm_matra"/>
    </contour>
    <contour>
      <point x="1461.55390961" y="1325.0" type="move" name="abvm_matra"/>
    </contour>
    <contour>
      <point x="1056.00849462" y="1600.0" type="move" name="abvm_latin"/>
    </contour>
    <contour>
      <point x="1475.16053125" y="1395.0" type="move" name="abvm_nasal"/>
    </contour>
    <contour>
      <point x="1165.94380309" y="10.0" type="move" name="blwm_rakar"/>
    </contour>
    <contour>
      <point x="743.056196909" y="-10.0" type="move" name="blwm_mid"/>
    </contour>
    <contour>
      <point x="274.967283804" y="77.0" type="move" name="blwm_nukta"/>
    </contour>
    <contour>
      <point x="1463.4977127" y="1335.0" type="move" name="abvm_reph"/>
    </contour>
  </outline>
</glyph>
<glyph name="dSsa" format="1">
  <advance width="1112"/>
  <unicode hex="0937"/>
  <outline>
    <contour>
      <point x="1137" y="1197" type="line"/>
      <point x="1395" y="1197" type="line"/>
      <point x="1402" y="1206" type="line"/>
      <point x="1371" y="1330" type="line"/>
      <point x="209" y="1330" type="line"/>
      <point x="201" y="1321" type="line"/>
      <point x="233" y="1197" type="line"/>
      <point x="362" y="1197" type="line"/>
      <point x="276" y="755" type="line" smooth="yes"/>
      <point x="233" y="536"/>
      <point x="388" y="351"/>
      <point x="590" y="351" type="curve" smooth="yes"/>
      <point x="664" y="351"/>
      <point x="742" y="373"/>
      <point x="826" y="421" type="curve"/>
      <point x="748" y="19" type="line"/>
      <point x="891" y="-19" type="line"/>
      <point x="902" y="-12" type="line"/>
    </contour>
    <contour>
      <point x="526" y="1197" type="line"/>
      <point x="977" y="1197" type="line"/>
      <point x="890" y="750" type="line" smooth="yes"/>
      <point x="882" y="710"/>
      <point x="868" y="675"/>
      <point x="846" y="641" type="curve"/>
    </contour>
    <contour>
      <point x="447" y="473"/>
      <point x="394" y="541"/>
      <point x="419" y="670" type="curve" smooth="yes"/>
      <point x="490" y="1032" type="line"/>
      <point x="768" y="557" type="line"/>
      <point x="705" y="505"/>
      <point x="627" y="473"/>
      <point x="554" y="473" type="curve" smooth="yes"/>
    </contour>
    <contour>
      <point x="898.306774126" y="-19.0" type="move" name="blwm_matra"/>
    </contour>
    <contour>
      <point x="1081.55390961" y="1325.0" type="move" name="abvm_matra"/>
    </contour>
    <contour>
      <point x="867.00849462" y="1600.0" type="move" name="abvm_latin"/>
    </contour>
    <contour>
      <point x="1095.16053125" y="1395.0" type="move" name="abvm_nasal"/>
    </contour>
    <contour>
      <point x="782.943803091" y="10.0" type="move" name="blwm_rakar"/>
    </contour>
    <contour>
      <point x="404.056196909" y="-10.0" type="move" name="blwm_mid"/>
    </contour>
    <contour>
      <point x="464.967283804" y="77.0" type="move" name="blwm_nukta"/>
    </contour>
    <contour>
      <point x="1083.4977127" y="1335.0" type="move" name="abvm_reph"/>
    </contour>
  </outline>
</glyph>
<glyph name="dSa" format="1">
  <advance width="1360"/>
  <unicode hex="0938"/>
  <outline>
    <contour>
      <point x="1385" y="1197" type="line"/>
      <point x="1643" y="1197" type="line"/>
      <point x="1650" y="1206" type="line"/>
      <point x="1619" y="1330" type="line"/>
      <point x="209" y="1330" type="line"/>
      <point x="201" y="1321" type="line"/>
      <point x="233" y="1197" type="line"/>
      <point x="637" y="1197" type="line"/>
      <point x="649" y="1146"/>
      <point x="655" y="1074"/>
      <point x="655" y="1025" type="curve" smooth="yes"/>
      <point x="655" y="892"/>
      <point x="622" y="799"/>
      <point x="519" y="733" type="curve"/>
      <point x="465" y="765"/>
      <point x="408" y="779"/>
      <point x="364" y="779" type="curve" smooth="yes"/>
      <point x="263" y="779"/>
      <point x="201" y="709"/>
      <point x="201" y="621" type="curve" smooth="yes"/>
      <point x="201" y="411"/>
      <point x="471" y="-2"/>
      <point x="639" y="-2" type="curve" smooth="yes"/>
      <point x="681" y="-2"/>
      <point x="728" y="24"/>
      <point x="746" y="66" type="curve"/>
      <point x="563" y="171"/>
      <point x="437" y="293"/>
      <point x="349" y="484" type="curve"/>
      <point x="461" y="508"/>
      <point x="538" y="543"/>
      <point x="601" y="591" type="curve"/>
      <point x="700" y="540"/>
      <point x="816" y="503"/>
      <point x="921" y="503" type="curve" smooth="yes"/>
      <point x="976" y="503"/>
      <point x="1032" y="513"/>
      <point x="1097" y="542" type="curve"/>
      <point x="996" y="19" type="line"/>
      <point x="1139" y="-19" type="line"/>
      <point x="1150" y="-12" type="line"/>
    </contour>
    <contour>
      <point x="773" y="1021"/>
      <point x="759" y="1115"/>
      <point x="737" y="1197" type="curve"/>
      <point x="1225" y="1197" type="line"/>
      <point x="1153" y="830" type="line" smooth="yes"/>
      <point x="1129" y="711"/>
      <point x="1010" y="626"/>
      <point x="862" y="626" type="curve" smooth="yes"/>
      <point x="809" y="626"/>
      <point x="737" y="637"/>
      <point x="670" y="660" type="curve"/>
      <point x="725" y="726"/>
      <point x="773" y="782"/>
      <point x="773" y="943" type="curve" smooth="yes"/>
    </contour>
    <contour>
      <point x="1146.30677413" y="-19.0" type="move" name="blwm_matra"/>
    </contour>
    <contour>
      <point x="1329.55390961" y="1325.0" type="move" name="abvm_matra"/>
    </contour>
    <contour>
      <point x="991.00849462" y="1600.0" type="move" name="abvm_latin"/>
    </contour>
    <contour>
      <point x="1343.16053125" y="1395.0" type="move" name="abvm_nasal"/>
    </contour>
    <contour>
      <point x="1028.94380309" y="10.0" type="move" name="blwm_rakar"/>
    </contour>
    <contour>
      <point x="658.056196909" y="-10.0" type="move" name="blwm_mid"/>
    </contour>
    <contour>
      <point x="245.52925289" y="-23.0" type="move" name="blwm_nukta"/>
    </contour>
    <contour>
      <point x="1331.4977127" y="1335.0" type="move" name="abvm_reph"/>
    </contour>
  </outline>
</glyph>
<glyph name="dHa" format="1">
  <advance width="1006"/>
  <unicode hex="0939"/>
  <outline>
    <contour>
      <point x="1035" y="1197" type="line"/>
      <point x="1289" y="1197" type="line"/>
      <point x="1296" y="1206" type="line"/>
      <point x="1265" y="1330" type="line"/>
      <point x="209" y="1330" type="line"/>
      <point x="201" y="1321" type="line"/>
      <point x="233" y="1197" type="line"/>
      <point x="881" y="1197" type="line"/>
      <point x="847" y="1024" type="line" smooth="yes"/>
      <point x="846" y="1019"/>
      <point x="842" y="1016"/>
      <point x="837" y="1016" type="curve" smooth="yes"/>
      <point x="494" y="1016" type="line" smooth="yes"/>
      <point x="335" y="1016"/>
      <point x="253" y="918"/>
      <point x="253" y="801" type="curve" smooth="yes"/>
      <point x="253" y="729"/>
      <point x="283" y="640"/>
      <point x="348" y="579" type="curve"/>
      <point x="270" y="508"/>
      <point x="215" y="412"/>
      <point x="215" y="296" type="curve" smooth="yes"/>
      <point x="215" y="69"/>
      <point x="419" y="-123"/>
      <point x="680" y="-123" type="curve" smooth="yes"/>
      <point x="794" y="-123"/>
      <point x="841" y="-88"/>
      <point x="852" y="-32" type="curve"/>
      <point x="528" y="-32"/>
      <point x="357" y="100"/>
      <point x="357" y="265" type="curve" smooth="yes"/>
      <point x="357" y="422"/>
      <point x="502" y="556"/>
      <point x="708" y="556" type="curve" smooth="yes"/>
      <point x="818" y="556"/>
      <point x="874" y="513"/>
      <point x="874" y="450" type="curve" smooth="yes"/>
      <point x="874" y="378"/>
      <point x="812" y="313"/>
      <point x="678" y="258" type="curve"/>
      <point x="705" y="190"/>
      <point x="741" y="170"/>
      <point x="783" y="170" type="curve" smooth="yes"/>
      <point x="877" y="170"/>
      <point x="975" y="262"/>
      <point x="975" y="415" type="curve" smooth="yes"/>
      <point x="975" y="574"/>
      <point x="855" y="699"/>
      <point x="665" y="699" type="curve" smooth="yes"/>
      <point x="586" y="699"/>
      <point x="501" y="679"/>
      <point x="428" y="637" type="curve"/>
      <point x="400" y="666"/>
      <point x="384" y="704"/>
      <point x="384" y="740" type="curve" smooth="yes"/>
      <point x="384" y="803"/>
      <point x="432" y="875"/>
      <point x="549" y="875" type="curve" smooth="yes"/>
      <point x="964" y="875" type="line"/>
      <point x="974" y="883" type="line"/>
    </contour>
    <contour>
      <point x="706.868743213" y="-119.0" type="move" name="blwm_matra"/>
    </contour>
    <contour>
      <point x="979.553909607" y="1325.0" type="move" name="abvm_matra"/>
    </contour>
    <contour>
      <point x="814.00849462" y="1600.0" type="move" name="abvm_latin"/>
    </contour>
    <contour>
      <point x="993.160531247" y="1395.0" type="move" name="abvm_nasal"/>
    </contour>
    <contour>
      <point x="556" y="-87" type="move" name="blwm_rakar"/>
    </contour>
    <contour>
      <point x="601.056196909" y="-10.0" type="move" name="blwm_mid"/>
    </contour>
    <contour>
      <point x="95.5292528898" y="-23.0" type="move" name="blwm_nukta"/>
    </contour>
    <contour>
      <point x="981.497712699" y="1335.0" type="move" name="abvm_reph"/>
    </contour>
  </outline>
</glyph>
<glyph name="dNukta" format="1">
  <advance width="0"/>
  <unicode hex="093C"/>
  <outline>
    <contour>
      <point x="-45" y="72"/>
      <point x="-102" y="21"/>
      <point x="-102" y="-38" type="curve" smooth="yes"/>
      <point x="-102" y="-83"/>
      <point x="-69" y="-119"/>
      <point x="-23" y="-119" type="curve" smooth="yes"/>
      <point x="35" y="-119"/>
      <point x="93" y="-68"/>
      <point x="93" y="-8" type="curve" smooth="yes"/>
      <point x="93" y="36"/>
      <point x="60" y="72"/>
      <point x="14" y="72" type="curve" smooth="yes"/>
    </contour>
    <contour>
      <point x="-4.47074711017" y="-23.0" type="move" name="_blwm_nukta"/>
    </contour>
  </outline>
</glyph>
<glyph name="dAvagraha" format="1">
  <advance width="979"/>
  <unicode hex="093D"/>
  <outline>
    <contour>
      <point x="1073" y="1197" type="line"/>
      <point x="1080" y="1206" type="line"/>
      <point x="1049" y="1330" type="line"/>
      <point x="694" y="1330" type="line" smooth="yes"/>
      <point x="496" y="1330"/>
      <point x="354" y="1237"/>
      <point x="354" y="1071" type="curve" smooth="yes"/>
      <point x="354" y="1020"/>
      <point x="369" y="975"/>
      <point x="385" y="943" type="curve" smooth="yes"/>
      <point x="516" y="683"/>
      <point x="857" y="690"/>
      <point x="857" y="491" type="curve" smooth="yes"/>
      <point x="857" y="360"/>
      <point x="734" y="255"/>
      <point x="580" y="255" type="curve" smooth="yes"/>
      <point x="429" y="255"/>
      <point x="309" y="359"/>
      <point x="324" y="616" type="curve"/>
      <point x="258" y="605"/>
      <point x="226" y="559"/>
      <point x="226" y="473" type="curve" smooth="yes"/>
      <point x="226" y="314"/>
      <point x="348" y="99"/>
      <point x="595" y="99" type="curve" smooth="yes"/>
      <point x="820" y="99"/>
      <point x="963" y="258"/>
      <point x="963" y="453" type="curve" smooth="yes"/>
      <point x="963" y="503"/>
      <point x="953" y="561"/>
      <point x="932" y="606" type="curve" smooth="yes"/>
      <point x="824" y="837"/>
      <point x="485" y="860"/>
      <point x="485" y="1023" type="curve" smooth="yes"/>
      <point x="485" y="1112"/>
      <point x="578" y="1197"/>
      <point x="751" y="1197" type="curve" smooth="yes"/>
    </contour>
  </outline>
</glyph>
<glyph name="dIsign" format="1">
  <advance width="573"/>
  <unicode hex="093F"/>
  <outline>
    <contour>
      <point x="542" y="1906"/>
      <point x="364" y="1731"/>
      <point x="364" y="1529" type="curve" smooth="yes"/>
      <point x="364" y="1458"/>
      <point x="387" y="1389"/>
      <point x="429" y="1330" type="curve"/>
      <point x="209" y="1330" type="line"/>
      <point x="201" y="1321" type="line"/>
      <point x="233" y="1197" type="line"/>
      <point x="439" y="1197" type="line"/>
      <point x="210" y="19" type="line"/>
      <point x="353" y="-19" type="line"/>
      <point x="364" y="-12" type="line"/>
      <point x="599" y="1197" type="line"/>
      <point x="856" y="1197" type="line"/>
      <point x="863" y="1206" type="line"/>
      <point x="832" y="1330" type="line"/>
      <point x="551" y="1330" type="line"/>
      <point x="510" y="1372"/>
      <point x="491" y="1425"/>
      <point x="491" y="1477" type="curve" smooth="yes"/>
      <point x="491" y="1628"/>
      <point x="633" y="1746"/>
      <point x="879" y="1746" type="curve" smooth="yes"/>
      <point x="1181" y="1746"/>
      <point x="1474" y="1560"/>
      <point x="1612" y="1252" type="curve"/>
      <point x="1708" y="1305" type="line"/>
      <point x="1522" y="1702"/>
      <point x="1194" y="1906"/>
      <point x="859" y="1906" type="curve" smooth="yes"/>
    </contour>
    <contour>
      <point x="1537.16053125" y="1395.0" type="move" name="abvm_nasal"/>
    </contour>
  </outline>
</glyph>
<glyph name="dIisign" format="1">
  <advance width="573"/>
  <unicode hex="0940"/>
  <outline>
    <contour>
      <point x="353" y="-19" type="line"/>
      <point x="364" y="-12" type="line"/>
      <point x="599" y="1197" type="line"/>
      <point x="856" y="1197" type="line"/>
      <point x="863" y="1206" type="line"/>
      <point x="832" y="1330" type="line"/>
      <point x="588" y="1330" type="line"/>
      <point x="457" y="1788"/>
      <point x="246" y="1910"/>
      <point x="42" y="1910" type="curve" smooth="yes"/>
      <point x="-176" y="1910"/>
      <point x="-308" y="1778"/>
      <point x="-308" y="1611" type="curve" smooth="yes"/>
      <point x="-308" y="1521"/>
      <point x="-265" y="1406"/>
      <point x="-126" y="1299" type="curve"/>
      <point x="29" y="1297" type="line"/>
      <point x="-98" y="1368"/>
      <point x="-157" y="1472"/>
      <point x="-157" y="1564" type="curve" smooth="yes"/>
      <point x="-157" y="1674"/>
      <point x="-72" y="1766"/>
      <point x="75" y="1766" type="curve" smooth="yes"/>
      <point x="228" y="1766"/>
      <point x="378" y="1665"/>
      <point x="483" y="1330" type="curve"/>
      <point x="209" y="1330" type="line"/>
      <point x="201" y="1321" type="line"/>
      <point x="233" y="1197" type="line"/>
      <point x="439" y="1197" type="line"/>
      <point x="210" y="19" type="line"/>
    </contour>
    <contour>
      <point x="360.306774126" y="-19.0" type="move" name="blwm_matra"/>
    </contour>
    <contour>
      <point x="543.553909607" y="1325.0" type="move" name="abvm_matra"/>
    </contour>
    <contour>
      <point x="597.00849462" y="1600.0" type="move" name="abvm_latin"/>
    </contour>
    <contour>
      <point x="557.160531247" y="1395.0" type="move" name="abvm_nasal"/>
    </contour>
    <contour>
      <point x="287.943803091" y="10.0" type="move" name="blwm_rakar"/>
    </contour>
    <contour>
      <point x="284.056196909" y="-10.0" type="move" name="blwm_mid"/>
    </contour>
    <contour>
      <point x="-4.47074711017" y="-23.0" type="move" name="blwm_nukta"/>
    </contour>
    <contour>
      <point x="545.497712699" y="1335.0" type="move" name="abvm_reph"/>
    </contour>
  </outline>
</glyph>
<glyph name="dUsign" format="1">
  <advance width="0"/>
  <unicode hex="0941"/>
  <outline>
    <contour>
      <point x="-249" y="30"/>
      <point x="-359" y="-43"/>
      <point x="-359" y="-117" type="curve" smooth="yes"/>
      <point x="-359" y="-155"/>
      <point x="-332" y="-194"/>
      <point x="-269" y="-198" type="curve"/>
      <point x="-198" y="-126"/>
      <point x="-143" y="-97"/>
      <point x="-87" y="-97" type="curve" smooth="yes"/>
      <point x="-28" y="-97"/>
      <point x="9" y="-132"/>
      <point x="9" y="-187" type="curve" smooth="yes"/>
      <point x="9" y="-287"/>
      <point x="-93" y="-369"/>
      <point x="-244" y="-369" type="curve" smooth="yes"/>
      <point x="-425" y="-369"/>
      <point x="-542" y="-245"/>
      <point x="-602" y="-14" type="curve"/>
      <point x="-633" y="-22"/>
      <point x="-661" y="-51"/>
      <point x="-661" y="-87" type="curve" smooth="yes"/>
      <point x="-661" y="-190"/>
      <point x="-512" y="-515"/>
      <point x="-214" y="-515" type="curve" smooth="yes"/>
      <point x="-30" y="-515"/>
      <point x="113" y="-401"/>
      <point x="113" y="-227" type="curve" smooth="yes"/>
      <point x="113" y="-88"/>
      <point x="13" y="30"/>
      <point x="-130" y="30" type="curve" smooth="yes"/>
    </contour>
    <contour>
      <point x="-3.69322587362" y="-19.0" type="move" name="_blwm_matra"/>
    </contour>
  </outline>
</glyph>
<glyph name="dUusign" format="1">
  <advance width="0"/>
  <unicode hex="0942"/>
  <outline>
    <contour>
      <point x="-322" y="34"/>
      <point x="-461" y="-75"/>
      <point x="-461" y="-239" type="curve" smooth="yes"/>
      <point x="-461" y="-372"/>
      <point x="-365" y="-493"/>
      <point x="-224" y="-493" type="curve" smooth="yes"/>
      <point x="-111" y="-493"/>
      <point x="1" y="-422"/>
      <point x="1" y="-352" type="curve" smooth="yes"/>
      <point x="1" y="-314"/>
      <point x="-26" y="-275"/>
      <point x="-89" y="-271" type="curve"/>
      <point x="-156" y="-335"/>
      <point x="-215" y="-366"/>
      <point x="-269" y="-367" type="curve" smooth="yes"/>
      <point x="-325" y="-368"/>
      <point x="-357" y="-331"/>
      <point x="-357" y="-279" type="curve" smooth="yes"/>
      <point x="-357" y="-182"/>
      <point x="-264" y="-112"/>
      <point x="-129" y="-113" type="curve" smooth="yes"/>
      <point x="23" y="-114"/>
      <point x="151" y="-205"/>
      <point x="277" y="-386" type="curve"/>
      <point x="304" y="-376"/>
      <point x="317" y="-352"/>
      <point x="317" y="-337" type="curve" smooth="yes"/>
      <point x="317" y="-264"/>
      <point x="101" y="34"/>
      <point x="-152" y="34" type="curve" smooth="yes"/>
    </contour>
    <contour>
      <point x="-3.69322587362" y="-19.0" type="move" name="_blwm_matra"/>
    </contour>
  </outline>
</glyph>
<glyph name="dRvocalicsign" format="1">
  <advance width="0"/>
  <unicode hex="0943"/>
  <outline>
    <contour>
      <point x="0" y="-11" type="line"/>
      <point x="-88" y="98" type="line"/>
      <point x="-321" y="39"/>
      <point x="-412" y="-65"/>
      <point x="-412" y="-185" type="curve" smooth="yes"/>
      <point x="-412" y="-309"/>
      <point x="-311" y="-436"/>
      <point x="-138" y="-436" type="curve" smooth="yes"/>
      <point x="-10" y="-436"/>
      <point x="155" y="-373"/>
      <point x="155" y="-278" type="curve" smooth="yes"/>
      <point x="155" y="-238"/>
      <point x="129" y="-200"/>
      <point x="99" y="-189" type="curve"/>
      <point x="27" y="-252"/>
      <point x="-103" y="-318"/>
      <point x="-198" y="-318" type="curve" smooth="yes"/>
      <point x="-275" y="-318"/>
      <point x="-303" y="-271"/>
      <point x="-303" y="-228" type="curve" smooth="yes"/>
      <point x="-303" y="-161"/>
      <point x="-238" y="-83"/>
      <point x="-2" y="-22" type="curve"/>
    </contour>
    <contour>
      <point x="-3.69322587362" y="-19.0" type="move" name="_blwm_matra"/>
    </contour>
  </outline>
</glyph>
<glyph name="dRrvocalicsign" format="1">
  <advance width="0"/>
  <unicode hex="0944"/>
  <outline>
    <contour>
      <point x="14" y="-528"/>
      <point x="-105" y="-579"/>
      <point x="-179" y="-579" type="curve" smooth="yes"/>
      <point x="-226" y="-579"/>
      <point x="-253" y="-556"/>
      <point x="-253" y="-519" type="curve" smooth="yes"/>
      <point x="-253" y="-463"/>
      <point x="-213" y="-404"/>
      <point x="46" y="-292" type="curve"/>
      <point x="51" y="-281" type="line"/>
      <point x="-17" y="-182" type="line"/>
      <point x="-148" y="-260"/>
      <point x="-198" y="-286"/>
      <point x="-245" y="-286" type="curve" smooth="yes"/>
      <point x="-288" y="-286"/>
      <point x="-310" y="-263"/>
      <point x="-310" y="-229" type="curve" smooth="yes"/>
      <point x="-310" y="-184"/>
      <point x="-275" y="-93"/>
      <point x="-2" y="-22" type="curve"/>
      <point x="0" y="-11" type="line"/>
      <point x="-86" y="93" type="line"/>
      <point x="-344" y="27"/>
      <point x="-419" y="-92"/>
      <point x="-419" y="-187" type="curve" smooth="yes"/>
      <point x="-419" y="-251"/>
      <point x="-385" y="-316"/>
      <point x="-316" y="-354" type="curve"/>
      <point x="-363" y="-399"/>
      <point x="-372" y="-442"/>
      <point x="-372" y="-476" type="curve" smooth="yes"/>
      <point x="-372" y="-585"/>
      <point x="-271" y="-687"/>
      <point x="-125" y="-687" type="curve" smooth="yes"/>
      <point x="21" y="-687"/>
      <point x="150" y="-593"/>
      <point x="150" y="-515" type="curve" smooth="yes"/>
      <point x="150" y="-478"/>
      <point x="122" y="-449"/>
      <point x="88" y="-435" type="curve"/>
    </contour>
    <contour>
      <point x="-3.69322587362" y="-19.0" type="move" name="_blwm_matra"/>
    </contour>
  </outline>
</glyph>
<glyph name="dEcandrasign" format="1">
  <advance width="0"/>
  <unicode hex="0945"/>
  <outline>
    <contour>
      <point x="40" y="1863"/>
      <point x="24" y="1846"/>
      <point x="24" y="1776" type="curve" smooth="yes"/>
      <point x="24" y="1653"/>
      <point x="118" y="1486"/>
      <point x="301" y="1486" type="curve" smooth="yes"/>
      <point x="496" y="1486"/>
      <point x="664" y="1660"/>
      <point x="664" y="1780" type="curve" smooth="yes"/>
      <point x="664" y="1819"/>
      <point x="643" y="1843"/>
      <point x="592" y="1866" type="curve"/>
      <point x="517" y="1696"/>
      <point x="403" y="1619"/>
      <point x="291" y="1619" type="curve" smooth="yes"/>
      <point x="185" y="1619"/>
      <point x="106" y="1689"/>
      <point x="83" y="1884" type="curve"/>
    </contour>
    <contour>
      <point x="271.160531247" y="1395.0" type="move" name="_abvm_nasal"/>
    </contour>
  </outline>
</glyph>
<glyph name="dEshortsign" format="1">
  <advance width="0"/>
  <unicode hex="0946"/>
  <outline>
    <contour>
      <point x="184" y="1311" type="line"/>
      <point x="324" y="1311" type="line"/>
      <point x="328" y="1330" type="line"/>
      <point x="344" y="1646"/>
      <point x="177" y="1677"/>
      <point x="-119" y="1732" type="curve" smooth="yes"/>
      <point x="-331" y="1772"/>
      <point x="-445" y="1794"/>
      <point x="-507" y="1956" type="curve"/>
      <point x="-532" y="1919"/>
      <point x="-544" y="1889"/>
      <point x="-544" y="1841" type="curve" smooth="yes"/>
      <point x="-544" y="1640"/>
      <point x="-264" y="1592"/>
      <point x="-47" y="1558" type="curve" smooth="yes"/>
      <point x="123" y="1531"/>
      <point x="224" y="1514"/>
      <point x="224" y="1432" type="curve" smooth="yes"/>
      <point x="224" y="1405"/>
      <point x="211" y="1372"/>
      <point x="188" y="1330" type="curve"/>
    </contour>
    <contour>
      <point x="257.553909607" y="1325.0" type="move" name="_abvm_matra"/>
    </contour>
  </outline>
</glyph>
<glyph name="dEsign" format="1">
  <advance width="0"/>
  <unicode hex="0947"/>
  <outline>
    <contour>
      <point x="-105" y="1771"/>
      <point x="-22" y="1703"/>
      <point x="202" y="1330" type="curve"/>
      <point x="190" y="1272" type="line"/>
      <point x="306" y="1272" type="line"/>
      <point x="318" y="1330" type="line"/>
      <point x="21" y="1842"/>
      <point x="-114" y="1922"/>
      <point x="-249" y="1922" type="curve" smooth="yes"/>
      <point x="-381" y="1922"/>
      <point x="-465" y="1849"/>
      <point x="-465" y="1771" type="curve" smooth="yes"/>
      <point x="-465" y="1723"/>
      <point x="-434" y="1685"/>
      <point x="-387" y="1668" type="curve"/>
      <point x="-341" y="1735"/>
      <point x="-284" y="1771"/>
      <point x="-210" y="1771" type="curve" smooth="yes"/>
    </contour>
    <contour>
      <point x="257.553909607" y="1325.0" type="move" name="_abvm_matra"/>
    </contour>
  </outline>
</glyph>
<glyph name="dOcandrasign" format="1">
  <advance width="483"/>
  <unicode hex="0949"/>
  <outline>
    <contour>
      <point x="-8" y="1863"/>
      <point x="-24" y="1846"/>
      <point x="-24" y="1776" type="curve" smooth="yes"/>
      <point x="-24" y="1653"/>
      <point x="70" y="1486"/>
      <point x="253" y="1486" type="curve" smooth="yes"/>
      <point x="448" y="1486"/>
      <point x="616" y="1660"/>
      <point x="616" y="1780" type="curve" smooth="yes"/>
      <point x="616" y="1819"/>
      <point x="595" y="1843"/>
      <point x="544" y="1866" type="curve"/>
      <point x="469" y="1696"/>
      <point x="355" y="1619"/>
      <point x="243" y="1619" type="curve" smooth="yes"/>
      <point x="137" y="1619"/>
      <point x="58" y="1689"/>
      <point x="35" y="1884" type="curve"/>
    </contour>
    <contour>
      <point x="263" y="-19" type="line"/>
      <point x="274" y="-12" type="line"/>
      <point x="509" y="1197" type="line"/>
      <point x="766" y="1197" type="line"/>
      <point x="773" y="1206" type="line"/>
      <point x="742" y="1330" type="line"/>
      <point x="119" y="1330" type="line"/>
      <point x="111" y="1321" type="line"/>
      <point x="143" y="1197" type="line"/>
      <point x="349" y="1197" type="line"/>
      <point x="120" y="19" type="line"/>
    </contour>
  </outline>
</glyph>
<glyph name="dOshortsign" format="1">
  <advance width="573"/>
  <unicode hex="094A"/>
  <outline>
    <contour>
      <point x="863" y="1206" type="line"/>
      <point x="832" y="1330" type="line"/>
      <point x="620" y="1330" type="line"/>
      <point x="636" y="1646"/>
      <point x="464" y="1679"/>
      <point x="173" y="1732" type="curve" smooth="yes"/>
      <point x="-49" y="1772"/>
      <point x="-169" y="1794"/>
      <point x="-235" y="1956" type="curve"/>
      <point x="-260" y="1919"/>
      <point x="-272" y="1889"/>
      <point x="-272" y="1843" type="curve" smooth="yes"/>
      <point x="-272" y="1638"/>
      <point x="26" y="1591"/>
      <point x="245" y="1558" type="curve" smooth="yes"/>
      <point x="417" y="1532"/>
      <point x="516" y="1512"/>
      <point x="516" y="1431" type="curve" smooth="yes"/>
      <point x="516" y="1405"/>
      <point x="503" y="1371"/>
      <point x="480" y="1330" type="curve"/>
      <point x="209" y="1330" type="line"/>
      <point x="201" y="1321" type="line"/>
      <point x="233" y="1197" type="line"/>
      <point x="439" y="1197" type="line"/>
      <point x="210" y="19" type="line"/>
      <point x="353" y="-19" type="line"/>
      <point x="364" y="-12" type="line"/>
      <point x="599" y="1197" type="line"/>
      <point x="856" y="1197" type="line"/>
    </contour>
    <contour>
      <point x="360.306774126" y="-19.0" type="move" name="blwm_matra"/>
    </contour>
    <contour>
      <point x="543.553909607" y="1325.0" type="move" name="abvm_matra"/>
    </contour>
    <contour>
      <point x="597.00849462" y="1600.0" type="move" name="abvm_latin"/>
    </contour>
    <contour>
      <point x="557.160531247" y="1395.0" type="move" name="abvm_nasal"/>
    </contour>
    <contour>
      <point x="287.943803091" y="10.0" type="move" name="blwm_rakar"/>
    </contour>
    <contour>
      <point x="284.056196909" y="-10.0" type="move" name="blwm_mid"/>
    </contour>
    <contour>
      <point x="-4.47074711017" y="-23.0" type="move" name="blwm_nukta"/>
    </contour>
    <contour>
      <point x="545.497712699" y="1335.0" type="move" name="abvm_reph"/>
    </contour>
  </outline>
</glyph>
<glyph name="dVirama" format="1">
  <advance width="0"/>
  <unicode hex="094D"/>
  <outline>
    <contour>
      <point x="-324" y="-92"/>
      <point x="-386" y="-132"/>
      <point x="-386" y="-190" type="curve" smooth="yes"/>
      <point x="-386" y="-219"/>
      <point x="-369" y="-250"/>
      <point x="-337" y="-278" type="curve"/>
      <point x="-299" y="-268"/>
      <point x="-243" y="-257"/>
      <point x="-186" y="-257" type="curve" smooth="yes"/>
      <point x="-68" y="-257"/>
      <point x="61" y="-304"/>
      <point x="220" y="-539" type="curve"/>
      <point x="247" y="-529"/>
      <point x="260" y="-505"/>
      <point x="260" y="-490" type="curve" smooth="yes"/>
      <point x="260" y="-436"/>
      <point x="164" y="-273"/>
      <point x="16" y="-171" type="curve" smooth="yes"/>
      <point x="-78" y="-106"/>
      <point x="-156" y="-92"/>
      <point x="-218" y="-92" type="curve" smooth="yes"/>
    </contour>
    <contour>
      <point x="-3.69322587362" y="-19.0" type="move" name="_blwm_matra"/>
    </contour>
  </outline>
</glyph>
<glyph name="dEprishthamatrasign" format="1">
  <advance width="573"/>
  <unicode hex="094E"/>
  <outline>
    <contour>
      <point x="353" y="-19" type="line"/>
      <point x="364" y="-12" type="line"/>
      <point x="599" y="1197" type="line"/>
      <point x="856" y="1197" type="line"/>
      <point x="863" y="1206" type="line"/>
      <point x="832" y="1330" type="line"/>
      <point x="465" y="1330" type="line"/>
      <point x="210" y="19" type="line"/>
    </contour>
    <contour>
      <point x="360.306774126" y="-19.0" type="move" name="blwm_matra"/>
    </contour>
    <contour>
      <point x="543.553909607" y="1325.0" type="move" name="abvm_matra"/>
    </contour>
    <contour>
      <point x="597.00849462" y="1600.0" type="move" name="abvm_latin"/>
    </contour>
    <contour>
      <point x="557.160531247" y="1395.0" type="move" name="abvm_nasal"/>
    </contour>
    <contour>
      <point x="287.943803091" y="10.0" type="move" name="blwm_rakar"/>
    </contour>
    <contour>
      <point x="284.056196909" y="-10.0" type="move" name="blwm_mid"/>
    </contour>
    <contour>
      <point x="-4.47074711017" y="-23.0" type="move" name="blwm_nukta"/>
    </contour>
    <contour>
      <point x="545.497712699" y="1335.0" type="move" name="abvm_reph"/>
    </contour>
  </outline>
</glyph>
<glyph name="dOm" format="1">
  <advance width="1788"/>
  <unicode hex="0950"/>
  <outline>
    <contour>
      <point x="1464" y="1369"/>
      <point x="1523" y="1421"/>
      <point x="1523" y="1482" type="curve" smooth="yes"/>
      <point x="1523" y="1527"/>
      <point x="1490" y="1564"/>
      <point x="1442" y="1564" type="curve" smooth="yes"/>
      <point x="1383" y="1564"/>
      <point x="1324" y="1512"/>
      <point x="1324" y="1452" type="curve" smooth="yes"/>
      <point x="1324" y="1406"/>
      <point x="1357" y="1369"/>
      <point x="1404" y="1369" type="curve" smooth="yes"/>
    </contour>
    <contour>
      <point x="1124" y="1473"/>
      <point x="1107" y="1456"/>
      <point x="1107" y="1387" type="curve" smooth="yes"/>
      <point x="1107" y="1263"/>
      <point x="1202" y="1096"/>
      <point x="1394" y="1096" type="curve" smooth="yes"/>
      <point x="1586" y="1096"/>
      <point x="1747" y="1249"/>
      <point x="1747" y="1377" type="curve" smooth="yes"/>
      <point x="1747" y="1424"/>
      <point x="1726" y="1451"/>
      <point x="1675" y="1476" type="curve"/>
      <point x="1602" y="1306"/>
      <point x="1492" y="1229"/>
      <point x="1384" y="1229" type="curve" smooth="yes"/>
      <point x="1274" y="1229"/>
      <point x="1192" y="1299"/>
      <point x="1166" y="1494" type="curve"/>
    </contour>
    <contour>
      <point x="1310" y="573"/>
      <point x="1304" y="560"/>
      <point x="1304" y="536" type="curve" smooth="yes"/>
      <point x="1304" y="451"/>
      <point x="1378" y="339"/>
      <point x="1529" y="339" type="curve" smooth="yes"/>
      <point x="1712" y="339"/>
      <point x="1869" y="489"/>
      <point x="1869" y="695" type="curve" smooth="yes"/>
      <point x="1869" y="882"/>
      <point x="1735" y="1023"/>
      <point x="1589" y="1023" type="curve" smooth="yes"/>
      <point x="1351" y="1023"/>
      <point x="1263" y="671"/>
      <point x="1042" y="671" type="curve" smooth="yes"/>
      <point x="1007" y="671"/>
      <point x="955" y="680"/>
      <point x="918" y="719" type="curve"/>
      <point x="1023" y="791"/>
      <point x="1086" y="887"/>
      <point x="1086" y="1019" type="curve" smooth="yes"/>
      <point x="1086" y="1198"/>
      <point x="952" y="1325"/>
      <point x="741" y="1325" type="curve" smooth="yes"/>
      <point x="524" y="1325"/>
      <point x="392" y="1204"/>
      <point x="392" y="1097" type="curve" smooth="yes"/>
      <point x="392" y="1036"/>
      <point x="438" y="997"/>
      <point x="517" y="997" type="curve"/>
      <point x="541" y="1121"/>
      <point x="642" y="1214"/>
      <point x="784" y="1214" type="curve" smooth="yes"/>
      <point x="884" y="1214"/>
      <point x="950" y="1164"/>
      <point x="950" y="1065" type="curve" smooth="yes"/>
      <point x="950" y="898"/>
      <point x="820" y="786"/>
      <point x="507" y="769" type="curve"/>
      <point x="500" y="759" type="line"/>
      <point x="550" y="602" type="line"/>
      <point x="641" y="612"/>
      <point x="727" y="631"/>
      <point x="802" y="660" type="curve"/>
      <point x="856" y="624"/>
      <point x="887" y="554"/>
      <point x="887" y="479" type="curve" smooth="yes"/>
      <point x="887" y="328"/>
      <point x="762" y="214"/>
      <point x="590" y="214" type="curve" smooth="yes"/>
      <point x="391" y="214"/>
      <point x="260" y="375"/>
      <point x="269" y="746" type="curve"/>
      <point x="191" y="738"/>
      <point x="170" y="709"/>
      <point x="170" y="583" type="curve" smooth="yes"/>
      <point x="170" y="389"/>
      <point x="276" y="52"/>
      <point x="600" y="52" type="curve" smooth="yes"/>
      <point x="843" y="52"/>
      <point x="1012" y="216"/>
      <point x="1012" y="436" type="curve" smooth="yes"/>
      <point x="1012" y="479"/>
      <point x="1005" y="526"/>
      <point x="992" y="563" type="curve"/>
      <point x="1028" y="542"/>
      <point x="1067" y="530"/>
      <point x="1107" y="530" type="curve" smooth="yes"/>
      <point x="1329" y="530"/>
      <point x="1455" y="883"/>
      <point x="1637" y="883" type="curve" smooth="yes"/>
      <point x="1704" y="883"/>
      <point x="1747" y="830"/>
      <point x="1747" y="749" type="curve" smooth="yes"/>
      <point x="1747" y="606"/>
      <point x="1630" y="482"/>
      <point x="1501" y="482" type="curve" smooth="yes"/>
      <point x="1442" y="482"/>
      <point x="1385" y="501"/>
      <point x="1317" y="587" type="curve"/>
    </contour>
  </outline>
</glyph>
<glyph name="dUdatta" format="1">
  <advance width="0"/>
  <unicode hex="0951"/>
  <outline>
    <contour>
      <point x="351" y="1481" type="line"/>
      <point x="361" y="1488" type="line"/>
      <point x="445" y="1917" type="line"/>
      <point x="316" y="1945" type="line"/>
      <point x="306" y="1938" type="line"/>
      <point x="222" y="1509" type="line"/>
    </contour>
    <contour>
      <point x="257.553909607" y="1325.0" type="move" name="_abvm_matra"/>
    </contour>
  </outline>
</glyph>
<glyph name="dAnudatta" format="1">
  <advance width="0"/>
  <unicode hex="0952"/>
  <outline>
    <contour>
      <point x="-577" y="-293" type="line"/>
      <point x="-17" y="-293" type="line"/>
      <point x="-9" y="-284" type="line"/>
      <point x="-35" y="-180" type="line"/>
      <point x="-595" y="-180" type="line"/>
      <point x="-603" y="-189" type="line"/>
    </contour>
    <contour>
      <point x="-3.69322587362" y="-19.0" type="move" name="_blwm_matra"/>
    </contour>
  </outline>
</glyph>
<glyph name="dGrave" format="1">
  <advance width="0"/>
  <unicode hex="0953"/>
  <outline>
    <contour>
      <point x="392" y="1497" type="line"/>
      <point x="491" y="1552" type="line"/>
      <point x="495" y="1564" type="line"/>
      <point x="261" y="1930" type="line"/>
      <point x="162" y="1875" type="line"/>
      <point x="158" y="1863" type="line"/>
    </contour>
    <contour>
      <point x="311.00849462" y="1600.0" type="move" name="_abvm_latin"/>
    </contour>
  </outline>
</glyph>
<glyph name="dUesign" format="1">
  <advance width="0"/>
  <unicode hex="0956"/>
  <outline>
    <contour>
      <point x="-492" y="-116"/>
      <point x="-510" y="-132"/>
      <point x="-510" y="-164" type="curve" smooth="yes"/>
      <point x="-510" y="-260"/>
      <point x="-356" y="-441"/>
      <point x="-98" y="-441" type="curve" smooth="yes"/>
      <point x="127" y="-441"/>
      <point x="319" y="-311"/>
      <point x="319" y="-198" type="curve" smooth="yes"/>
      <point x="319" y="-159"/>
      <point x="297" y="-126"/>
      <point x="255" y="-110" type="curve"/>
      <point x="163" y="-238"/>
      <point x="20" y="-311"/>
      <point x="-127" y="-311" type="curve" smooth="yes"/>
      <point x="-271" y="-311"/>
      <point x="-399" y="-241"/>
      <point x="-473" y="-104" type="curve"/>
    </contour>
    <contour>
      <point x="-1.94380309138" y="-10.0" type="move" name="_blwm_mid"/>
    </contour>
  </outline>
</glyph>
<glyph name="dUuesign" format="1">
  <advance width="0"/>
  <unicode hex="0957"/>
  <outline>
    <contour>
      <point x="-492" y="-116"/>
      <point x="-510" y="-132"/>
      <point x="-510" y="-164" type="curve" smooth="yes"/>
      <point x="-510" y="-260"/>
      <point x="-356" y="-441"/>
      <point x="-98" y="-441" type="curve" smooth="yes"/>
      <point x="127" y="-441"/>
      <point x="319" y="-311"/>
      <point x="319" y="-198" type="curve" smooth="yes"/>
      <point x="319" y="-159"/>
      <point x="297" y="-126"/>
      <point x="255" y="-110" type="curve"/>
      <point x="163" y="-238"/>
      <point x="20" y="-311"/>
      <point x="-127" y="-311" type="curve" smooth="yes"/>
      <point x="-271" y="-311"/>
      <point x="-399" y="-241"/>
      <point x="-473" y="-104" type="curve"/>
    </contour>
    <contour>
      <point x="112" y="-704"/>
      <point x="258" y="-608"/>
      <point x="258" y="-512" type="curve" smooth="yes"/>
      <point x="258" y="-484"/>
      <point x="246" y="-456"/>
      <point x="219" y="-439" type="curve"/>
      <point x="139" y="-523"/>
      <point x="25" y="-573"/>
      <point x="-117" y="-573" type="curve" smooth="yes"/>
      <point x="-305" y="-573"/>
      <point x="-448" y="-486"/>
      <point x="-522" y="-354" type="curve"/>
      <point x="-543" y="-367"/>
      <point x="-558" y="-384"/>
      <point x="-558" y="-413" type="curve" smooth="yes"/>
      <point x="-558" y="-510"/>
      <point x="-391" y="-704"/>
      <point x="-99" y="-704" type="curve" smooth="yes"/>
    </contour>
    <contour>
      <point x="-1.94380309138" y="-10.0" type="move" name="_blwm_mid"/>
    </contour>
  </outline>
</glyph>
<glyph name="dGhha" format="1">
  <advance width="1241"/>
  <unicode hex="095A"/>
  <outline>
    <contour>
      <point x="1267" y="1197" type="line"/>
      <point x="1524" y="1197" type="line"/>
      <point x="1531" y="1206" type="line"/>
      <point x="1500" y="1330" type="line"/>
      <point x="209" y="1330" type="line"/>
      <point x="201" y="1321" type="line"/>
      <point x="233" y="1197" type="line"/>
      <point x="517" y="1197" type="line"/>
      <point x="413" y="666" type="line"/>
      <point x="298" y="666" type="line" smooth="yes"/>
      <point x="235" y="666"/>
      <point x="207" y="633"/>
      <point x="207" y="599" type="curve" smooth="yes"/>
      <point x="207" y="521"/>
      <point x="321" y="363"/>
      <point x="421" y="363" type="curve" smooth="yes"/>
      <point x="480" y="363"/>
      <point x="520" y="416"/>
      <point x="541" y="524" type="curve" smooth="yes"/>
      <point x="672" y="1197" type="line"/>
      <point x="1107" y="1197" type="line"/>
      <point x="878" y="19" type="line"/>
      <point x="1021" y="-19" type="line"/>
      <point x="1032" y="-12" type="line"/>
    </contour>
    <contour>
      <point x="486" y="172"/>
      <point x="429" y="121"/>
      <point x="429" y="62" type="curve" smooth="yes"/>
      <point x="429" y="17"/>
      <point x="462" y="-19"/>
      <point x="508" y="-19" type="curve" smooth="yes"/>
      <point x="566" y="-19"/>
      <point x="624" y="32"/>
      <point x="624" y="92" type="curve" smooth="yes"/>
      <point x="624" y="136"/>
      <point x="591" y="172"/>
      <point x="545" y="172" type="curve" smooth="yes"/>
    </contour>
    <contour>
      <point x="1028.30677413" y="-19.0" type="move" name="blwm_matra"/>
    </contour>
    <contour>
      <point x="1211.55390961" y="1325.0" type="move" name="abvm_matra"/>
    </contour>
    <contour>
      <point x="931.00849462" y="1600.0" type="move" name="abvm_latin"/>
    </contour>
    <contour>
      <point x="1225.16053125" y="1395.0" type="move" name="abvm_nasal"/>
    </contour>
    <contour>
      <point x="518.056196909" y="-10.0" type="move" name="blwm_mid"/>
    </contour>
    <contour>
      <point x="915.943803091" y="10.0" type="move" name="blwm_rakar"/>
    </contour>
    <contour>
      <point x="1213.4977127" y="1335.0" type="move" name="abvm_reph"/>
    </contour>
  </outline>
</glyph>
<glyph name="dFa" format="1">
  <advance width="1480"/>
  <unicode hex="095E"/>
  <outline>
    <contour>
      <point x="1515" y="838"/>
      <point x="1397" y="942"/>
      <point x="1248" y="942" type="curve" smooth="yes"/>
      <point x="1164" y="942"/>
      <point x="1085" y="912"/>
      <point x="1009" y="849" type="curve"/>
      <point x="1077" y="1197" type="line"/>
      <point x="1763" y="1197" type="line"/>
      <point x="1770" y="1206" type="line"/>
      <point x="1739" y="1330" type="line"/>
      <point x="209" y="1330" type="line"/>
      <point x="201" y="1321" type="line"/>
      <point x="233" y="1197" type="line"/>
      <point x="362" y="1197" type="line"/>
      <point x="274" y="745" type="line" smooth="yes"/>
      <point x="233" y="536"/>
      <point x="374" y="361"/>
      <point x="564" y="361" type="curve" smooth="yes"/>
      <point x="623" y="361"/>
      <point x="690" y="378"/>
      <point x="765" y="417" type="curve"/>
      <point x="688" y="19" type="line"/>
      <point x="831" y="-19" type="line"/>
      <point x="842" y="-12" type="line"/>
      <point x="945" y="518" type="line" smooth="yes"/>
      <point x="979" y="694"/>
      <point x="1161" y="815"/>
      <point x="1286" y="815" type="curve" smooth="yes"/>
      <point x="1360" y="815"/>
      <point x="1402" y="769"/>
      <point x="1402" y="688" type="curve" smooth="yes"/>
      <point x="1402" y="554"/>
      <point x="1294" y="397"/>
      <point x="1122" y="317" type="curve"/>
      <point x="1143" y="266"/>
      <point x="1188" y="230"/>
      <point x="1240" y="230" type="curve" smooth="yes"/>
      <point x="1354" y="230"/>
      <point x="1515" y="389"/>
      <point x="1515" y="641" type="curve" smooth="yes"/>
    </contour>
    <contour>
      <point x="522" y="1197" type="line"/>
      <point x="917" y="1197" type="line"/>
      <point x="824" y="720" type="line" smooth="yes"/>
      <point x="798" y="588"/>
      <point x="652" y="483"/>
      <point x="529" y="483" type="curve" smooth="yes"/>
      <point x="436" y="483"/>
      <point x="394" y="543"/>
      <point x="417" y="660" type="curve" smooth="yes"/>
    </contour>
    <contour>
      <point x="336" y="172"/>
      <point x="279" y="121"/>
      <point x="279" y="62" type="curve" smooth="yes"/>
      <point x="279" y="17"/>
      <point x="312" y="-19"/>
      <point x="358" y="-19" type="curve" smooth="yes"/>
      <point x="416" y="-19"/>
      <point x="474" y="32"/>
      <point x="474" y="92" type="curve" smooth="yes"/>
      <point x="474" y="136"/>
      <point x="441" y="172"/>
      <point x="395" y="172" type="curve" smooth="yes"/>
    </contour>
    <contour>
      <point x="838.306774126" y="-19.0" type="move" name="blwm_matra"/>
    </contour>
    <contour>
      <point x="1021.55390961" y="1325.0" type="move" name="abvm_matra"/>
    </contour>
    <contour>
      <point x="1051.00849462" y="1600.0" type="move" name="abvm_latin"/>
    </contour>
    <contour>
      <point x="1035.16053125" y="1395.0" type="move" name="abvm_nasal"/>
    </contour>
    <contour>
      <point x="741.943803091" y="10.0" type="move" name="blwm_rakar"/>
    </contour>
    <contour>
      <point x="738.056196909" y="-10.0" type="move" name="blwm_mid"/>
    </contour>
    <contour>
      <point x="-4.47074711017" y="-23.0" type="move" name="blwm_nukta"/>
    </contour>
    <contour>
      <point x="1023.4977127" y="1335.0" type="move" name="abvm_reph"/>
    </contour>
  </outline>
</glyph>
<glyph name="dYya" format="1">
  <advance width="1248"/>
  <unicode hex="095F"/>
  <outline>
    <contour>
      <point x="1039" y="-12" type="line"/>
      <point x="1274" y="1197" type="line"/>
      <point x="1531" y="1197" type="line"/>
      <point x="1538" y="1206" type="line"/>
      <point x="1507" y="1330" type="line"/>
      <point x="209" y="1330" type="line"/>
      <point x="201" y="1321" type="line"/>
      <point x="233" y="1197" type="line"/>
      <point x="572" y="1197" type="line"/>
      <point x="581" y="1167"/>
      <point x="587" y="1118"/>
      <point x="587" y="1077" type="curve" smooth="yes"/>
      <point x="587" y="920"/>
      <point x="526" y="828"/>
      <point x="233" y="750" type="curve"/>
      <point x="226" y="740" type="line"/>
      <point x="333" y="403"/>
      <point x="506" y="261"/>
      <point x="709" y="261" type="curve" smooth="yes"/>
      <point x="793" y="261"/>
      <point x="867" y="285"/>
      <point x="946" y="334" type="curve"/>
      <point x="885" y="19" type="line"/>
      <point x="1028" y="-19" type="line"/>
    </contour>
    <contour>
      <point x="709" y="1055"/>
      <point x="695" y="1134"/>
      <point x="673" y="1197" type="curve"/>
      <point x="1114" y="1197" type="line"/>
      <point x="1015" y="690" type="line" smooth="yes"/>
      <point x="984" y="528"/>
      <point x="823" y="421"/>
      <point x="671" y="421" type="curve" smooth="yes"/>
      <point x="562" y="421"/>
      <point x="450" y="476"/>
      <point x="389" y="628" type="curve"/>
      <point x="599" y="699"/>
      <point x="709" y="809"/>
      <point x="709" y="989" type="curve" smooth="yes"/>
    </contour>
    <contour>
      <point x="286" y="172"/>
      <point x="229" y="121"/>
      <point x="229" y="62" type="curve" smooth="yes"/>
      <point x="229" y="17"/>
      <point x="262" y="-19"/>
      <point x="308" y="-19" type="curve" smooth="yes"/>
      <point x="366" y="-19"/>
      <point x="424" y="32"/>
      <point x="424" y="92" type="curve" smooth="yes"/>
      <point x="424" y="136"/>
      <point x="391" y="172"/>
      <point x="345" y="172" type="curve" smooth="yes"/>
    </contour>
    <contour>
      <point x="1035.30677413" y="-19.0" type="move" name="blwm_matra"/>
    </contour>
    <contour>
      <point x="1218.55390961" y="1325.0" type="move" name="abvm_matra"/>
    </contour>
    <contour>
      <point x="935.00849462" y="1600.0" type="move" name="abvm_latin"/>
    </contour>
    <contour>
      <point x="1232.16053125" y="1395.0" type="move" name="abvm_nasal"/>
    </contour>
    <contour>
      <point x="622.056196909" y="-10.0" type="move" name="blwm_mid"/>
    </contour>
    <contour>
      <point x="925.943803091" y="10.0" type="move" name="blwm_rakar"/>
    </contour>
    <contour>
      <point x="1220.4977127" y="1335.0" type="move" name="abvm_reph"/>
    </contour>
  </outline>
</glyph>
<glyph name="dRrvocalic" format="1">
  <advance width="1771"/>
  <unicode hex="0960"/>
  <outline>
    <contour>
      <point x="1187" y="1197" type="line"/>
      <point x="2054" y="1197" type="line"/>
      <point x="2061" y="1206" type="line"/>
      <point x="2030" y="1330" type="line"/>
      <point x="209" y="1330" type="line"/>
      <point x="201" y="1321" type="line"/>
      <point x="233" y="1197" type="line"/>
      <point x="1027" y="1197" type="line"/>
      <point x="942" y="763" type="line"/>
      <point x="699" y="976"/>
      <point x="627" y="1019"/>
      <point x="522" y="1019" type="curve" smooth="yes"/>
      <point x="361" y="1019"/>
      <point x="259" y="920"/>
      <point x="259" y="844" type="curve" smooth="yes"/>
      <point x="259" y="802"/>
      <point x="286" y="760"/>
      <point x="335" y="725" type="curve"/>
      <point x="410" y="823"/>
      <point x="489" y="879"/>
      <point x="563" y="879" type="curve" smooth="yes"/>
      <point x="637" y="879"/>
      <point x="718" y="824"/>
      <point x="874" y="686" type="curve"/>
      <point x="645" y="553"/>
      <point x="459" y="427"/>
      <point x="277" y="288" type="curve"/>
      <point x="275" y="276" type="line"/>
      <point x="374" y="158" type="line"/>
      <point x="542" y="289"/>
      <point x="694" y="397"/>
      <point x="895" y="522" type="curve"/>
      <point x="798" y="19" type="line"/>
      <point x="941" y="-19" type="line"/>
      <point x="952" y="-12" type="line"/>
      <point x="1064" y="567" type="line"/>
      <point x="1202" y="573"/>
      <point x="1335" y="613"/>
      <point x="1441" y="669" type="curve"/>
      <point x="1456" y="617"/>
      <point x="1471" y="572"/>
      <point x="1486" y="528" type="curve"/>
      <point x="1304" y="430"/>
      <point x="1238" y="359"/>
      <point x="1238" y="252" type="curve" smooth="yes"/>
      <point x="1238" y="125"/>
      <point x="1342" y="-10"/>
      <point x="1507" y="-10" type="curve" smooth="yes"/>
      <point x="1650" y="-10"/>
      <point x="1778" y="83"/>
      <point x="1778" y="169" type="curve" smooth="yes"/>
      <point x="1778" y="216"/>
      <point x="1743" y="255"/>
      <point x="1713" y="267" type="curve"/>
      <point x="1644" y="186"/>
      <point x="1521" y="123"/>
      <point x="1443" y="123" type="curve" smooth="yes"/>
      <point x="1391" y="123"/>
      <point x="1355" y="153"/>
      <point x="1355" y="200" type="curve" smooth="yes"/>
      <point x="1355" y="261"/>
      <point x="1400" y="321"/>
      <point x="1619" y="438" type="curve"/>
      <point x="1623" y="446" type="line"/>
      <point x="1591" y="527"/>
      <point x="1561" y="617"/>
      <point x="1529" y="725" type="curve"/>
      <point x="1605" y="783"/>
      <point x="1652" y="846"/>
      <point x="1652" y="911" type="curve" smooth="yes"/>
      <point x="1652" y="981"/>
      <point x="1601" y="1045"/>
      <point x="1519" y="1045" type="curve" smooth="yes"/>
      <point x="1432" y="1045"/>
      <point x="1371" y="980"/>
      <point x="1371" y="906" type="curve" smooth="yes"/>
      <point x="1371" y="878"/>
      <point x="1378" y="843"/>
      <point x="1393" y="808" type="curve"/>
      <point x="1302" y="753"/>
      <point x="1205" y="722"/>
      <point x="1093" y="713" type="curve"/>
    </contour>
  </outline>
</glyph>
<glyph name="dLlvocalic" format="1">
  <advance width="1411"/>
  <unicode hex="0961"/>
  <outline>
    <contour>
      <point x="1326" y="-234"/>
      <point x="1199" y="-291"/>
      <point x="1122" y="-291" type="curve" smooth="yes"/>
      <point x="1081" y="-291"/>
      <point x="1052" y="-274"/>
      <point x="1052" y="-239" type="curve" smooth="yes"/>
      <point x="1052" y="-194"/>
      <point x="1086" y="-125"/>
      <point x="1353" y="-4" type="curve"/>
      <point x="1358" y="7" type="line"/>
      <point x="1290" y="106" type="line"/>
      <point x="1164" y="38"/>
      <point x="1098" y="10"/>
      <point x="1051" y="10" type="curve" smooth="yes"/>
      <point x="1011" y="10"/>
      <point x="996" y="31"/>
      <point x="996" y="54" type="curve" smooth="yes"/>
      <point x="996" y="113"/>
      <point x="1085" y="169"/>
      <point x="1247" y="302" type="curve" smooth="yes"/>
      <point x="1348" y="385"/>
      <point x="1435" y="457"/>
      <point x="1435" y="614" type="curve" smooth="yes"/>
      <point x="1435" y="751"/>
      <point x="1357" y="864"/>
      <point x="1248" y="897" type="curve"/>
      <point x="1307" y="1197" type="line"/>
      <point x="1694" y="1197" type="line"/>
      <point x="1701" y="1206" type="line"/>
      <point x="1670" y="1330" type="line"/>
      <point x="209" y="1330" type="line"/>
      <point x="201" y="1321" type="line"/>
      <point x="233" y="1197" type="line"/>
      <point x="1157" y="1197" type="line"/>
      <point x="1099" y="901" type="line"/>
      <point x="1023" y="883"/>
      <point x="933" y="838"/>
      <point x="850" y="758" type="curve"/>
      <point x="753" y="882"/>
      <point x="668" y="924"/>
      <point x="565" y="924" type="curve" smooth="yes"/>
      <point x="356" y="924"/>
      <point x="215" y="764"/>
      <point x="215" y="550" type="curve" smooth="yes"/>
      <point x="215" y="269"/>
      <point x="448" y="-8"/>
      <point x="551" y="-8" type="curve" smooth="yes"/>
      <point x="577" y="-8"/>
      <point x="604" y="9"/>
      <point x="618" y="34" type="curve"/>
      <point x="445" y="174"/>
      <point x="363" y="371"/>
      <point x="363" y="518" type="curve" smooth="yes"/>
      <point x="363" y="674"/>
      <point x="469" y="788"/>
      <point x="596" y="788" type="curve" smooth="yes"/>
      <point x="663" y="788"/>
      <point x="724" y="755"/>
      <point x="778" y="682" type="curve"/>
      <point x="739" y="635"/>
      <point x="703" y="583"/>
      <point x="669" y="522" type="curve"/>
      <point x="786" y="438" type="line"/>
      <point x="797" y="441" type="line"/>
      <point x="940" y="675"/>
      <point x="1092" y="771"/>
      <point x="1207" y="771" type="curve" smooth="yes"/>
      <point x="1278" y="771"/>
      <point x="1325" y="731"/>
      <point x="1325" y="662" type="curve" smooth="yes"/>
      <point x="1325" y="575"/>
      <point x="1264" y="495"/>
      <point x="1099" y="363" type="curve" smooth="yes"/>
      <point x="968" y="258"/>
      <point x="878" y="211"/>
      <point x="878" y="101" type="curve" smooth="yes"/>
      <point x="878" y="32"/>
      <point x="920" y="-32"/>
      <point x="990" y="-67" type="curve"/>
      <point x="943" y="-116"/>
      <point x="934" y="-150"/>
      <point x="934" y="-190" type="curve" smooth="yes"/>
      <point x="934" y="-300"/>
      <point x="1033" y="-399"/>
      <point x="1180" y="-399" type="curve" smooth="yes"/>
      <point x="1330" y="-399"/>
      <point x="1457" y="-305"/>
      <point x="1457" y="-227" type="curve" smooth="yes"/>
      <point x="1457" y="-189"/>
      <point x="1428" y="-160"/>
      <point x="1395" y="-147" type="curve"/>
    </contour>
  </outline>
</glyph>
<glyph name="dLvocalicsign" format="1">
  <advance width="0"/>
  <unicode hex="0962"/>
  <outline>
    <contour>
      <point x="-471" y="-70"/>
      <point x="-564" y="-168"/>
      <point x="-564" y="-300" type="curve" smooth="yes"/>
      <point x="-564" y="-470"/>
      <point x="-417" y="-637"/>
      <point x="-353" y="-637" type="curve" smooth="yes"/>
      <point x="-333" y="-637"/>
      <point x="-310" y="-622"/>
      <point x="-300" y="-601" type="curve"/>
      <point x="-406" y="-521"/>
      <point x="-462" y="-403"/>
      <point x="-462" y="-319" type="curve" smooth="yes"/>
      <point x="-462" y="-233"/>
      <point x="-399" y="-175"/>
      <point x="-320" y="-175" type="curve" smooth="yes"/>
      <point x="-280" y="-175"/>
      <point x="-241" y="-191"/>
      <point x="-206" y="-224" type="curve"/>
      <point x="-234" y="-264"/>
      <point x="-260" y="-316"/>
      <point x="-282" y="-380" type="curve"/>
      <point x="-194" y="-431" type="line"/>
      <point x="-182" y="-425" type="line"/>
      <point x="-109" y="-219"/>
      <point x="1" y="-176"/>
      <point x="65" y="-176" type="curve" smooth="yes"/>
      <point x="106" y="-176"/>
      <point x="130" y="-195"/>
      <point x="130" y="-235" type="curve" smooth="yes"/>
      <point x="130" y="-298"/>
      <point x="82" y="-348"/>
      <point x="-6" y="-431" type="curve" smooth="yes"/>
      <point x="-71" y="-492"/>
      <point x="-142" y="-556"/>
      <point x="-142" y="-619" type="curve" smooth="yes"/>
      <point x="-142" y="-689"/>
      <point x="-71" y="-772"/>
      <point x="30" y="-772" type="curve" smooth="yes"/>
      <point x="117" y="-772"/>
      <point x="198" y="-715"/>
      <point x="198" y="-659" type="curve" smooth="yes"/>
      <point x="198" y="-627"/>
      <point x="173" y="-599"/>
      <point x="149" y="-590" type="curve"/>
      <point x="103" y="-655"/>
      <point x="25" y="-688"/>
      <point x="-20" y="-688" type="curve" smooth="yes"/>
      <point x="-43" y="-688"/>
      <point x="-56" y="-678"/>
      <point x="-56" y="-661" type="curve" smooth="yes"/>
      <point x="-56" y="-619"/>
      <point x="18" y="-565"/>
      <point x="98" y="-486" type="curve" smooth="yes"/>
      <point x="175" y="-410"/>
      <point x="210" y="-371"/>
      <point x="210" y="-276" type="curve" smooth="yes"/>
      <point x="210" y="-160"/>
      <point x="135" y="-80"/>
      <point x="36" y="-80" type="curve" smooth="yes"/>
      <point x="-12" y="-80"/>
      <point x="-86" y="-98"/>
      <point x="-154" y="-163" type="curve"/>
      <point x="-216" y="-93"/>
      <point x="-273" y="-70"/>
      <point x="-336" y="-70" type="curve" smooth="yes"/>
    </contour>
    <contour>
      <point x="-3.69322587362" y="-19.0" type="move" name="_blwm_matra"/>
    </contour>
  </outline>
</glyph>
<glyph name="dLlvocalicsign" format="1">
  <advance width="0"/>
  <unicode hex="0963"/>
  <outline>
    <contour>
      <point x="-471" y="-70"/>
      <point x="-564" y="-168"/>
      <point x="-564" y="-300" type="curve" smooth="yes"/>
      <point x="-564" y="-470"/>
      <point x="-417" y="-637"/>
      <point x="-353" y="-637" type="curve" smooth="yes"/>
      <point x="-333" y="-637"/>
      <point x="-310" y="-622"/>
      <point x="-300" y="-601" type="curve"/>
      <point x="-406" y="-521"/>
      <point x="-462" y="-403"/>
      <point x="-462" y="-319" type="curve" smooth="yes"/>
      <point x="-462" y="-233"/>
      <point x="-399" y="-175"/>
      <point x="-320" y="-175" type="curve" smooth="yes"/>
      <point x="-280" y="-175"/>
      <point x="-241" y="-191"/>
      <point x="-206" y="-224" type="curve"/>
      <point x="-234" y="-264"/>
      <point x="-260" y="-316"/>
      <point x="-282" y="-380" type="curve"/>
      <point x="-191" y="-421" type="line"/>
      <point x="-180" y="-415" type="line"/>
      <point x="-108" y="-217"/>
      <point x="1" y="-176"/>
      <point x="65" y="-176" type="curve" smooth="yes"/>
      <point x="106" y="-176"/>
      <point x="130" y="-195"/>
      <point x="130" y="-234" type="curve" smooth="yes"/>
      <point x="130" y="-311"/>
      <point x="67" y="-346"/>
      <point x="-22" y="-411" type="curve" smooth="yes"/>
      <point x="-122" y="-484"/>
      <point x="-155" y="-519"/>
      <point x="-155" y="-583" type="curve" smooth="yes"/>
      <point x="-155" y="-634"/>
      <point x="-125" y="-676"/>
      <point x="-81" y="-699" type="curve"/>
      <point x="-104" y="-727"/>
      <point x="-117" y="-745"/>
      <point x="-117" y="-780" type="curve" smooth="yes"/>
      <point x="-117" y="-852"/>
      <point x="-51" y="-936"/>
      <point x="53" y="-936" type="curve" smooth="yes"/>
      <point x="139" y="-936"/>
      <point x="220" y="-884"/>
      <point x="220" y="-827" type="curve" smooth="yes"/>
      <point x="220" y="-803"/>
      <point x="207" y="-777"/>
      <point x="184" y="-762" type="curve"/>
      <point x="139" y="-823"/>
      <point x="61" y="-852"/>
      <point x="15" y="-852" type="curve" smooth="yes"/>
      <point x="-16" y="-852"/>
      <point x="-37" y="-838"/>
      <point x="-37" y="-813" type="curve" smooth="yes"/>
      <point x="-37" y="-783"/>
      <point x="-13" y="-741"/>
      <point x="154" y="-672" type="curve"/>
      <point x="161" y="-661" type="line"/>
      <point x="123" y="-582" type="line"/>
      <point x="41" y="-630"/>
      <point x="-4" y="-650"/>
      <point x="-34" y="-650" type="curve" smooth="yes"/>
      <point x="-59" y="-650"/>
      <point x="-68" y="-635"/>
      <point x="-68" y="-619" type="curve" smooth="yes"/>
      <point x="-68" y="-564"/>
      <point x="24" y="-509"/>
      <point x="81" y="-466" type="curve" smooth="yes"/>
      <point x="176" y="-395"/>
      <point x="213" y="-345"/>
      <point x="213" y="-264" type="curve" smooth="yes"/>
      <point x="213" y="-160"/>
      <point x="136" y="-80"/>
      <point x="36" y="-80" type="curve" smooth="yes"/>
      <point x="-12" y="-80"/>
      <point x="-86" y="-98"/>
      <point x="-154" y="-163" type="curve"/>
      <point x="-216" y="-93"/>
      <point x="-273" y="-70"/>
      <point x="-336" y="-70" type="curve" smooth="yes"/>
    </contour>
    <contour>
      <point x="-3.69322587362" y="-19.0" type="move" name="_blwm_matra"/>
    </contour>
  </outline>
</glyph>
<glyph name="dDbldanda" format="1">
  <advance width="1230"/>
  <unicode hex="0965"/>
  <outline>
    <contour>
      <point x="650" y="-52" type="line"/>
      <point x="913" y="1299" type="line"/>
      <point x="769" y="1337" type="line"/>
      <point x="759" y="1330" type="line"/>
      <point x="496" y="-21" type="line"/>
      <point x="640" y="-59" type="line"/>
    </contour>
    <contour>
      <point x="1020" y="-52" type="line"/>
      <point x="1283" y="1299" type="line"/>
      <point x="1139" y="1337" type="line"/>
      <point x="1129" y="1330" type="line"/>
      <point x="866" y="-21" type="line"/>
      <point x="1010" y="-59" type="line"/>
    </contour>
  </outline>
</glyph>
<glyph name="dZero" format="1">
  <advance width="1038"/>
  <unicode hex="0966"/>
  <outline>
    <contour>
      <point x="1067" y="852"/>
      <point x="906" y="1046"/>
      <point x="680" y="1046" type="curve" smooth="yes"/>
      <point x="438" y="1046"/>
      <point x="213" y="844"/>
      <point x="213" y="609" type="curve" smooth="yes"/>
      <point x="213" y="396"/>
      <point x="384" y="196"/>
      <point x="610" y="196" type="curve" smooth="yes"/>
      <point x="841" y="196"/>
      <point x="1067" y="382"/>
      <point x="1067" y="636" type="curve" smooth="yes"/>
    </contour>
    <contour>
      <point x="862" y="899"/>
      <point x="948" y="817"/>
      <point x="948" y="689" type="curve" smooth="yes"/>
      <point x="948" y="483"/>
      <point x="759" y="338"/>
      <point x="567" y="338" type="curve" smooth="yes"/>
      <point x="423" y="338"/>
      <point x="343" y="430"/>
      <point x="343" y="553" type="curve" smooth="yes"/>
      <point x="343" y="734"/>
      <point x="510" y="899"/>
      <point x="722" y="899" type="curve" smooth="yes"/>
    </contour>
  </outline>
</glyph>
<glyph name="dOne" format="1">
  <advance width="809"/>
  <unicode hex="0967"/>
  <outline>
    <contour>
      <point x="549" y="205"/>
      <point x="453" y="289"/>
      <point x="390" y="340" type="curve"/>
      <point x="754" y="632"/>
      <point x="899" y="775"/>
      <point x="899" y="972" type="curve" smooth="yes"/>
      <point x="899" y="1139"/>
      <point x="783" y="1277"/>
      <point x="624" y="1277" type="curve" smooth="yes"/>
      <point x="468" y="1277"/>
      <point x="314" y="1158"/>
      <point x="314" y="981" type="curve" smooth="yes"/>
      <point x="314" y="840"/>
      <point x="420" y="738"/>
      <point x="540" y="665" type="curve"/>
      <point x="457" y="589"/>
      <point x="342" y="495"/>
      <point x="199" y="382" type="curve"/>
      <point x="196" y="372" type="line"/>
      <point x="314" y="265"/>
      <point x="383" y="205"/>
      <point x="512" y="80" type="curve" smooth="yes"/>
      <point x="570" y="24"/>
      <point x="588" y="5"/>
      <point x="588" y="-20" type="curve" smooth="yes"/>
      <point x="588" y="-54"/>
      <point x="559" y="-104"/>
      <point x="480" y="-147" type="curve"/>
      <point x="494" y="-199"/>
      <point x="539" y="-237"/>
      <point x="588" y="-237" type="curve" smooth="yes"/>
      <point x="662" y="-237"/>
      <point x="734" y="-157"/>
      <point x="734" y="-65" type="curve" smooth="yes"/>
      <point x="734" y="-7"/>
      <point x="702" y="57"/>
      <point x="606" y="150" type="curve" smooth="yes"/>
    </contour>
    <contour>
      <point x="467" y="1064"/>
      <point x="557" y="1152"/>
      <point x="659" y="1152" type="curve" smooth="yes"/>
      <point x="727" y="1152"/>
      <point x="774" y="1106"/>
      <point x="774" y="1022" type="curve" smooth="yes"/>
      <point x="774" y="938"/>
      <point x="740" y="862"/>
      <point x="612" y="732" type="curve"/>
      <point x="505" y="802"/>
      <point x="467" y="879"/>
      <point x="467" y="949" type="curve" smooth="yes"/>
    </contour>
  </outline>
</glyph>
